<?xml version="1.0" encoding="UTF-8"?><svg id="Layer_1" xmlns="http://www.w3.org/2000/svg" viewBox="0 0 400 400"><defs><style>.cls-1{fill:#7375f9;}</style></defs><path class="cls-1" d="M211.92,215.92v-12.4h6.46v-24.23l.65-.45c3.31-2.28,6.08-5.12,8.25-8.44l.66-1,50.31,18.69.1,2.78-66.43,25.05ZM214.92,206.52v5.06l58.53-22.07-44.33-16.47c-2.12,3-4.72,5.63-7.74,7.81v25.67h-6.46Z"/><polygon class="cls-1" points="213.42 206.52 187.75 206.52 187.75 203.52 189.25 203.49 214.92 203.49 214.92 206.49 213.42 206.52"/><polygon class="cls-1" points="275.32 237.53 275.32 234.46 276.48 234.46 276.26 233.92 292.53 227.36 276.04 191.74 200.85 220.13 200.45 219.06 199.17 219.75 198.18 217.93 277.59 187.95 296.57 228.96 275.32 237.53"/><path class="cls-1" d="M200.45,220.76l-13.5-5.16.8-2.1v-9.99h27.17v11.27l-12.47,4.71.05.09-2.06,1.18ZM190.75,213.84l9.03,3.45h0s12.13-4.58,12.13-4.58v-6.2h-21.17v7.33Z"/><path class="cls-1" d="M221.39,198.82h-40.1v-9.23h40.1v9.23ZM184.29,195.82h34.1v-3.23h-34.1v3.23Z"/><path class="cls-1" d="M221.39,192.6h-40.1v-11.75c-3.52-2.55-6.58-5.83-8.87-9.51-3.38-5.39-5.17-11.63-5.17-18.04,0-18.81,15.29-34.11,34.09-34.11s34.09,15.3,34.09,34.11c0,6.71-1.95,13.2-5.63,18.76-2.23,3.42-5.06,6.38-8.41,8.8v11.75ZM190.61,163.05l10.73,27.69,10.72-27.72-5.19.67-5.73-9.25-5.59,9.31-4.94-.7ZM205,189.6h13.39v-10.31l.65-.45c3.31-2.28,6.08-5.12,8.25-8.44,3.36-5.07,5.14-10.98,5.14-17.11,0-17.16-13.95-31.11-31.09-31.11s-31.09,13.96-31.09,31.11c0,5.85,1.63,11.54,4.72,16.45,2.22,3.57,5.21,6.71,8.67,9.09l.65.45v10.31h13.39l-11.72-30.23,8.04,1.14,7.09-11.82,7.3,11.78,8.27-1.07-11.68,30.2Z"/><path class="cls-1" d="M203.84,192.6h-5l-12.88-33.23,8.04,1.14,7.09-11.82,7.3,11.78,8.27-1.07-12.84,33.2ZM200.9,189.6h.88l10.28-26.58-5.19.67-5.73-9.25-5.59,9.31-4.94-.7,10.29,26.54Z"/><path class="cls-1" d="M221.39,206.52h-40.1v-10.69h40.1v10.69ZM214.92,203.52h3.46v-4.69h-34.1v4.69h30.64Z"/><path class="cls-1" d="M189.75,216.68l-67.11-25.67-1.1-2.86,51.85-19.09h1.1l.47.71c2.21,3.56,5.21,6.7,8.67,9.08l.65.45v24.23h6.47v10.54l-1,2.62ZM126.83,189.39l60.92,23.3v-6.18h-6.47v-25.67c-3.19-2.32-6-5.22-8.21-8.49l-46.25,17.03Z"/><polygon class="cls-1" points="123.73 190 123.11 188.1 123.18 188.07 173.32 169.61 174.01 171.48 123.73 190"/><rect class="cls-1" x="251.67" y="154.45" width="2" height="51.47" transform="translate(-4.22 354.3) rotate(-69.62)"/><path class="cls-1" d="M220.39,205.52h-38.1v-25.18c-3.59-2.52-6.71-5.81-9.02-9.53-3.29-5.23-5.02-11.29-5.02-17.51,0-18.26,14.85-33.11,33.09-33.11s33.09,14.85,33.09,33.11c0,6.52-1.89,12.81-5.46,18.2-2.26,3.46-5.15,6.43-8.58,8.84v25.18ZM183.29,204.52h36.1v-24.7l.22-.15c3.42-2.36,6.28-5.29,8.52-8.71h0c3.47-5.23,5.3-11.33,5.3-17.65,0-17.71-14.39-32.11-32.09-32.11s-32.09,14.41-32.09,32.11c0,6.04,1.68,11.91,4.87,16.98,2.29,3.68,5.38,6.92,8.95,9.38l.22.15v24.7Z"/><rect class="cls-1" x="202.81" y="190.1" width="21.83" height="2"/><rect class="cls-1" x="178.01" y="190.1" width="21.86" height="2"/><rect class="cls-1" x="178.01" y="196.32" width="46.63" height="2"/><polygon class="cls-1" points="212.42 213.78 212.42 205.99 190.25 205.99 190.25 213.78 188.25 213.78 188.25 204.02 189.25 203.99 214.42 203.99 214.42 213.75 212.42 213.78"/><rect class="cls-1" x="198.6" y="103.7" width="2" height="10.54"/><rect class="cls-1" x="208.32" y="109.36" width="10.54" height="2" transform="translate(51.38 287.8) rotate(-74.89)"/><rect class="cls-1" x="221.49" y="114.32" width="10.55" height="2" transform="translate(13.71 254.34) rotate(-60.08)"/><rect class="cls-1" x="232.93" y="122.53" width="10.54" height="2" transform="translate(-17.36 205.32) rotate(-45.16)"/><rect class="cls-1" x="161" y="120.71" width="2" height="10.54" transform="translate(-41.64 151.34) rotate(-44.97)"/><rect class="cls-1" x="171.9" y="111.78" width="2" height="10.57" transform="translate(-35.33 101.6) rotate(-29.85)"/><rect class="cls-1" x="184.72" y="105.98" width="2" height="10.54" transform="translate(-22.43 51.73) rotate(-14.97)"/><path class="cls-1" d="M203.15,191.6h-3.62l-.12-.32-11.89-30.68,7.01.99,6.59-10.98,6.78,10.94,7.25-.93-11.99,30.99ZM200.21,190.6h2.25l11.13-28.78-6.22.8-6.25-10.09-6.09,10.14-5.98-.84,11.15,28.77Z"/><path class="cls-1" d="M175.89,259.74l-74.76-30.72,19.87-40.78,81.01,30.76-26.12,40.74ZM103.87,227.98l71.24,29.28,23.88-37.26-76.99-29.24-18.13,37.22Z"/><path class="cls-1" d="M222.07,257.74l-23.03-38.74,77.97-30.78,18.84,40.82-73.78,28.69ZM201.96,220l20.97,35.26,70.22-27.31-17.16-37.18-74.03,29.22Z"/><polygon class="cls-1" points="200.5 297.58 122.5 266.18 122.5 237.26 124.5 237.26 124.5 264.82 200.5 295.42 275.5 264.83 275.5 235.5 277.5 235.5 277.5 266.17 200.5 297.58"/><rect class="cls-1" x="199.5" y="219.5" width="2" height="77"/></svg>