<?xml version="1.0" encoding="UTF-8"?><svg id="Layer_1" xmlns="http://www.w3.org/2000/svg" viewBox="0 0 400 400"><defs><style>.cls-1{fill:#7375f9;}</style></defs><g id="WGIDXO"><path class="cls-1" d="M262.84,302.84h-119.34v-2.68h116.66V110.5h2.68v192.34ZM255.84,294.84h-119.34v-2.68h116.66V102.5h2.68v192.34ZM249.42,288.97h-114.13V95.24h114.13v193.73ZM137.98,286.28h108.76V97.92h-108.76v188.36Z"/><rect class="cls-1" x="156.53" y="190" width="71.64" height="4.08"/><rect class="cls-1" x="156.53" y="264" width="71.64" height="3.73"/><rect class="cls-1" x="162.5" y="116.48" width="55.72" height="3.52"/><path class="cls-1" d="M173.8,249.17h-18.6v-18.6h18.6v18.6ZM157.88,246.48h13.24v-13.24h-13.24v13.24Z"/><path class="cls-1" d="M201.66,249.17h-18.6v-18.6h18.6v18.6ZM185.74,246.48h13.24v-13.24h-13.24v13.24Z"/><path class="cls-1" d="M229.52,249.17h-18.6v-18.6h18.6v18.6ZM213.6,246.48h13.24v-13.24h-13.24v13.24Z"/></g><path class="cls-1" d="M184.12,155.2l23.53-13.58c-4.55-6.9-12.36-11.45-21.23-11.45-14.04,0-25.42,11.38-25.42,25.42s11.38,25.42,25.42,25.42c9.11,0,17.1-4.8,21.59-12.01l-23.89-13.79Z"/><path class="cls-1" d="M193.35,155.11l24.24,13.99c1.29-1.86,4.1-6.42,4.39-12.88.35-7.78-3.16-13.34-4.39-15.11-8.08,4.66-16.16,9.33-24.24,13.99Z"/><polygon class="cls-1" points="192.85 220.5 222 207 163.71 207 192.85 220.5"/></svg>