<?xml version="1.0" encoding="UTF-8"?><svg id="Layer_1" xmlns="http://www.w3.org/2000/svg" viewBox="0 0 400 400"><defs><style>.cls-1{fill:#7375f9;}</style></defs><path class="cls-1" d="M195,172.51s-.05,0-.08,0c0,0-.02,0-.02,0-.93-.02-1.72-.33-2.3-.89-.57-.58-.87-1.38-.89-2.31,0-.04,0-.09,0-.13.01-2.06,1.36-4.54,3.8-6.98,1.34-1.34,2.88-2.33,4.6-2.96,1.11-.4,2.25-.65,3.4-.74.38-.05.78.17.97.52.19.35.17.78-.07,1.1-1.06,1.44-1.08,2.85-1.1,4.35-.02,1.43-.04,3-1.29,4.25-2.46,2.45-4.95,3.8-7.02,3.8ZM194.96,170.46s.09,0,.14.01c.79-.03,2.7-.44,5.47-3.2.63-.63.67-1.47.69-2.79.02-1.09.04-2.33.48-3.62-.32.08-.63.18-.94.29-1.43.53-2.73,1.36-3.85,2.49-2.81,2.81-3.18,4.74-3.2,5.49,0,.04,0,.08,0,.11,0,.29.05.69.29.93.16.16.45.26.8.29.04,0,.08,0,.12,0Z"/><path class="cls-1" d="M192.88,176.03c-.26,0-.52-.1-.72-.3-.4-.4-.39-1.04,0-1.44.47-.46.95-.94,1.43-1.43.15-.15.27-.32.34-.5-.47-.19-.89-.47-1.25-.82-.36-.37-.64-.79-.84-1.25-.19.08-.35.19-.5.34-.49.48-.97.96-1.43,1.43-.39.41-1.04.41-1.44.02-.4-.39-.41-1.04-.02-1.44.47-.49.96-.97,1.45-1.46.45-.45,1-.78,1.58-.92.33-.1.73-.15,1.13-.13.49.02.89.39.96.87.07.44.24.8.54,1.1.27.27.66.46,1.1.52.48.07.84.48.86.96.02.39-.03.8-.14,1.17-.17.59-.48,1.11-.92,1.55-.49.49-.97.97-1.45,1.45-.2.2-.46.3-.72.3Z"/><path class="cls-1" d="M189.59,179.23c-.26,0-.52-.1-.72-.3l-3.59-3.6c-.39-.39-.4-1.03,0-1.43l.69-.71c.86-.88,2.18-2.23,2.52-2.58.4-.4,1.04-.4,1.44,0,.4.4.4,1.04,0,1.44-.34.34-1.64,1.67-2.5,2.55l2.17,2.18c.3-.29.66-.64,1.01-.98l1.55-1.52c.4-.39,1.04-.39,1.44,0,.39.4.39,1.04,0,1.44l-1.56,1.53c-.73.71-1.48,1.45-1.72,1.68-.2.2-.46.3-.72.3Z"/><path class="cls-1" d="M171.45,193.84c-.27,0-.58-.12-.76-.31-.64-.71-.23-1.5.69-3.06,1.99-3.43,6.93-9.32,13.89-16.56.19-.2.45-.31.73-.31.31-.02.54.11.73.3l3.59,3.6c.19.19.3.46.3.73,0,.27-.12.53-.31.72-7.22,6.94-13.1,11.87-16.55,13.89-1.61.93-1.98,1-2.3,1ZM186.01,176.07c-5.69,5.97-10.03,11.06-12.19,14.32,2.39-1.59,5.77-4.35,9.75-7.94,1.45-1.31,2.98-2.73,4.57-4.24l-2.12-2.13Z"/><path class="cls-1" d="M181.83,203.55c-.28,0-.55-.12-.75-.33-.26-.29-.34-.7-.2-1.06l3.66-9.35c.06-.14.14-.27.26-.38l22.94-21.18c.41-.38,1.06-.36,1.44.06l5.96,6.45c.18.2.28.46.27.73-.01.27-.13.52-.33.71l-22.94,21.19c-.11.1-.25.18-.4.23l-9.62,2.9c-.1.03-.2.04-.29.04ZM186.36,193.76l-2.81,7.18,7.39-2.23,22.02-20.34-4.58-4.96-22.02,20.33Z"/><path class="cls-1" d="M192.01,200.98c-.46,0-.87-.31-.99-.77l-.31-1.22-.8-.06c-.47-.04-.85-.39-.93-.85l-.21-1.27h-.92c-.27,0-.53-.11-.72-.3-.19-.19-.3-.45-.3-.72v-.9s-1.26-.2-1.26-.2c-.56-.09-.93-.61-.85-1.16.09-.56.62-.94,1.16-.85l2.13.34c.5.08.86.51.86,1.01v.75s.76,0,.76,0c.5,0,.93.36,1,.86l.22,1.34.73.06c.44.03.8.34.91.76l.49,1.92c.14.54-.19,1.1-.74,1.24-.08.02-.17.03-.25.03Z"/><path class="cls-1" d="M214.7,179.06c-.26,0-.52-.1-.72-.3l-6.22-6.21c-.19-.19-.3-.45-.3-.72s.11-.53.3-.72l1.62-1.62c1.23-1.24,3.41-1.25,4.65,0l2.99,2.98c.63.63.97,1.47.97,2.36,0,.88-.35,1.7-.97,2.31l-1.61,1.61c-.2.2-.46.3-.72.3ZM209.92,171.83l4.77,4.77.9-.9c.24-.23.37-.55.37-.88,0-.34-.13-.67-.37-.91l-2.99-2.98c-.47-.48-1.31-.48-1.77,0l-.91.9Z"/><path class="cls-1" d="M236.41,287.49h-89.72v-11.33h89.72v11.33ZM149.69,284.49h83.72v-5.33h-83.72v5.33Z"/><path class="cls-1" d="M220.02,279.17h-56.91l8.66-29.46h39.58l8.66,29.46ZM167.12,276.17h48.89l-6.9-23.46h-35.09l-6.9,23.46Z"/><path class="cls-1" d="M264.47,252.7H118.66c-5.85,0-10.61-4.32-10.61-9.63v-15.74h3c0,2.98,2.77,5.4,6.19,5.4h148.64c3.41,0,6.18-2.42,6.18-5.4h3v15.74c0,5.31-4.75,9.63-10.59,9.63ZM111.05,233.54v9.54c0,3.66,3.42,6.63,7.61,6.63h145.81c4.18,0,7.59-2.97,7.59-6.63v-9.54c-1.63,1.36-3.8,2.19-6.18,2.19H117.23c-2.38,0-4.55-.83-6.19-2.19Z"/><path class="cls-1" d="M172.89,252.7h-54.23c-5.85,0-10.61-4.32-10.61-9.63v-93.95c0-5.31,4.76-9.63,10.61-9.63l85.34.07v3s-85.34-.07-85.34-.07c-4.2,0-7.61,2.97-7.61,6.63v93.95c0,3.66,3.42,6.63,7.61,6.63h54.23v3Z"/><path class="cls-1" d="M264.47,252.7h-54.24v-3h54.24c4.18,0,7.59-2.97,7.59-6.63v-93.95c0-3.66-3.4-6.63-7.59-6.63h-9.47v-3h9.47c5.84,0,10.59,4.32,10.59,9.63v93.95c0,5.31-4.75,9.63-10.59,9.63Z"/><path class="cls-1" d="M265.87,235.73H117.23c-5.06,0-9.19-3.77-9.19-8.4h3c0,2.98,2.77,5.4,6.19,5.4h148.64c3.41,0,6.18-2.42,6.18-5.4h3c0,4.63-4.12,8.4-9.18,8.4Z"/><polygon class="cls-1" points="216.57 278.09 209.11 252.7 174.01 252.7 166.55 278.09 163.67 277.25 171.77 249.7 211.35 249.7 219.45 277.25 216.57 278.09"/><path class="cls-1" d="M236.41,287.49h-89.72v-11.33h89.72v11.33ZM149.69,284.49h83.72v-5.33h-83.72v5.33Z"/><path class="cls-1" d="M205.06,230.89h-27.94v-15.59h27.94v15.59ZM180.12,227.89h21.94v-9.59h-21.94v9.59Z"/><path class="cls-1" d="M256.95,227.76h-15.61v-9.36h15.61v9.36ZM244.34,224.76h9.61v-3.36h-9.61v3.36Z"/><rect class="cls-1" x="203.56" y="221.6" width="39.28" height="3"/><path class="cls-1" d="M140.78,227.76h-15.64v-9.36h15.64v9.36ZM128.14,224.76h9.64v-3.36h-9.64v3.36Z"/><rect class="cls-1" x="139.28" y="221.6" width="39.25" height="3"/><path class="cls-1" d="M265.5,122.2l-8.84-1.33c-.25-1.47-.64-2.92-1.17-4.34l6.99-5.55c.22-.17.27-.48.14-.71l-2.4-4.15c-.14-.24-.43-.34-.69-.24l-8.32,3.26c-.97-1.15-2.03-2.22-3.19-3.18l3.27-8.3c.1-.26,0-.55-.24-.69l-4.15-2.39c-.24-.14-.54-.08-.72.13l-5.57,6.97c-1.41-.52-2.88-.91-4.36-1.16l-1.33-8.81c-.04-.27-.28-.47-.55-.47h-4.8c-.28,0-.51.2-.55.47l-1.33,8.81c-1.48.25-2.94.64-4.35,1.16l-5.57-6.97c-.17-.21-.48-.27-.72-.14l-4.16,2.39c-.24.14-.34.43-.24.69l3.27,8.3c-1.15.95-2.21,2.02-3.18,3.18l-8.32-3.26c-.26-.1-.55,0-.69.24l-2.4,4.15c-.14.24-.08.54.14.71l6.99,5.54c-.52,1.41-.91,2.87-1.17,4.34l-8.83,1.33c-.27.04-.48.28-.48.55v4.78c0,.28.2.51.48.55l8.83,1.33c.26,1.48.65,2.93,1.17,4.34l-6.99,5.55c-.22.17-.27.48-.14.71l2.4,4.15c.14.24.43.34.69.24l8.32-3.26c.97,1.16,2.04,2.22,3.18,3.18l-3.27,8.3c-.1.26,0,.55.24.69l4.16,2.39c.24.14.54.08.72-.14l5.56-6.97c1.41.52,2.87.91,4.35,1.16l1.33,8.81c.04.27.28.47.55.47h4.8c.28,0,.51-.2.55-.47l1.33-8.81c1.47-.25,2.94-.64,4.36-1.16l5.57,6.96c.17.21.48.27.72.14l4.15-2.38c.24-.14.34-.43.24-.69l-3.27-8.3c1.15-.96,2.22-2.02,3.19-3.18l8.32,3.26c.26.1.55,0,.69-.24l2.4-4.15c.14-.24.08-.54-.14-.71l-6.99-5.55c.52-1.41.91-2.87,1.17-4.34l8.84-1.33c.27-.04.48-.28.48-.55v-4.78c0-.28-.2-.51-.48-.55ZM231.99,141.74c-9.17,0-16.64-7.44-16.64-16.59s7.46-16.59,16.64-16.59,16.64,7.44,16.64,16.59-7.47,16.59-16.64,16.59Z"/></svg>