<?xml version="1.0" encoding="UTF-8"?><svg id="Layer_1" xmlns="http://www.w3.org/2000/svg" viewBox="0 0 600 230"><defs><style>.cls-1{fill:#036;}.cls-2{fill:#7375f9;}</style></defs><path class="cls-1" d="M149.43,30.22h6.72v49.96c5.68-5.48,12.5-8.22,20.46-8.22,8.66,0,15.71,2.71,21.14,8.14,5.43,5.43,8.22,12.27,8.36,20.54v49.07h-6.72v-48.47c0-6.22-2.25-11.54-6.76-15.94-4.51-4.41-9.85-6.61-16.02-6.61s-11.5,2.17-15.98,6.5c-1.99,1.99-3.48,4.06-4.48,6.2v58.33h-6.72V30.22Z"/><path class="cls-1" d="M353.51,135.97c6.32,5.78,13.84,8.66,22.55,8.66,9.36,0,17.35-3.31,23.97-9.93.85-.85,1.64-1.72,2.39-2.61l7.09,2.54c-1.3,1.79-2.76,3.51-4.41,5.15-8.02,8.02-17.7,12.02-29.05,12.02s-20.96-4.01-28.98-12.02c-8.02-8.02-12.02-17.7-12.02-29.05s4.01-20.96,12.02-28.98c8.02-8.02,17.67-12.02,28.98-12.02,9.71,0,18.2,2.91,25.47,8.74,1.19,1,2.39,2.09,3.58,3.29.45.45.87.9,1.27,1.34l-5.08,5.08-47.8,47.8ZM396.38,83.61c-5.83-4.48-12.6-6.72-20.31-6.72-9.31,0-17.28,3.3-23.9,9.9-6.62,6.6-9.93,14.58-9.93,23.94,0,7.72,2.24,14.49,6.72,20.31l47.42-47.42Z"/><path class="cls-1" d="M426.09,149.71h-6.72v-73.34h6.72v10.38c1.3-1.74,2.71-3.41,4.26-5,4.69-4.69,9.97-7.97,15.81-9.92v8.12c-3.53,1.63-6.79,3.9-9.76,6.87-6.62,6.62-9.93,14.61-9.93,23.97l-.37,38.91Z"/><path class="cls-1" d="M495.54,76.37v10.38c-1.3-1.74-2.71-3.41-4.26-5-8.02-8.02-17.7-12.02-29.05-12.02-.16,0-.32.02-.48.02-.16,0-.32-.02-.48-.02-.07,0-.13,0-.2,0v7.21c.23,0,.45-.03.68-.03,9.15.11,16.98,3.41,23.49,9.91,6.62,6.62,9.93,14.61,9.93,23.97s-3.31,17.34-9.93,23.94c-6.5,6.48-14.34,9.76-23.49,9.87-7.84-.1-14.7-2.54-20.6-7.3v9.27c6,3.44,12.69,5.22,20.11,5.22.16,0,.32-.02.48-.02.16,0,.32.02.48.02,11.35,0,21.04-4.01,29.05-12.02,1.54-1.59,2.96-3.26,4.26-5v14.94h6.72v-73.34h-6.72Z"/><path class="cls-2" d="M226.15,52.32c1.32,1.3,1.98,2.86,1.98,4.71s-.66,3.49-1.98,4.78c-1.32,1.3-2.9,1.94-4.74,1.94s-3.42-.65-4.74-1.94c-1.32-1.29-1.98-2.89-1.98-4.78s.66-3.41,1.98-4.71c1.32-1.29,2.9-1.94,4.74-1.94s3.42.65,4.74,1.94Z"/><rect class="cls-2" x="218.04" y="76.89" width="6.72" height="72.82"/><path class="cls-1" d="M314.65,80.1c-5.43-5.43-12.47-8.14-21.14-8.14-7.37,0-13.74,2.39-19.15,7.09-5.26-4.7-11.9-7.09-19.97-7.09-6.24,0-11.75,1.73-16.58,5.09v8.76c.2-.21.39-.43.6-.64,4.48-4.33,9.81-6.5,15.98-6.5s11.51,2.2,16.02,6.61c1.36,1.33,2.49,2.75,3.44,4.25v.33c.03-.05.07-.11.1-.16,2.13,3.42,3.22,7.26,3.22,11.53v48.47h6.72v-49.07c-.12-6.38-1.82-11.9-5.08-16.59,4.21-3.56,9.1-5.37,14.7-5.37,6.17,0,11.51,2.2,16.02,6.61,4.5,4.41,6.76,9.72,6.76,15.94v48.47h6.72v-49.07c-.15-8.26-2.94-15.11-8.36-20.54Z"/><polygon class="cls-1" points="87.73 84.34 107.4 60.07 116.06 60.07 92.41 89.39 139.55 149.71 130.79 149.71 87.73 95.1 87.73 95.1 87.73 84.34"/><path class="cls-1" d="M319.77,186.05h.08c3.12,0,5.53.85,7.24,2.55,1.89,1.88,2.84,4.15,2.84,6.8s-.95,4.92-2.84,6.8c-1.71,1.7-4.13,2.55-7.24,2.55h-.08v.02h-1.07v-18.75h1.07v.02ZM319.77,187.13v16.56h.08c2.81,0,4.97-.75,6.47-2.25,1.68-1.66,2.52-3.68,2.52-6.03s-.84-4.36-2.52-6.03c-1.51-1.49-3.67-2.24-6.47-2.24h-.08Z"/><path class="cls-1" d="M343.79,186.03v1.05h-8.4v7.79h8.4v1.05h-8.4v7.79h8.4v1.05h-9.47v-18.75h9.47Z"/><path class="cls-1" d="M353.19,194.4c-1.35-.45-2.41-1.05-3.19-1.83s-1.17-1.71-1.17-2.81.39-2.01,1.17-2.78,1.73-1.17,2.84-1.17,2.05.39,2.84,1.16c.44.41.73.88.9,1.39l-.96.37c-.14-.38-.37-.73-.7-1.05-.58-.56-1.27-.84-2.08-.84s-1.51.28-2.08.85c-.58.57-.87,1.26-.87,2.07s.29,1.49.87,2.06c.54.52,1.28,1,2.22,1.44,1.51.48,2.79,1.24,3.82,2.26,1.1,1.08,1.65,2.38,1.65,3.91s-.55,2.85-1.65,3.94c-1.1,1.09-2.42,1.63-3.96,1.63s-2.87-.55-3.96-1.64c-.87-.87-1.4-1.87-1.57-3.02l1.01-.36c.11,1.02.55,1.9,1.31,2.66.89.88,1.96,1.32,3.22,1.32s2.34-.44,3.23-1.32c.89-.88,1.34-1.95,1.34-3.2s-.45-2.3-1.34-3.19c-.78-.77-1.74-1.39-2.87-1.85Z"/><path class="cls-1" d="M363.54,186.03v18.75h-1.07v-18.75h1.07Z"/><path class="cls-1" d="M384.6,202.45c-1.8,1.7-3.95,2.55-6.45,2.55-2.68,0-4.97-.94-6.86-2.81-1.89-1.87-2.83-4.13-2.83-6.79s.94-4.91,2.83-6.78c1.89-1.87,4.18-2.81,6.86-2.81,2.5,0,4.67.83,6.52,2.5l-.8.73c-1.63-1.43-3.53-2.14-5.72-2.14-2.37,0-4.4.83-6.08,2.5-1.68,1.66-2.52,3.67-2.52,6.02s.84,4.37,2.52,6.03c1.68,1.66,3.71,2.5,6.08,2.5,2.03,0,3.83-.62,5.38-1.86v-5.72h1.06v6.09Z"/><path class="cls-1" d="M389.36,186.03h1.17l9.73,16.67v-16.67h1.07v18.75h-1.07l-9.83-16.84v16.84h-1.06v-18.75Z"/><path class="cls-1" d="M420.83,194.4c-1.35-.45-2.41-1.05-3.19-1.83s-1.17-1.71-1.17-2.81.39-2.01,1.17-2.78,1.73-1.17,2.84-1.17,2.05.39,2.84,1.16c.44.41.73.88.9,1.39l-.96.37c-.14-.38-.37-.73-.7-1.05-.58-.56-1.27-.84-2.08-.84s-1.51.28-2.08.85c-.58.57-.87,1.26-.87,2.07s.29,1.49.87,2.06c.54.52,1.28,1,2.22,1.44,1.51.48,2.79,1.24,3.82,2.26,1.1,1.08,1.65,2.38,1.65,3.91s-.55,2.85-1.65,3.94c-1.1,1.09-2.42,1.63-3.96,1.63s-2.87-.55-3.96-1.64c-.87-.87-1.4-1.87-1.57-3.02l1.01-.36c.11,1.02.55,1.9,1.31,2.66.89.88,1.96,1.32,3.22,1.32s2.34-.44,3.23-1.32c.89-.88,1.34-1.95,1.34-3.2s-.45-2.3-1.34-3.19c-.78-.77-1.74-1.39-2.87-1.85Z"/><path class="cls-1" d="M434.55,187.08v17.69h-1.07v-17.69h-4.79v-1.05h10.65v1.05h-4.79Z"/><path class="cls-1" d="M454.43,186.03h1.08v13.48c-.2,1.43-.8,2.64-1.81,3.64-1.21,1.2-2.66,1.79-4.37,1.79s-3.17-.6-4.38-1.79c-1.21-1.2-1.81-2.64-1.81-4.32v-12.8h1.08v12.8c0,1.39.5,2.58,1.5,3.57s2.2,1.48,3.61,1.48,2.62-.49,3.61-1.48,1.49-2.18,1.49-3.57v-12.8Z"/><path class="cls-1" d="M461.55,186.05h.08c3.12,0,5.53.85,7.24,2.55,1.89,1.88,2.84,4.15,2.84,6.8s-.95,4.92-2.84,6.8c-1.71,1.7-4.13,2.55-7.24,2.55h-.08v.02h-1.06v-18.75h1.06v.02ZM461.55,187.13v16.56h.08c2.81,0,4.97-.75,6.47-2.25,1.68-1.66,2.52-3.68,2.52-6.03s-.84-4.36-2.52-6.03c-1.51-1.49-3.67-2.24-6.47-2.24h-.08Z"/><path class="cls-1" d="M477.41,186.03v18.75h-1.07v-18.75h1.07Z"/><path class="cls-1" d="M498.92,188.58c1.9,1.88,2.85,4.15,2.85,6.8s-.95,4.92-2.85,6.8c-1.9,1.88-4.19,2.82-6.87,2.82s-4.97-.94-6.87-2.82-2.85-4.15-2.85-6.8.95-4.92,2.85-6.8,4.19-2.82,6.87-2.82,4.97.94,6.87,2.82ZM492.05,186.84c-2.38,0-4.42.83-6.1,2.5-1.69,1.67-2.53,3.68-2.53,6.04s.84,4.37,2.53,6.05c1.68,1.67,3.72,2.51,6.1,2.51s4.42-.84,6.1-2.51c1.68-1.67,2.53-3.69,2.53-6.05s-.84-4.37-2.53-6.04c-1.69-1.67-3.72-2.5-6.1-2.5Z"/><polygon class="cls-1" points="502.27 173.48 317.78 173.48 317.78 159.61 318.78 159.61 318.78 172.48 501.27 172.48 501.27 159.61 502.27 159.61 502.27 173.48"/></svg>