<?xml version="1.0" encoding="UTF-8"?><svg id="Layer_1" xmlns="http://www.w3.org/2000/svg" viewBox="0 0 400 400"><defs><style>.cls-1{fill:#fff;}</style></defs><path class="cls-1" d="M212.96,264.11h-34.68c-.85,0-1.54-.69-1.54-1.54v-123.18c0-.23.05-.46.16-.67l17.34-35.69c.26-.53.8-.87,1.39-.87h0c.59,0,1.13.34,1.39.87l17.34,35.69c.1.21.16.44.16.67v123.18c0,.85-.69,1.54-1.54,1.54ZM179.82,261.03h31.59v-121.28l-15.8-32.51-15.8,32.51v121.28Z"/><path class="cls-1" d="M206.07,145.91c-.4,0-.79-.15-1.09-.45l-3.88-3.9-3.89,3.9c-.54.54-1.38.6-1.99.16l-5.89-4.26-3.66,3.16c-.5.43-1.22.5-1.8.16l-6.76-4.03c-.73-.44-.97-1.38-.53-2.11.44-.73,1.38-.97,2.11-.54l5.81,3.46,3.74-3.23c.54-.47,1.33-.5,1.91-.08l5.81,4.2,4.05-4.06c.29-.29.68-.45,1.09-.45h0c.41,0,.8.16,1.09.45l4.05,4.06,5.82-4.2c.69-.5,1.66-.34,2.15.35.5.69.34,1.66-.35,2.15l-6.89,4.97c-.27.19-.59.29-.9.29Z"/><path class="cls-1" d="M205.37,264.11c-.85,0-1.54-.69-1.54-1.54v-118.72c0-.85.69-1.54,1.54-1.54s1.54.69,1.54,1.54v118.72c0,.85-.69,1.54-1.54,1.54Z"/><path class="cls-1" d="M196.79,264.11c-.85,0-1.54-.69-1.54-1.53l-.53-119.31c0-.85.68-1.54,1.54-1.55h0c.85,0,1.54.69,1.54,1.53l.53,119.31c0,.85-.68,1.54-1.54,1.55h0Z"/><path class="cls-1" d="M185.39,264.11c-.85,0-1.54-.69-1.54-1.54v-120.7c0-.85.69-1.54,1.54-1.54s1.54.69,1.54,1.54v120.7c0,.85-.69,1.54-1.54,1.54Z"/><path class="cls-1" d="M200.11,289.81h-8.97c-7.94,0-14.4-6.45-14.4-14.38v-12.86c0-.85.69-1.54,1.54-1.54h34.68c.85,0,1.54.69,1.54,1.54v12.86c0,7.93-6.46,14.38-14.39,14.38Z"/><path class="cls-1" d="M148.18,133.38h-23.36c-.85,0-1.54-.69-1.54-1.54v-23.37c0-.85.69-1.54,1.54-1.54h23.36c.85,0,1.54.69,1.54,1.54v23.37c0,.85-.69,1.54-1.54,1.54Z"/><path class="cls-1" d="M266.02,289.65h-23.36c-.85,0-1.54-.69-1.54-1.54v-23.37c0-.85.69-1.54,1.54-1.54h23.36c.85,0,1.54.69,1.54,1.54v23.37c0,.85-.69,1.54-1.54,1.54ZM244.2,286.57h20.27v-20.28h-20.27v20.28Z"/><path class="cls-1" d="M266.02,133.38h-23.36c-.85,0-1.54-.69-1.54-1.54v-23.37c0-.85.69-1.54,1.54-1.54h23.36c.85,0,1.54.69,1.54,1.54v23.37c0,.85-.69,1.54-1.54,1.54ZM244.2,130.29h20.27v-20.28h-20.27v20.28Z"/><path class="cls-1" d="M148.18,289.65h-23.36c-.85,0-1.54-.69-1.54-1.54v-23.37c0-.85.69-1.54,1.54-1.54h23.36c.85,0,1.54.69,1.54,1.54v23.37c0,.85-.69,1.54-1.54,1.54ZM126.37,286.57h20.27v-20.28h-20.27v20.28Z"/><path class="cls-1" d="M242.66,277.97h-28.76c-.85,0-1.54-.69-1.54-1.54s.69-1.54,1.54-1.54h28.76c.85,0,1.54.69,1.54,1.54s-.69,1.54-1.54,1.54ZM177.72,277.97h-29.54c-.85,0-1.54-.69-1.54-1.54s.69-1.54,1.54-1.54h29.54c.85,0,1.54.69,1.54,1.54s-.69,1.54-1.54,1.54ZM254.34,266.28c-.85,0-1.54-.69-1.54-1.54v-51.02c0-.85.69-1.54,1.54-1.54s1.54.69,1.54,1.54v51.02c0,.85-.69,1.54-1.54,1.54ZM136.51,266.28c-.85,0-1.54-.69-1.54-1.54v-51.02c0-.85.69-1.54,1.54-1.54s1.54.69,1.54,1.54v51.02c0,.85-.69,1.54-1.54,1.54ZM254.34,177.69c-.85,0-1.54-.69-1.54-1.54v-44.31c0-.85.69-1.54,1.54-1.54s1.54.69,1.54,1.54v44.31c0,.85-.69,1.54-1.54,1.54ZM136.51,177.69c-.85,0-1.54-.69-1.54-1.54v-44.31c0-.85.69-1.54,1.54-1.54s1.54.69,1.54,1.54v44.31c0,.85-.69,1.54-1.54,1.54ZM242.66,121.69h-39.05c-.85,0-1.54-.69-1.54-1.54s.69-1.54,1.54-1.54h39.05c.85,0,1.54.69,1.54,1.54s-.69,1.54-1.54,1.54ZM187.63,121.69h-39.45c-.85,0-1.54-.69-1.54-1.54s.69-1.54,1.54-1.54h39.45c.85,0,1.54.69,1.54,1.54s-.69,1.54-1.54,1.54Z"/><path class="cls-1" d="M284.46,215.26h-71.5c-.85,0-1.54-.69-1.54-1.54v-37.57c0-.85.69-1.54,1.54-1.54h71.5c.85,0,1.54.69,1.54,1.54v37.57c0,.85-.69,1.54-1.54,1.54ZM214.5,212.18h68.42v-34.49h-68.42v34.49ZM178.28,215.26h-71.51c-.85,0-1.54-.69-1.54-1.54v-37.57c0-.85.69-1.54,1.54-1.54h71.51c.85,0,1.54.69,1.54,1.54v37.57c0,.85-.69,1.54-1.54,1.54ZM108.31,212.18h68.42v-34.49h-68.42v34.49Z"/><path class="cls-1" d="M267.9,215.26c-.85,0-1.54-.69-1.54-1.54v-20.26c0-.85.69-1.54,1.54-1.54s1.54.69,1.54,1.54v20.26c0,.85-.69,1.54-1.54,1.54Z"/><path class="cls-1" d="M253.25,215.26c-.85,0-1.54-.69-1.54-1.54v-12.44c0-.85.69-1.54,1.54-1.54s1.54.69,1.54,1.54v12.44c0,.85-.69,1.54-1.54,1.54Z"/><path class="cls-1" d="M238.61,215.26c-.85,0-1.54-.69-1.54-1.54v-20.26c0-.85.69-1.54,1.54-1.54s1.54.69,1.54,1.54v20.26c0,.85-.69,1.54-1.54,1.54Z"/><path class="cls-1" d="M223.95,215.26c-.85,0-1.54-.69-1.54-1.54v-12.44c0-.85.69-1.54,1.54-1.54s1.54.69,1.54,1.54v12.44c0,.85-.69,1.54-1.54,1.54Z"/><path class="cls-1" d="M165.37,215.26c-.85,0-1.54-.69-1.54-1.54v-12.44c0-.85.69-1.54,1.54-1.54s1.54.69,1.54,1.54v12.44c0,.85-.69,1.54-1.54,1.54Z"/><path class="cls-1" d="M150.73,215.26c-.85,0-1.54-.69-1.54-1.54v-20.26c0-.85.69-1.54,1.54-1.54s1.54.69,1.54,1.54v20.26c0,.85-.69,1.54-1.54,1.54Z"/><path class="cls-1" d="M136.08,215.26c-.85,0-1.54-.69-1.54-1.54v-12.44c0-.85.69-1.54,1.54-1.54s1.54.69,1.54,1.54v12.44c0,.85-.69,1.54-1.54,1.54Z"/><path class="cls-1" d="M121.42,215.26c-.85,0-1.54-.69-1.54-1.54v-20.26c0-.85.69-1.54,1.54-1.54s1.54.69,1.54,1.54v20.26c0,.85-.69,1.54-1.54,1.54Z"/></svg>