<?xml version="1.0" encoding="UTF-8"?><svg id="Layer_1" xmlns="http://www.w3.org/2000/svg" viewBox="0 0 400 400"><defs><style>.cls-1{fill:#fff;}</style></defs><g id="jsk1I4"><path class="cls-1" d="M177.88,245.71c-.82,0-1.67-.11-2.53-.44-.03,0-.06,0-.08,0-.14.01-.27.02-.4.02h-60.01c-4.02,0-6.83-2.74-6.83-6.66v-26.93c0-26.34,0-52.69-.03-79.03,0-1.94.71-3.73,2-5.02,1.29-1.29,3.08-2.01,5.02-2.01h0c52.79.04,106.32.04,159.11,0h0c1.94,0,3.73.71,5.02,2.01s2.01,3.08,2,5.02c-.05,37.16-.05,71.71,0,105.61,0,1.88-.76,3.72-2.1,5.05-1.3,1.3-3.04,2.01-4.9,2.01-.02,0-.03,0-.05,0-24.21-.15-42.66-.14-59.81.05-1.41.02-2.82-.03-4.18-.08-1.61-.05-3.27-.11-4.88-.06-2.17.07-4.37.05-6.49.04-.94,0-1.87-.01-2.81-.01h-3.09v-2.68h3.09c.94,0,1.89,0,2.83.01,2.1.02,4.27.03,6.39-.04,1.7-.05,3.41,0,5.06.06,1.33.04,2.71.09,4.06.08,17.17-.19,35.63-.2,59.86-.05h.03c1.46,0,2.44-.67,3-1.23.83-.83,1.31-1.98,1.31-3.15-.05-33.91-.06-68.46,0-105.62,0-1.23-.43-2.33-1.22-3.12-.79-.79-1.9-1.22-3.12-1.22h0c-52.79.04-106.33.04-159.11,0h0c-1.23,0-2.33.43-3.12,1.22-.79.79-1.22,1.9-1.22,3.12.04,26.34.03,52.69.03,79.03v26.93c0,2.45,1.59,3.97,4.14,3.97h40.01s20,0,20,0c.05,0,.1,0,.16-.01.29-.03.73-.07,1.2.12,1.15.47,2.36.29,3.76.08,1.1-.16,2.24-.33,3.44-.19l-.32,2.66c-.85-.1-1.77.03-2.73.18-.79.12-1.62.24-2.49.24Z"/><path class="cls-1" d="M265.92,229.21h-.01c-38.44-.02-76.89-.02-115.34-.02h-27.32c-3.52,0-4.6-1.07-4.6-4.6,0-2.48,0-4.96-.01-7.45-.02-6.89-.03-14.02.08-21.04.03-2,.02-4.03,0-5.99v-.5c-.07-9.14-.07-18.43-.07-27.42,0-6.75,0-13.5-.03-20.25,0-1.56.39-2.7,1.2-3.5.8-.79,1.94-1.15,3.46-1.14,2.49.04,5.02.03,7.48.02,3.17-.01,6.45-.03,9.68.08,1.46.05,2.95.03,4.39.01.69,0,1.39-.02,2.08-.02,23.64-.05,47.28-.06,70.92-.06,16.03,0,32.05,0,48.08-.03h.01c1.53,0,2.66.39,3.45,1.18.79.79,1.18,1.93,1.17,3.46-.06,15.01-.04,30.28-.02,45.05v2.26c0,1.14-.19,2.22-.6,3.28.52,1.11.59,2.25.59,3.24v4.82c-.02,7.86-.03,15.98.02,23.97,0,1.13-.11,2.55-1.09,3.53-.97.97-2.39,1.1-3.52,1.1ZM168.42,226.5c32.5,0,64.99,0,97.49.02h0c1.09,0,1.48-.17,1.62-.31.12-.12.31-.49.31-1.62-.05-8-.03-16.13-.02-23.99v-4.82c0-1.12-.13-1.81-.49-2.38l1.3-.8-1.39-.62c.39-.88.58-1.76.58-2.71v-2.26c-.02-14.77-.04-30.04.02-45.06,0-.53-.06-1.23-.39-1.55s-1.02-.39-1.55-.39h0c-16.03.02-32.05.02-48.08.03-23.64,0-47.27.01-70.91.06-.69,0-1.37,0-2.06.02-1.47.02-2.99.04-4.51-.01-3.18-.11-6.44-.09-9.58-.08-2.47.01-5.02.02-7.54-.02-.52,0-1.2.05-1.53.37-.33.33-.4,1.04-.4,1.58.03,6.75.03,13.51.03,20.26,0,8.98,0,18.27.07,27.4v.5c.02,1.98.03,4.02,0,6.05-.11,6.99-.09,14.11-.08,20.99,0,2.48.01,4.97.01,7.45q0,1.92,1.92,1.92h45.16Z"/><path class="cls-1" d="M194.58,272.05c-8.69,0-17.38,0-26.06,0-3.16,0-5.63-2.32-5.63-5.28s2.42-5.27,5.62-5.28h1.42c1.51-.02,3.07-.03,4.62.01,1.01.03,1.93-.16,2.83-.58l.74,1.6.69-1.62c.96.41,1.68.59,2.38.59h0c2.77,0,5.54,0,8.31,0,6.04.01,12.28.03,18.41-.09.54-.01,1.07-.03,1.6-.05,1.53-.06,3.12-.13,4.77.08,1.36.17,2.77.13,4.25.09.7-.02,1.4-.03,2.1-.04,3.21,0,5.62,2.28,5.62,5.28s-2.47,5.28-5.63,5.28c-8.69,0-17.38,0-26.06,0ZM171.98,264.15c-.68,0-1.36,0-2.02,0h-1.43c-1.74.01-2.95,1.08-2.95,2.61s1.27,2.6,2.95,2.6c17.37,0,34.75,0,52.12,0,1.68,0,2.94-1.12,2.94-2.6s-1.21-2.6-2.95-2.6c-.66-.01-1.34.02-2.01.04-1.52.04-3.09.09-4.66-.11-1.43-.18-2.84-.12-4.33-.06-.55.02-1.1.04-1.66.06-6.16.12-12.42.1-18.47.09-2.77,0-5.53-.01-8.3,0-1.22-.04-2.25-.32-3.08-.65-1.16.48-2.36.69-3.65.66-.83-.02-1.67-.03-2.51-.03Z"/><path class="cls-1" d="M218.24,168.52c.03-1.72-1.01-2.64-2.39-3.45-6.1-3.56-12.25-7.06-18.36-10.61-3.94-2.29-7.92-4.52-11.83-6.86-3.03-1.81-5.7.25-5.68,3.43.06,11.66.01,23.32.03,34.98,0,3.34,2.74,4.91,5.65,3.25,10.07-5.75,20.05-11.67,30.16-17.35,1.17-.66,2.39-1.57,2.42-3.22"/><rect class="cls-1" x="185.49" y="201.47" width="76.81" height="2.68"/><rect class="cls-1" x="159.43" y="214.16" width="66.53" height="2.68"/><path class="cls-1" d="M248.54,193.92c-1.82,0-3.24-.49-4.22-1.46-1.05-1.03-1.57-2.57-1.56-4.58.06-9.61.05-19.38.04-28.83,0-3.59,0-7.18,0-10.77h2.68c0,3.59,0,7.17,0,10.76,0,9.46.02,19.23-.04,28.85,0,1.25.25,2.14.76,2.64.49.48,1.35.73,2.53.68,4.65-.11,9.37-.09,13.93-.07,1.88,0,3.76.02,5.64.02v2.68c-1.89,0-3.77,0-5.66-.02-4.55-.02-9.25-.04-13.86.07-.09,0-.17,0-.25,0Z"/><rect class="cls-1" x="127.03" y="201.47" width="44.75" height="2.68"/><path class="cls-1" d="M131.34,194.21c-1.75,0-3.5,0-5.25,0h-5.24v-2.68h5.24c4.37,0,8.73,0,13.1,0,2.19,0,3.12-.94,3.12-3.11,0-1.25.02-2.5.03-3.75.04-2.97.07-6.04-.1-9.03-.1-1.7-.06-3.38-.02-5,.01-.59.03-1.19.04-1.78.09-7.16.08-14.44.06-21.49,0-2.61,0-5.21,0-7.81h2.68c0,2.6,0,5.21,0,7.81.01,7.05.03,14.35-.06,21.53,0,.61-.02,1.21-.04,1.81-.04,1.64-.08,3.19.02,4.79.17,3.08.14,6.2.1,9.21-.02,1.24-.03,2.48-.03,3.72,0,3.67-2.11,5.78-5.8,5.79-2.62,0-5.24,0-7.86,0Z"/><path class="cls-1" d="M253.25,216.86c-1.68,0-3.35,0-5-.01-2.86-.01-5.71-.02-8.57,0l-.02-2.68c2.86-.02,5.73-.01,8.6,0,4.6.02,9.35.04,14.01-.09l.07,2.68c-3.02.08-6.07.1-9.09.1Z"/><path class="cls-1" d="M131.6,216.85c-1.59,0-3.45-.03-5.27-.27l.36-2.66c1.78.24,3.54.26,5.65.25,3.17,0,6.33,0,9.5,0h3.88v2.68h-3.88c-3.16,0-6.32,0-9.49,0-.24,0-.49,0-.75,0Z"/><path class="cls-1" d="M178.67,210.37c-1.27,0-2.52-.3-3.59-.89-3.83-2.09-5.15-6.39-3.13-10.22.94-1.78,2.52-3.09,4.44-3.67,2.04-.62,4.27-.41,6.13.58,2.61,1.4,3.43,4.09,4.09,6.25l-1.48.45,1.37.76c-.28.5-.49,1.06-.71,1.65-.12.33-.24.65-.38.97-.69,1.66-2.17,2.98-4.06,3.65-.87.3-1.78.46-2.68.46ZM178.74,197.92c-.53,0-1.06.08-1.57.23-.88.27-2.08.89-2.85,2.36-1.34,2.55-.52,5.21,2.05,6.61,1.18.64,2.71.74,4.1.25,1.17-.41,2.07-1.2,2.47-2.15.12-.29.23-.58.34-.88.19-.51.39-1.04.64-1.56-.55-1.79-1.15-3.44-2.67-4.25-.75-.4-1.63-.61-2.5-.61Z"/><path class="cls-1" d="M152.54,223.04c-1.71,0-3.31-.59-4.62-1.7-1.8-1.55-2.68-3.5-3.29-5.21l1.54-.55-1.57-.42c.21-.78.5-1.5.78-2.2l.14-.35c1.01-2.54,3.33-4.36,6.05-4.74,2.75-.39,5.36.73,7.18,3.08.53.69,2.16,2.79,1.65,5.33-.27,1.34-.93,2.53-1.54,3.52-.97,1.58-2.98,2.82-5.12,3.15-.4.06-.8.09-1.19.09ZM147.27,215.54c.51,1.34,1.17,2.7,2.39,3.75,1.28,1.1,2.69,1.15,3.65,1,1.58-.25,2.79-1.16,3.25-1.91.51-.83,1.01-1.72,1.19-2.64.19-.93-.16-1.9-1.14-3.16-1.65-2.14-3.64-2.21-4.68-2.06-1.77.25-3.28,1.43-3.93,3.08l-.14.36c-.22.55-.43,1.07-.59,1.59Z"/><path class="cls-1" d="M232.78,223.03c-1.7,0-3.31-.58-4.62-1.69-1.51-1.28-2.22-2.86-2.92-4.39-.11-.24-.22-.48-.33-.72l1.45-.68-1.53-.41c.21-.78.5-1.5.78-2.2l.14-.34c1.01-2.54,3.33-4.36,6.05-4.74,2.75-.39,5.36.73,7.18,3.08.53.69,2.16,2.79,1.65,5.34-.27,1.34-.93,2.53-1.54,3.52-.97,1.57-2.96,2.8-5.09,3.14-.41.07-.82.1-1.22.1ZM227.53,215.5c.05.12.11.24.16.36.6,1.32,1.16,2.56,2.21,3.45,1.29,1.09,2.71,1.14,3.68.99,1.35-.21,2.67-1,3.23-1.9.51-.83,1.01-1.72,1.19-2.64.19-.93-.16-1.9-1.14-3.16-1.65-2.14-3.64-2.21-4.68-2.06-1.77.25-3.28,1.43-3.93,3.08l-.14.35c-.21.53-.42,1.04-.57,1.55Z"/><path class="cls-1" d="M179.43,262.25l-2.62-.58c.16-.71.15-1.47.14-2.28v-.52s0-14.06,0-14.06h2.68v14.55c0,.92.02,1.88-.2,2.88Z"/><path class="cls-1" d="M209.73,262.25c-.22-1-.21-1.96-.2-2.88v-.49s0-14.06,0-14.06h2.68v14.58c0,.81-.01,1.58.14,2.28l-2.62.58Z"/><rect class="cls-1" x="130.8" y="170.95" width="12" height="2.68"/></g></svg>