<?xml version="1.0" encoding="UTF-8"?><svg id="Layer_1" xmlns="http://www.w3.org/2000/svg" viewBox="0 0 400 400"><defs><style>.cls-1{fill:#fff;}</style></defs><path class="cls-1" d="M196.73,287.73h-94.45v-94.45h94.45v94.45ZM103.73,286.27h91.55v-91.55h-91.55v91.55Z"/><rect class="cls-1" x="156.04" y="252.85" width="29.06" height="21.8"/><polygon class="cls-1" points="137.37 194 137.37 237.59 149.5 230.33 161.12 237.59 161.12 194 137.37 194"/><path class="cls-1" d="M296.73,287.73h-94.45v-94.45h94.45v94.45ZM203.73,286.27h91.55v-91.55h-91.55v91.55Z"/><rect class="cls-1" x="256.04" y="252.85" width="29.06" height="21.8"/><polygon class="cls-1" points="237.37 194 237.37 237.59 249.5 230.33 261.12 237.59 261.12 194 237.37 194"/><path class="cls-1" d="M244.73,189.73h-94.45v-94.45h94.45v94.45ZM151.73,188.27h91.55v-91.55h-91.55v91.55Z"/><rect class="cls-1" x="204.04" y="154.85" width="29.06" height="21.8"/><polygon class="cls-1" points="185.37 96 185.37 139.59 197.5 132.33 209.12 139.59 209.12 96 185.37 96"/></svg>