<?xml version="1.0" encoding="UTF-8"?><svg id="Layer_1" xmlns="http://www.w3.org/2000/svg" viewBox="0 0 400 400"><defs><style>.cls-1{fill:#fff;}</style></defs><polygon class="cls-1" points="237.96 186.68 103.34 186.68 103.34 183.35 236.63 183.35 287.85 134.46 290.15 136.87 237.96 186.68"/><path class="cls-1" d="M234.63,171.66H95.49l61.47-52.69h132.86l-55.2,52.69ZM104.51,168.33h128.78l48.21-46.02h-123.31l-53.69,46.02Z"/><polygon class="cls-1" points="237.96 199.61 103.34 199.61 103.34 196.27 236.63 196.27 287.85 147.38 290.15 149.79 237.96 199.61"/><polygon class="cls-1" points="237.96 212.54 103.34 212.54 103.34 209.2 236.63 209.2 287.85 160.31 290.15 162.72 237.96 212.54"/><polygon class="cls-1" points="237.96 225.46 103.34 225.46 103.34 222.13 236.63 222.13 287.85 173.23 290.15 175.65 237.96 225.46"/><polygon class="cls-1" points="237.96 238.39 103.34 238.39 103.34 235.05 236.63 235.05 287.85 186.16 290.15 188.57 237.96 238.39"/><polygon class="cls-1" points="237.96 251.31 103.34 251.31 103.34 247.98 236.63 247.98 287.85 199.09 290.15 201.5 237.96 251.31"/><polygon class="cls-1" points="237.96 264.24 103.34 264.24 103.34 260.91 236.63 260.91 287.85 212.01 290.15 214.43 237.96 264.24"/><path class="cls-1" d="M174.18,134.4c1.55.4,13.56,11.08,18.27,12.36,2.79.03,8.36-5.16,10.42-6.09,1.83-.83,1.82-.68,3.99-.11,2.53.66,23.45,12.36,26.01,14.15,3.48,2.44,1.13,4.07-3.97,2.24-7.15-2.57-16.61-9.66-22.12-13.08-5.5.88-9.77,9.1-17.11,7.26-1.63-.41-14.17-11.6-18.26-13.09-3.27.61-22.52,15.39-27.42,17.99-5.62,2.98-9.66,1.56-5.74-1.46,3.13-2.41,27.72-19.2,30.24-19.83,1.45-.36,4.65-.6,5.7-.33Z"/><ellipse class="cls-1" cx="231.54" cy="132.1" rx="11.25" ry="5.5"/></svg>