<?xml version="1.0" encoding="UTF-8"?><svg id="Layer_1" xmlns="http://www.w3.org/2000/svg" viewBox="0 0 400 400"><defs><style>.cls-1{fill:#fff;}</style></defs><path class="cls-1" d="M279.63,261.49h-23.06c-.89,0-1.61-.72-1.61-1.61s.72-1.61,1.61-1.61h21.45v-112.43h-135.81v20.21c0,.89-.72,1.61-1.61,1.61s-1.61-.72-1.61-1.61v-21.82c0-.89.72-1.61,1.61-1.61h139.03c.89,0,1.61.72,1.61,1.61v115.65c0,.89-.72,1.61-1.61,1.61Z"/><path class="cls-1" d="M259.33,283.33H114.67c-.92,0-1.67-.72-1.67-1.61v-115.68c0-.89.75-1.61,1.67-1.61h144.65c.92,0,1.67.72,1.67,1.61v115.68c0,.89-.75,1.61-1.67,1.61ZM116.35,280.11h141.31v-112.46H116.35v112.46Z"/><path class="cls-1" d="M256.56,243.34c-.33,0-.67-.1-.96-.32l-32.84-24.48-25.51,20.88c-.69.56-1.7.46-2.26-.22-.56-.69-.46-1.7.23-2.26l26.48-21.68c.57-.47,1.39-.49,1.98-.05l33.85,25.23c.71.53.86,1.54.33,2.25-.32.42-.8.65-1.29.65Z"/><path class="cls-1" d="M256.56,244.84c-.67,0-1.31-.21-1.86-.61l-31.9-23.78-24.6,20.14c-1.32,1.08-3.28.89-4.37-.43-1.09-1.33-.89-3.29.43-4.38l26.48-21.68c1.1-.9,2.68-.94,3.82-.09l33.85,25.23c1.38,1.03,1.66,2.98.63,4.35-.58.78-1.52,1.25-2.49,1.25ZM222.72,216.64l33.84,25.2s.06,0,.09-.04c.04-.05.03-.12-.02-.15l-33.84-25.23s-.09-.03-.13,0l-26.48,21.68s-.05.11-.01.15c.04.04.1.05.15.01l26.41-21.63Z"/><path class="cls-1" d="M117.53,261.74c-.46,0-.92-.2-1.24-.58-.57-.68-.47-1.7.21-2.26l51.98-43.01c.58-.49,1.43-.49,2.02-.02l44.9,35.35c.7.55.82,1.56.27,2.26-.55.7-1.56.82-2.26.27l-43.88-34.55-50.98,42.19c-.3.25-.66.37-1.03.37Z"/><path class="cls-1" d="M117.53,263.24c-.93,0-1.8-.41-2.39-1.13-1.09-1.32-.91-3.28.41-4.38l51.98-43.01c1.11-.93,2.75-.95,3.9-.05l44.91,35.36c.65.51,1.07,1.25,1.16,2.07.1.83-.13,1.64-.64,2.29-1.06,1.34-3.02,1.58-4.37.52l-42.93-33.8-50.05,41.41c-.56.46-1.26.71-1.98.71ZM169.51,217.01s-.05,0-.06.02l-51.99,43.02s-.05.11-.01.15l.08.04s.06-.01.07-.03l51.91-42.96,44.83,35.3s.12.03.16-.02c.03-.04.02-.12-.02-.15l-44.9-35.36s-.04-.02-.07-.02Z"/><path class="cls-1" d="M202.11,210.39c-6.65,0-12.07-5.41-12.07-12.06s5.41-12.06,12.07-12.06,12.06,5.41,12.06,12.06-5.41,12.06-12.06,12.06Z"/><path class="cls-1" d="M202.11,211.89c-7.48,0-13.57-6.08-13.57-13.56s6.09-13.56,13.57-13.56,13.56,6.08,13.56,13.56-6.08,13.56-13.56,13.56ZM202.11,187.77c-5.83,0-10.57,4.74-10.57,10.56s4.74,10.56,10.57,10.56,10.56-4.74,10.56-10.56-4.74-10.56-10.56-10.56Z"/><path class="cls-1" d="M259.63,145.82c-.41,0-.82-.16-1.14-.47l-44.33-44.34c-.63-.63-.63-1.65,0-2.28s1.65-.63,2.27,0l44.33,44.34c.63.63.63,1.65,0,2.28-.31.31-.73.47-1.14.47ZM161.96,145.82c-.41,0-.82-.16-1.14-.47-.63-.63-.63-1.65,0-2.28l44.33-44.34c.63-.63,1.65-.63,2.27,0s.63,1.65,0,2.28l-44.33,44.34c-.31.31-.73.47-1.14.47Z"/><path class="cls-1" d="M210.8,103.33c-4.4,0-7.99-3.58-7.99-7.98s3.58-7.98,7.99-7.98,7.99,3.58,7.99,7.98-3.58,7.98-7.99,7.98ZM210.8,90.59c-2.63,0-4.77,2.14-4.77,4.76s2.14,4.76,4.77,4.76,4.77-2.13,4.77-4.76-2.14-4.76-4.77-4.76Z"/></svg>