<?xml version="1.0" encoding="UTF-8"?><svg id="Layer_1" xmlns="http://www.w3.org/2000/svg" viewBox="0 0 400 400"><defs><style>.cls-1{fill:#fff;}</style></defs><path class="cls-1" d="M284.47,282.11h-33.24c-1.02,0-1.85-.83-1.85-1.85v-33.99c0-2.17-1.77-3.94-3.94-3.94s-3.94,1.77-3.94,3.94c0,1.02-.83,1.85-1.85,1.85s-1.85-.83-1.85-1.85v-8.26c0-2.17-1.77-3.94-3.94-3.94s-3.94,1.77-3.94,3.94c0,1.02-.83,1.85-1.85,1.85s-1.85-.83-1.85-1.85v-6.61c0-2.17-1.77-3.94-3.94-3.94s-3.94,1.77-3.94,3.94c0,1.02-.83,1.85-1.85,1.85s-1.85-.83-1.85-1.85v-26.6c0-2.17-1.77-3.94-3.94-3.94s-3.94,1.77-3.94,3.94v59.45c0,.81-.52,1.52-1.29,1.76-.77.24-1.61-.04-2.07-.71l-4.9-7.04c-.73-.68-1.67-1.05-2.68-1.05-1.05,0-2.04.41-2.78,1.15-1.54,1.54-1.54,4.04,0,5.57.12.12.22.25.31.4l8.34,14.89c.2.3.32.65.32,1.04,0,1.02-.83,1.85-1.85,1.85h-85.62c-1.02,0-1.85-.83-1.85-1.85v-151.41c0-1.02.83-1.85,1.85-1.85h169.88c1.02,0,1.85.83,1.85,1.85v151.41c0,1.02-.82,1.85-1.84,1.85ZM253.08,278.41h29.54v-147.72H116.44v147.72h80.61l-6.76-12.07c-2.78-2.99-2.72-7.68.19-10.59,1.44-1.44,3.36-2.24,5.4-2.24s3.95.8,5.39,2.24c.08.08.15.16.21.25l1.64,2.35v-53.56c0-4.21,3.42-7.63,7.63-7.63s7.63,3.42,7.63,7.63v20.07c1.15-.7,2.5-1.1,3.94-1.1,4.21,0,7.63,3.42,7.63,7.63v.08c1.15-.7,2.5-1.1,3.94-1.1,4.21,0,7.63,3.42,7.63,7.63v1.73c1.15-.7,2.5-1.1,3.94-1.1,4.2,0,7.63,3.42,7.63,7.63v32.14h0s0,0,0,0h0Z"/><path class="cls-1" d="M284.47,160.24H114.59c-1.02,0-1.85-.83-1.85-1.85s.83-1.85,1.85-1.85h169.88c1.02,0,1.85.83,1.85,1.85s-.83,1.85-1.85,1.85Z"/><path class="cls-1" d="M166.29,160.24c-1.02,0-1.85-.83-1.85-1.85v-29.54c0-1.02.83-1.85,1.85-1.85s1.85.83,1.85,1.85v29.54c0,1.02-.83,1.85-1.85,1.85Z"/><path class="cls-1" d="M284.47,145.46h-77.55c-1.02,0-1.85-.83-1.85-1.85s.83-1.85,1.85-1.85h77.55c1.02,0,1.85.83,1.85,1.85,0,1.02-.83,1.85-1.85,1.85Z"/><path class="cls-1" d="M195.84,145.47c-.49,0-.96-.2-1.31-.54s-.54-.82-.54-1.3.2-.96.54-1.31c.35-.34.82-.54,1.31-.54s.96.2,1.31.54c.34.34.54.82.54,1.31s-.2.96-.54,1.3c-.35.34-.82.54-1.31.54Z"/><path class="cls-1" d="M284.47,263.64h-33.24c-1.02,0-1.85-.83-1.85-1.85s.83-1.85,1.85-1.85h33.24c1.02,0,1.85.83,1.85,1.85,0,1.02-.83,1.85-1.85,1.85Z"/><path class="cls-1" d="M169.99,263.64h-55.4c-1.02,0-1.85-.83-1.85-1.85s.83-1.85,1.85-1.85h55.4c1.02,0,1.85.83,1.85,1.85s-.83,1.85-1.85,1.85Z"/><path class="cls-1" d="M239.67,254.23c-1.02,0-1.85-.83-1.85-1.85v-6.11c0-1.02.83-1.85,1.85-1.85s1.85.83,1.85,1.85v6.11c0,1.02-.83,1.85-1.85,1.85Z"/><path class="cls-1" d="M228.1,245.97c-1.02,0-1.85-.83-1.85-1.85v-6.11c0-1.02.83-1.85,1.85-1.85s1.85.83,1.85,1.85v6.11c0,1.02-.83,1.85-1.85,1.85Z"/><path class="cls-1" d="M216.53,239.36c-1.02,0-1.85-.83-1.85-1.85v-6.45c0-1.02.83-1.85,1.85-1.85s1.85.83,1.85,1.85v6.45c0,1.02-.83,1.85-1.85,1.85Z"/><path class="cls-1" d="M229.08,211.94h-12.54c-1.02,0-1.85-.83-1.85-1.85v-5.3c0-2.17-1.76-3.94-3.94-3.94s-3.94,1.77-3.94,3.94v5.3c0,1.02-.83,1.85-1.85,1.85h-12.82c-1.02,0-1.85-.83-1.85-1.85v-22.16c0-1.02.83-1.85,1.85-1.85h36.93c1.02,0,1.85.83,1.85,1.85v22.16c0,1.02-.83,1.85-1.85,1.85ZM218.38,208.25h8.85v-18.47h-33.24v18.47h9.13v-3.45c0-4.21,3.42-7.63,7.63-7.63s7.63,3.42,7.63,7.63v3.45h0Z"/><path class="cls-1" d="M181.07,248.87h-36.93c-1.02,0-1.85-.83-1.85-1.85v-22.16c0-1.02.83-1.85,1.85-1.85h36.93c1.02,0,1.85.83,1.85,1.85v22.16c0,1.02-.83,1.85-1.85,1.85ZM145.98,245.18h33.24v-18.46h-33.24v18.46Z"/><path class="cls-1" d="M216.26,296.89c-9.4,0-14.2-9.4-14.67-10.38l-11.29-20.16c-1.32-1.42-2.05-3.25-2.05-5.2s.79-3.95,2.23-5.39c1.44-1.44,3.36-2.24,5.4-2.24s3.95.79,5.39,2.24c.08.08.15.16.21.25l1.64,2.35v-53.56c0-4.21,3.42-7.63,7.63-7.63s7.63,3.42,7.63,7.63v20.07c1.15-.7,2.5-1.1,3.94-1.1,4.21,0,7.63,3.42,7.63,7.63v.08c1.15-.7,2.5-1.1,3.94-1.1,4.21,0,7.63,3.42,7.63,7.63v1.73c1.15-.7,2.5-1.1,3.94-1.1,4.21,0,7.63,3.42,7.63,7.63v40.26c0,3.86-1.77,10.34-13.63,10.34h-22.66c-.18,0-.36,0-.54,0Z"/><path class="cls-1" d="M284.47,200.86h-55.4c-1.02,0-1.85-.83-1.85-1.85s.83-1.85,1.85-1.85h55.4c1.02,0,1.85.83,1.85,1.85,0,1.02-.83,1.85-1.85,1.85Z"/><path class="cls-1" d="M192.15,200.86h-77.55c-1.02,0-1.85-.83-1.85-1.85s.83-1.85,1.85-1.85h77.55c1.02,0,1.85.83,1.85,1.85,0,1.02-.83,1.85-1.85,1.85Z"/><path class="cls-1" d="M144.14,237.79h-29.54c-1.02,0-1.85-.83-1.85-1.85s.83-1.85,1.85-1.85h29.54c1.02,0,1.85.83,1.85,1.85s-.83,1.85-1.85,1.85Z"/><path class="cls-1" d="M203.22,237.79h-22.16c-1.02,0-1.85-.83-1.85-1.85s.83-1.85,1.85-1.85h22.16c1.02,0,1.85.83,1.85,1.85s-.83,1.85-1.85,1.85Z"/><path class="cls-1" d="M284.47,237.79h-22.16c-1.02,0-1.85-.83-1.85-1.85s.83-1.85,1.85-1.85h22.16c1.02,0,1.85.83,1.85,1.85s-.83,1.85-1.85,1.85Z"/><rect class="cls-1" x="125.67" y="139.92" width="7.39" height="7.39"/><rect class="cls-1" x="136.75" y="139.92" width="7.39" height="7.39"/><rect class="cls-1" x="147.83" y="139.92" width="7.39" height="7.39"/><rect class="cls-1" x="243.85" y="169.47" width="7.39" height="7.39"/><rect class="cls-1" x="232.77" y="169.47" width="7.39" height="7.39"/><rect class="cls-1" x="221.69" y="169.47" width="7.39" height="7.39"/><rect class="cls-1" x="254.93" y="169.47" width="7.39" height="7.39"/><rect class="cls-1" x="266.01" y="169.47" width="7.39" height="7.39"/></svg>