<?xml version="1.0" encoding="UTF-8"?><svg id="Layer_1" xmlns="http://www.w3.org/2000/svg" viewBox="0 0 400 400"><defs><style>.cls-1{fill:#fff;}</style></defs><path class="cls-1" d="M226.82,240.38c-.38,0-.75-.13-1.05-.38-.34-.28-.55-.68-.59-1.12l-.6-6.45c-.07-.71-.04-1.42.08-2.12.62-3.62,3.6-6.38,7.26-6.72l27.73-2.56c.22-.06.46-.06.68-.03.43.07.81.31,1.07.67.25.36.35.8.28,1.23v.02c-.03.14-.07.28-.13.41l-6.24,13.57c-.24.53-.76.9-1.34.95l-26.99,2.5c-.05,0-.1,0-.16,0ZM257.35,224.56l-25.13,2.32c-2.17.2-3.95,1.84-4.31,3.99-.07.41-.08.83-.05,1.25l.45,4.81,24.39-2.26,4.65-10.11ZM268.69,236.5c-.53,0-1.04-.26-1.35-.69-.34-.48-.4-1.11-.16-1.64l6.25-13.58c.25-.53.76-.9,1.35-.95l7.4-.68c.22-.05.45-.07.67-.03.9.16,1.51,1.01,1.35,1.91-.03.15-.06.28-.12.4-.77,1.8-1.09,3.81-.9,5.79.18,1.98.86,3.89,1.95,5.52.24.35.33.78.25,1.2-.02.14-.07.29-.13.42-.25.53-.77.89-1.34.94l-15.09,1.4s-.1,0-.15,0ZM276.03,222.83l-4.66,10.12,9.75-.9c-.65-1.49-1.07-3.1-1.22-4.73-.15-1.63-.03-3.29.33-4.87l-4.2.39Z"/><path class="cls-1" d="M293.66,240.14c-3.21,0-6.3-1.11-8.8-3.19-2.84-2.36-4.59-5.68-4.93-9.35-.11-1.21-.07-2.42.14-3.61,1.05-6.14,6.13-10.84,12.34-11.41,7.57-.7,14.31,4.9,15.02,12.48.11,1.21.07,2.42-.14,3.61h0c-1.05,6.14-6.12,10.83-12.34,11.41-.43.04-.86.06-1.29.06ZM293.68,215.83c-.32,0-.64.01-.97.04-4.73.44-8.59,4.01-9.39,8.68h0c-.15.9-.19,1.83-.1,2.75.26,2.79,1.59,5.32,3.75,7.11,2.16,1.79,4.9,2.64,7.68,2.38,4.73-.44,8.59-4.01,9.39-8.68.15-.9.19-1.83.1-2.75-.5-5.44-5.09-9.54-10.46-9.54Z"/><path class="cls-1" d="M251.4,265.01c-1.14,0-2.29-.24-3.38-.75l-5.88-2.7c-.4-.19-.71-.52-.86-.93-.15-.41-.13-.87.05-1.26l23.55-51.17c.24-.53.75-.89,1.33-.95.57-.06,1.14.19,1.49.65,1.21,1.61,2.74,2.85,4.57,3.69,1.8.83,3.79,1.2,5.76,1.07.58-.03,1.14.23,1.47.71.24.36.34.79.27,1.21h0c-.03.15-.07.28-.13.41l-20.85,45.29c-1.37,2.97-4.32,4.72-7.39,4.72ZM245.02,259.25l4.38,2.01c2.41,1.11,5.28.06,6.4-2.36l19.8-43.02c-1.63-.18-3.23-.62-4.71-1.3-1.48-.68-2.86-1.61-4.06-2.73l-21.81,47.4Z"/><path class="cls-1" d="M276.85,215.95c-1.93,0-3.88-.41-5.75-1.26-5.67-2.61-8.89-8.72-7.84-14.87.2-1.18.56-2.35,1.07-3.45,3.18-6.91,11.4-9.95,18.31-6.77,5.67,2.61,8.89,8.72,7.84,14.86h0c-.2,1.19-.56,2.35-1.07,3.45-2.33,5.05-7.34,8.03-12.57,8.03ZM276.9,191.63c-3.98,0-7.79,2.27-9.56,6.11-.39.84-.66,1.73-.82,2.63h0c-.8,4.67,1.65,9.33,5.97,11.31,5.26,2.42,11.51.11,13.94-5.16.39-.84.66-1.72.82-2.63.8-4.67-1.65-9.32-5.97-11.31-1.42-.65-2.91-.96-4.37-.96ZM289.21,204.24l.3.05-.3-.05Z"/><path class="cls-1" d="M264.21,233.33c-1,0-1.98-.46-2.61-1.33-1-1.42-.65-3.46.75-4.46.71-.5,1.55-.69,2.39-.54.84.15,1.58.61,2.07,1.31.49.69.68,1.54.53,2.38-.14.84-.6,1.57-1.29,2.06-.56.4-1.2.58-1.84.58ZM264.14,230.06l.13.18h0s.05-.07.05-.07c0-.02,0-.05-.02-.07-.05-.07-.11-.07-.16-.04ZM264.09,230.16s.01.03.02.04l-.02-.04Z"/><path class="cls-1" d="M276.86,209.87c-1.08,0-2.17-.23-3.21-.71-3.17-1.46-4.98-4.89-4.39-8.33.11-.66.31-1.31.6-1.93,1.79-3.87,6.39-5.56,10.25-3.79,3.18,1.46,4.98,4.88,4.39,8.32h0c-.12.67-.32,1.32-.6,1.93-1.31,2.83-4.12,4.5-7.04,4.5ZM276.88,197.72c-1.68,0-3.28.96-4.03,2.57-.16.35-.28.72-.34,1.1h0c-.34,1.97.7,3.93,2.52,4.77,2.21,1.02,4.85.04,5.88-2.18.16-.35.27-.72.34-1.1.34-1.97-.7-3.93-2.52-4.77-.6-.28-1.23-.41-1.84-.41Z"/><path class="cls-1" d="M293.67,234.06c-1.08,0-2.17-.23-3.21-.71-3.17-1.46-4.98-4.89-4.39-8.33.11-.66.31-1.31.6-1.93,1.78-3.87,6.37-5.57,10.25-3.79,3.17,1.46,4.98,4.88,4.39,8.32h0c-.11.67-.32,1.32-.6,1.94-1.3,2.82-4.1,4.49-7.03,4.49ZM293.68,221.91c-1.68,0-3.28.96-4.03,2.57-.16.35-.28.73-.34,1.1h0c-.34,1.97.7,3.94,2.52,4.77,2.22,1.02,4.85.04,5.87-2.17.17-.36.28-.73.35-1.11.34-1.97-.7-3.93-2.52-4.76-.6-.27-1.22-.4-1.84-.4Z"/><path class="cls-1" d="M212.59,264h-122.17c-.78,0-1.41-.6-1.41-1.35v-96.74c0-.74.63-1.35,1.41-1.35h122.17c.78,0,1.41.6,1.41,1.35v96.74c0,.74-.63,1.35-1.41,1.35ZM91.83,261.31h119.35v-94.05h-119.35v94.05Z"/><path class="cls-1" d="M210.19,230.56c-.28,0-.56-.09-.8-.27l-27.46-20.47-21.33,17.46c-.58.47-1.42.38-1.89-.19-.47-.58-.39-1.42.19-1.89l22.14-18.13c.48-.39,1.16-.41,1.66-.04l28.3,21.1c.6.44.72,1.29.27,1.88-.26.35-.67.54-1.08.54Z"/><path class="cls-1" d="M210.19,232.06c-.62,0-1.21-.2-1.7-.56l-26.52-19.77-20.42,16.72c-1.21.99-3.01.82-4-.4-.99-1.22-.81-3.01.4-4.01l22.15-18.13c1.01-.83,2.45-.86,3.5-.08l28.31,21.1c1.26.94,1.52,2.72.58,3.98-.54.72-1.39,1.15-2.28,1.15Z"/><path class="cls-1" d="M93.92,245.95c-.39,0-.77-.17-1.04-.49-.47-.57-.39-1.42.18-1.89l43.47-35.97c.49-.41,1.19-.41,1.69-.02l37.55,29.57c.58.46.69,1.31.23,1.89-.46.58-1.3.69-1.89.22l-36.7-28.9-42.64,35.28c-.25.21-.55.31-.86.31Z"/><path class="cls-1" d="M93.92,247.45c-.85,0-1.65-.38-2.19-1.03-1-1.21-.83-3.01.38-4.01l43.47-35.97c1.02-.85,2.52-.87,3.57-.05l37.56,29.57c.6.47.98,1.14,1.07,1.9s-.12,1.5-.59,2.1c-.97,1.23-2.76,1.44-4,.48l-35.75-28.15-41.7,34.51c-.51.42-1.15.65-1.81.65Z"/><path class="cls-1" d="M164.65,203c-5.57,0-10.09-4.52-10.09-10.09s4.53-10.09,10.09-10.09,10.08,4.52,10.08,10.09-4.52,10.09-10.08,10.09Z"/><path class="cls-1" d="M164.65,204.5c-6.39,0-11.59-5.2-11.59-11.59s5.2-11.58,11.59-11.58,11.58,5.2,11.58,11.58-5.2,11.59-11.58,11.59ZM164.65,184.33c-4.74,0-8.59,3.85-8.59,8.58s3.86,8.59,8.59,8.59,8.58-3.85,8.58-8.59-3.85-8.58-8.58-8.58Z"/><path class="cls-1" d="M264.26,135.61s-.08,0-.12,0c-.01,0-.03,0-.04,0-1.47-.04-2.72-.52-3.63-1.4-.91-.92-1.38-2.17-1.4-3.65,0-.07-.01-.14-.01-.21.02-3.25,2.15-7.17,6.01-11.03,2.11-2.11,4.56-3.68,7.26-4.68,1.76-.63,3.56-1.03,5.37-1.17.61-.08,1.23.27,1.54.82.31.55.27,1.23-.11,1.74-1.68,2.28-1.71,4.51-1.75,6.87-.03,2.26-.06,4.73-2.04,6.72-3.89,3.87-7.82,6-11.09,6ZM264.2,132.37c.07,0,.15,0,.22.02,1.24-.05,4.27-.69,8.65-5.06,1-1,1.07-2.33,1.09-4.4.03-1.73.06-3.69.75-5.72-.5.13-1,.29-1.49.46-2.26.83-4.31,2.15-6.09,3.93-4.44,4.44-5.03,7.49-5.06,8.68,0,.07.01.13.01.18,0,.46.08,1.09.46,1.48.26.25.71.42,1.27.45.06,0,.13-.01.19-.01Z"/><path class="cls-1" d="M260.9,141.16c-.41,0-.83-.16-1.14-.48-.63-.63-.62-1.65.01-2.27.74-.73,1.5-1.49,2.27-2.27.24-.24.42-.51.54-.8-.74-.31-1.4-.75-1.97-1.3-.58-.59-1.02-1.25-1.32-1.97-.3.12-.55.3-.78.53-.78.76-1.53,1.51-2.26,2.26-.62.64-1.64.65-2.27.04-.64-.62-.66-1.64-.04-2.27.74-.77,1.51-1.54,2.3-2.31.72-.72,1.58-1.23,2.5-1.46.52-.16,1.15-.24,1.79-.21.77.04,1.4.61,1.51,1.37.1.69.38,1.26.85,1.74.43.43,1.04.72,1.73.83.76.12,1.33.75,1.36,1.52.03.62-.05,1.26-.22,1.85-.26.93-.75,1.75-1.45,2.44-.77.78-1.54,1.54-2.29,2.28-.31.31-.72.47-1.13.47Z"/><path class="cls-1" d="M255.71,146.23c-.41,0-.82-.16-1.14-.47l-5.68-5.69c-.62-.62-.63-1.63,0-2.26l1.1-1.12c1.36-1.39,3.45-3.53,3.99-4.07.63-.63,1.65-.63,2.27,0,.63.63.63,1.65,0,2.27-.53.53-2.59,2.65-3.95,4.03l3.43,3.44c.48-.46,1.04-1.01,1.59-1.55l2.45-2.4c.63-.62,1.65-.62,2.28.01.62.63.62,1.65-.01,2.28l-2.47,2.41c-1.16,1.13-2.34,2.28-2.72,2.66-.31.31-.72.47-1.13.47Z"/><path class="cls-1" d="M227.03,169.31c-.42,0-.91-.19-1.21-.49-1.02-1.13-.36-2.36,1.09-4.84,3.15-5.42,10.95-14.72,21.95-26.17.3-.31.71-.49,1.15-.5.5-.03.85.17,1.15.47l5.68,5.69c.3.3.47.72.47,1.15,0,.43-.18.84-.5,1.14-11.41,10.96-20.7,18.76-26.16,21.95-2.55,1.46-3.13,1.58-3.63,1.58ZM250.05,141.23c-9,9.43-15.84,17.48-19.26,22.62,3.78-2.52,9.12-6.87,15.4-12.55,2.29-2.07,4.7-4.31,7.22-6.71l-3.36-3.36Z"/><path class="cls-1" d="M243.45,184.65c-.44,0-.87-.18-1.18-.52-.42-.45-.54-1.1-.32-1.68l5.79-14.78c.09-.22.23-.43.41-.59l36.25-33.47c.65-.6,1.67-.56,2.27.09l9.42,10.19c.29.31.44.73.43,1.16-.02.43-.2.83-.51,1.12l-36.25,33.48c-.18.16-.39.29-.63.36l-15.2,4.58c-.15.05-.31.07-.46.07ZM250.6,169.19l-4.45,11.35,11.68-3.52,34.8-32.13-7.23-7.83-34.79,32.13Z"/><path class="cls-1" d="M259.52,180.59c-.72,0-1.37-.49-1.56-1.21l-.49-1.92-1.27-.09c-.74-.06-1.35-.61-1.47-1.35l-.32-2.01h-1.45c-.43,0-.84-.17-1.14-.47-.3-.3-.47-.72-.47-1.14v-1.43s-1.99-.32-1.99-.32c-.88-.14-1.48-.96-1.34-1.84.14-.88.98-1.49,1.84-1.34l3.36.53c.78.12,1.36.8,1.36,1.6v1.19s1.2,0,1.2,0c.79,0,1.46.58,1.59,1.35l.34,2.11,1.15.09c.69.05,1.27.54,1.44,1.21l.77,3.04c.22.86-.3,1.74-1.16,1.96-.13.03-.27.05-.4.05Z"/><path class="cls-1" d="M295.38,145.94c-.41,0-.82-.16-1.14-.47l-9.82-9.81c-.3-.3-.47-.71-.47-1.14s.17-.84.47-1.14l2.56-2.56c1.94-1.96,5.4-1.97,7.36,0l4.73,4.71c.99,1,1.53,2.32,1.53,3.72,0,1.39-.55,2.69-1.53,3.66l-2.54,2.55c-.31.32-.73.47-1.14.47ZM287.84,134.52l7.54,7.54,1.42-1.42c.37-.37.58-.86.58-1.39,0-.54-.2-1.05-.58-1.43l-4.73-4.71c-.75-.75-2.06-.75-2.8,0l-1.43,1.43Z"/></svg>