<?xml version="1.0" encoding="utf-8"?>
<!-- Generator: Adobe Illustrator 27.0.0, SVG Export Plug-In . SVG Version: 6.00 Build 0)  -->
<svg version="1.1" id="Layer_1" xmlns="http://www.w3.org/2000/svg" xmlns:xlink="http://www.w3.org/1999/xlink" x="0px" y="0px"
	 viewBox="0 0 400 400" style="enable-background:new 0 0 400 400;" xml:space="preserve">
<style type="text/css">
	.st0{fill:#2A92C6;}
	.st1{fill:#D1D3D4;}
	.st2{fill:#7136F2;}
	.st3{fill:#FFF3AC;}
	.st4{fill:none;stroke:#D1D3D4;stroke-width:3;stroke-miterlimit:10;}
	.st5{fill:#D1D3D4;stroke:#D1D3D4;stroke-width:3;stroke-miterlimit:10;}
	.st6{fill:#D1D3D4;stroke:#D1D3D4;stroke-miterlimit:10;}
	.st7{fill:#2A92C6;stroke:#D1D3D4;stroke-width:3;stroke-miterlimit:10;}
	.st8{fill:#7136F2;stroke:#D1D3D4;stroke-miterlimit:10;}
	.st9{fill:none;stroke:#D1D3D4;stroke-miterlimit:10;}
	.st10{fill:#2A92C6;stroke:#D1D3D4;stroke-width:2;stroke-miterlimit:10;}
	.st11{fill:#7136F2;stroke:#D1D3D4;stroke-width:2;stroke-miterlimit:10;}
	.st12{fill:#FFF3AC;stroke:#D1D3D4;stroke-width:3;stroke-miterlimit:10;}
	.st13{fill:none;stroke:#D1D3D4;stroke-width:2.6827;stroke-miterlimit:10;}
	.st14{fill:#7136F2;stroke:#D1D3D4;stroke-width:3;stroke-miterlimit:10;}
	.st15{fill:none;stroke:#D1D3D4;stroke-width:2;stroke-miterlimit:10;}
	.st16{fill:#003366;}
	.st17{fill:none;stroke:#7136F2;stroke-miterlimit:10;}
	.st18{fill:none;stroke:#003366;stroke-miterlimit:10;}
	.st19{fill:none;stroke:#2A92C6;stroke-miterlimit:10;}
	.st20{fill:none;stroke:#FFF3AC;stroke-miterlimit:10;}
	.st21{fill:#7136F2;stroke:#7136F2;stroke-miterlimit:10;}
	.st22{fill:#003366;stroke:#003366;stroke-miterlimit:10;}
	.st23{fill:#2A92C6;stroke:#2A92C6;stroke-miterlimit:10;}
	.st24{fill:#FFF3AC;stroke:#FFF3AC;stroke-miterlimit:10;}
</style>
<g>
	<g>
		<rect x="142" y="145" class="st0" width="137" height="19"/>
		<rect x="255" y="161" class="st0" width="24" height="98"/>
		<g>
			<path class="st1" d="M279.63,261.49h-23.06c-0.89,0-1.61-0.72-1.61-1.61s0.72-1.61,1.61-1.61h21.45V145.84H142.2v20.21
				c0,0.89-0.72,1.61-1.61,1.61c-0.89,0-1.61-0.72-1.61-1.61v-21.82c0-0.89,0.72-1.61,1.61-1.61h139.03c0.89,0,1.61,0.72,1.61,1.61
				v115.65C281.24,260.77,280.52,261.49,279.63,261.49z"/>
		</g>
		<g>
			<path class="st1" d="M255.33,283.33H110.67c-0.92,0-1.67-0.72-1.67-1.61V166.04c0-0.89,0.75-1.61,1.67-1.61h144.65
				c0.92,0,1.67,0.72,1.67,1.61v115.68C257,282.61,256.25,283.33,255.33,283.33z M112.35,280.11h141.31V167.65H112.35V280.11z"/>
		</g>
		<g>
			<g>
				<path class="st1" d="M248.49,243.34c-0.31,0-0.63-0.1-0.9-0.32l-30.67-24.45c-0.02-0.02-0.05-0.02-0.07,0l-23.62,20.69
					c-0.92,0.8-2.47,0.36-2.63-0.85c-0.07-0.54,0.11-1.1,0.54-1.47l24.76-21.68c0.53-0.47,1.3-0.49,1.85-0.05l31.64,25.23
					c0.67,0.53,0.8,1.54,0.31,2.25C249.41,243.11,248.95,243.34,248.49,243.34z"/>
			</g>
		</g>
		<g>
			<g>
				<path class="st1" d="M118.51,261.74c-0.43,0-0.86-0.2-1.16-0.58c-0.53-0.68-0.44-1.7,0.2-2.26l48.6-43.01
					c0.55-0.49,1.33-0.49,1.89-0.02l41.98,35.35c0.65,0.55,0.77,1.56,0.25,2.26c-0.52,0.7-1.46,0.82-2.11,0.27l-41.03-34.55
					l-47.66,42.19C119.18,261.62,118.84,261.74,118.51,261.74z"/>
			</g>
		</g>
		<g>
			<g>
				<path class="st2" d="M198.11,211.89c-7.48,0-13.57-6.08-13.57-13.56s6.09-13.56,13.57-13.56c7.48,0,13.56,6.08,13.56,13.56
					S205.58,211.89,198.11,211.89z"/>
				<path class="st1" d="M198.11,186.27c6.65,0,12.06,5.41,12.06,12.06c0,6.65-5.41,12.06-12.06,12.06
					c-6.65,0-12.07-5.41-12.07-12.06C186.04,191.68,191.45,186.27,198.11,186.27 M198.11,183.27c-8.31,0-15.07,6.76-15.07,15.06
					c0,8.3,6.76,15.06,15.07,15.06c8.3,0,15.06-6.76,15.06-15.06C213.16,190.03,206.41,183.27,198.11,183.27L198.11,183.27z"/>
			</g>
		</g>
		<g>
			<path class="st1" d="M259.63,145.82c-0.41,0-0.82-0.16-1.14-0.47L214.17,101c-0.63-0.63-0.63-1.65,0-2.28
				c0.63-0.63,1.65-0.63,2.27,0l44.33,44.34c0.63,0.63,0.63,1.65,0,2.28C260.46,145.66,260.05,145.82,259.63,145.82z M161.96,145.82
				c-0.41,0-0.82-0.16-1.14-0.47c-0.63-0.63-0.63-1.65,0-2.28l44.33-44.34c0.63-0.63,1.65-0.63,2.27,0c0.63,0.63,0.63,1.65,0,2.28
				l-44.33,44.34C162.79,145.66,162.38,145.82,161.96,145.82z"/>
		</g>
		<g>
			<g>
				<path class="st3" d="M210.8,101.83c-3.58,0-6.49-2.91-6.49-6.48c0-3.57,2.91-6.48,6.49-6.48c3.58,0,6.49,2.91,6.49,6.48
					C217.29,98.93,214.38,101.83,210.8,101.83z"/>
				<path class="st1" d="M210.8,90.37c2.75,0,4.99,2.23,4.99,4.98c0,2.75-2.24,4.98-4.99,4.98c-2.75,0-4.99-2.23-4.99-4.98
					C205.81,92.61,208.05,90.37,210.8,90.37 M210.8,87.37c-4.4,0-7.99,3.58-7.99,7.98c0,4.4,3.58,7.98,7.99,7.98
					c4.41,0,7.99-3.58,7.99-7.98C218.79,90.95,215.21,87.37,210.8,87.37L210.8,87.37z"/>
			</g>
		</g>
	</g>
</g>
</svg>
