<?xml version="1.0" encoding="utf-8"?>
<!-- Generator: Adobe Illustrator 27.0.0, SVG Export Plug-In . SVG Version: 6.00 Build 0)  -->
<svg version="1.1" id="Layer_1" xmlns="http://www.w3.org/2000/svg" xmlns:xlink="http://www.w3.org/1999/xlink" x="0px" y="0px"
	 viewBox="0 0 400 400" style="enable-background:new 0 0 400 400;" xml:space="preserve">
<style type="text/css">
	.st0{fill:#2A92C6;}
	.st1{fill:#D1D3D4;}
	.st2{fill:#7136F2;}
	.st3{fill:#FFF3AC;}
	.st4{fill:none;stroke:#D1D3D4;stroke-width:3;stroke-miterlimit:10;}
	.st5{fill:#D1D3D4;stroke:#D1D3D4;stroke-width:3;stroke-miterlimit:10;}
	.st6{fill:#D1D3D4;stroke:#D1D3D4;stroke-miterlimit:10;}
	.st7{fill:#2A92C6;stroke:#D1D3D4;stroke-width:3;stroke-miterlimit:10;}
	.st8{fill:#7136F2;stroke:#D1D3D4;stroke-miterlimit:10;}
	.st9{fill:none;stroke:#D1D3D4;stroke-miterlimit:10;}
	.st10{fill:#2A92C6;stroke:#D1D3D4;stroke-width:2;stroke-miterlimit:10;}
	.st11{fill:#7136F2;stroke:#D1D3D4;stroke-width:2;stroke-miterlimit:10;}
	.st12{fill:#FFF3AC;stroke:#D1D3D4;stroke-width:3;stroke-miterlimit:10;}
	.st13{fill:none;stroke:#D1D3D4;stroke-width:2.6827;stroke-miterlimit:10;}
	.st14{fill:#7136F2;stroke:#D1D3D4;stroke-width:3;stroke-miterlimit:10;}
	.st15{fill:none;stroke:#D1D3D4;stroke-width:2;stroke-miterlimit:10;}
	.st16{fill:#003366;}
	.st17{fill:none;stroke:#7136F2;stroke-miterlimit:10;}
	.st18{fill:none;stroke:#003366;stroke-miterlimit:10;}
	.st19{fill:none;stroke:#2A92C6;stroke-miterlimit:10;}
	.st20{fill:none;stroke:#FFF3AC;stroke-miterlimit:10;}
	.st21{fill:#7136F2;stroke:#7136F2;stroke-miterlimit:10;}
	.st22{fill:#003366;stroke:#003366;stroke-miterlimit:10;}
	.st23{fill:#2A92C6;stroke:#2A92C6;stroke-miterlimit:10;}
	.st24{fill:#FFF3AC;stroke:#FFF3AC;stroke-miterlimit:10;}
</style>
<g>
	<g>
		<g>
			<path class="st6" d="M212.96,264.11h-34.68c-0.85,0-1.54-0.69-1.54-1.54V139.4c0-0.23,0.05-0.46,0.16-0.67l17.34-35.69
				c0.26-0.53,0.8-0.87,1.39-0.87l0,0c0.59,0,1.13,0.34,1.39,0.87l17.34,35.69c0.1,0.21,0.16,0.44,0.16,0.67v123.18
				C214.5,263.42,213.81,264.11,212.96,264.11z M179.82,261.03h31.59V139.75l-15.8-32.51l-15.8,32.51V261.03z"/>
		</g>
		<g>
			<path class="st6" d="M206.07,145.91c-0.4,0-0.79-0.15-1.09-0.45l-3.88-3.9l-3.89,3.9c-0.54,0.54-1.38,0.6-1.99,0.16l-5.89-4.26
				l-3.66,3.16c-0.5,0.43-1.22,0.5-1.8,0.16l-6.76-4.03c-0.73-0.44-0.97-1.38-0.53-2.11c0.44-0.73,1.38-0.97,2.11-0.54l5.81,3.46
				l3.74-3.23c0.54-0.47,1.33-0.5,1.91-0.08l5.81,4.2l4.05-4.06c0.29-0.29,0.68-0.45,1.09-0.45l0,0c0.41,0,0.8,0.16,1.09,0.45
				l4.05,4.06l5.82-4.2c0.69-0.5,1.66-0.34,2.15,0.35c0.5,0.69,0.34,1.66-0.35,2.15l-6.89,4.97
				C206.7,145.81,206.38,145.91,206.07,145.91z"/>
		</g>
		<g>
			<path class="st6" d="M205.37,264.11c-0.85,0-1.54-0.69-1.54-1.54V143.85c0-0.85,0.69-1.54,1.54-1.54s1.54,0.69,1.54,1.54v118.72
				C206.91,263.42,206.22,264.11,205.37,264.11z"/>
		</g>
		<g>
			<path class="st6" d="M196.79,264.11c-0.85,0-1.54-0.69-1.54-1.53l-0.53-119.31c0-0.85,0.68-1.54,1.54-1.55c0,0,0,0,0.01,0
				c0.85,0,1.54,0.69,1.54,1.53l0.53,119.31C198.34,263.42,197.65,264.11,196.79,264.11C196.8,264.11,196.8,264.11,196.79,264.11z"
				/>
		</g>
		<g>
			<path class="st6" d="M185.39,264.11c-0.85,0-1.54-0.69-1.54-1.54v-120.7c0-0.85,0.69-1.54,1.54-1.54c0.85,0,1.54,0.69,1.54,1.54
				v120.7C186.93,263.42,186.24,264.11,185.39,264.11z"/>
		</g>
		<g>
			<g>
				<path class="st3" d="M191.06,288.31c-7.48,0-13.56-5.78-13.56-12.88v-12.86c0,0,0.04-0.04,0.11-0.04h36.27
					c0.08,0,0.11,0.04,0.12,0.05l0,12.85c0,7.1-6.08,12.88-13.56,12.88H191.06z"/>
				<path class="st1" d="M212.5,264.03v11.4c0,6.28-5.41,11.38-12.06,11.38h-9.39c-6.65,0-12.06-5.11-12.06-11.38v-11.4H212.5
					 M213.89,261.03h-36.27c-0.89,0-1.61,0.69-1.61,1.54v12.86c0,7.93,6.75,14.38,15.06,14.38h9.39c8.3,0,15.06-6.45,15.06-14.38
					v-12.86C215.5,261.72,214.78,261.03,213.89,261.03L213.89,261.03z"/>
			</g>
		</g>
		<g>
			<path class="st6" d="M242.66,277.97H213.9c-0.85,0-1.54-0.69-1.54-1.54c0-0.85,0.69-1.54,1.54-1.54h28.76
				c0.85,0,1.54,0.69,1.54,1.54C244.2,277.28,243.51,277.97,242.66,277.97z M177.72,277.97h-29.54c-0.85,0-1.54-0.69-1.54-1.54
				c0-0.85,0.69-1.54,1.54-1.54h29.54c0.85,0,1.54,0.69,1.54,1.54C179.27,277.28,178.58,277.97,177.72,277.97z M254.34,266.28
				c-0.85,0-1.54-0.69-1.54-1.54v-51.02c0-0.85,0.69-1.54,1.54-1.54c0.85,0,1.54,0.69,1.54,1.54v51.02
				C255.89,265.59,255.2,266.28,254.34,266.28z M136.51,266.28c-0.85,0-1.54-0.69-1.54-1.54v-51.02c0-0.85,0.69-1.54,1.54-1.54
				s1.54,0.69,1.54,1.54v51.02C138.05,265.59,137.36,266.28,136.51,266.28z M254.34,177.69c-0.85,0-1.54-0.69-1.54-1.54v-44.31
				c0-0.85,0.69-1.54,1.54-1.54c0.85,0,1.54,0.69,1.54,1.54v44.31C255.89,177,255.2,177.69,254.34,177.69z M136.51,177.69
				c-0.85,0-1.54-0.69-1.54-1.54v-44.31c0-0.85,0.69-1.54,1.54-1.54s1.54,0.69,1.54,1.54v44.31
				C138.05,177,137.36,177.69,136.51,177.69z M242.66,121.69h-39.05c-0.85,0-1.54-0.69-1.54-1.54s0.69-1.54,1.54-1.54h39.05
				c0.85,0,1.54,0.69,1.54,1.54S243.51,121.69,242.66,121.69z M187.63,121.69h-39.45c-0.85,0-1.54-0.69-1.54-1.54
				s0.69-1.54,1.54-1.54h39.45c0.85,0,1.54,0.69,1.54,1.54S188.48,121.69,187.63,121.69z"/>
		</g>
		<g>
			<g>
				<path class="st6" d="M284.46,215.26h-71.5c-0.85,0-1.54-0.69-1.54-1.54v-37.57c0-0.85,0.69-1.54,1.54-1.54h71.5
					c0.85,0,1.54,0.69,1.54,1.54v37.57C286,214.57,285.31,215.26,284.46,215.26z M214.5,212.18h68.42v-34.49H214.5V212.18z
					 M178.28,215.26h-71.51c-0.85,0-1.54-0.69-1.54-1.54v-37.57c0-0.85,0.69-1.54,1.54-1.54h71.51c0.85,0,1.54,0.69,1.54,1.54v37.57
					C179.82,214.57,179.13,215.26,178.28,215.26z M108.31,212.18h68.42v-34.49h-68.42V212.18z"/>
			</g>
		</g>
		<g>
			<path class="st6" d="M267.9,215.26c-0.85,0-1.54-0.69-1.54-1.54v-20.26c0-0.85,0.69-1.54,1.54-1.54c0.85,0,1.54,0.69,1.54,1.54
				v20.26C269.44,214.57,268.75,215.26,267.9,215.26z"/>
		</g>
		<g>
			<path class="st6" d="M253.25,215.26c-0.85,0-1.54-0.69-1.54-1.54v-12.44c0-0.85,0.69-1.54,1.54-1.54c0.85,0,1.54,0.69,1.54,1.54
				v12.44C254.79,214.57,254.1,215.26,253.25,215.26z"/>
		</g>
		<g>
			<path class="st6" d="M238.61,215.26c-0.85,0-1.54-0.69-1.54-1.54v-20.26c0-0.85,0.69-1.54,1.54-1.54c0.85,0,1.54,0.69,1.54,1.54
				v20.26C240.15,214.57,239.46,215.26,238.61,215.26z"/>
		</g>
		<g>
			<path class="st6" d="M223.95,215.26c-0.85,0-1.54-0.69-1.54-1.54v-12.44c0-0.85,0.69-1.54,1.54-1.54c0.85,0,1.54,0.69,1.54,1.54
				v12.44C225.5,214.57,224.81,215.26,223.95,215.26z"/>
		</g>
		<g>
			<path class="st6" d="M165.37,215.26c-0.85,0-1.54-0.69-1.54-1.54v-12.44c0-0.85,0.69-1.54,1.54-1.54c0.85,0,1.54,0.69,1.54,1.54
				v12.44C166.91,214.57,166.22,215.26,165.37,215.26z"/>
		</g>
		<g>
			<path class="st6" d="M150.73,215.26c-0.85,0-1.54-0.69-1.54-1.54v-20.26c0-0.85,0.69-1.54,1.54-1.54c0.85,0,1.54,0.69,1.54,1.54
				v20.26C152.27,214.57,151.58,215.26,150.73,215.26z"/>
		</g>
		<g>
			<path class="st6" d="M136.08,215.26c-0.85,0-1.54-0.69-1.54-1.54v-12.44c0-0.85,0.69-1.54,1.54-1.54c0.85,0,1.54,0.69,1.54,1.54
				v12.44C137.62,214.57,136.93,215.26,136.08,215.26z"/>
		</g>
		<g>
			<path class="st6" d="M121.42,215.26c-0.85,0-1.54-0.69-1.54-1.54v-20.26c0-0.85,0.69-1.54,1.54-1.54s1.54,0.69,1.54,1.54v20.26
				C122.97,214.57,122.27,215.26,121.42,215.26z"/>
		</g>
		<g>
			<path class="st7" d="M148.18,133.38h-23.36c-0.85,0-1.54-0.69-1.54-1.54v-23.37c0-0.85,0.69-1.54,1.54-1.54h23.36
				c0.85,0,1.54,0.69,1.54,1.54v23.37C149.72,132.69,149.03,133.38,148.18,133.38z"/>
		</g>
		<g>
			<g>
				<path class="st2" d="M242.66,290.65c-1.4,0-2.54-1.14-2.54-2.54v-23.37c0-1.4,1.14-2.54,2.54-2.54h23.36
					c1.4,0,2.54,1.14,2.54,2.54v23.37c0,1.4-1.14,2.54-2.54,2.54H242.66z M263.47,285.57v-18.28H245.2v18.28H263.47z"/>
				<path class="st1" d="M266.02,263.2c0.85,0,1.54,0.69,1.54,1.54v23.37c0,0.85-0.69,1.54-1.54,1.54h-23.36
					c-0.85,0-1.54-0.69-1.54-1.54v-23.37c0-0.85,0.69-1.54,1.54-1.54H266.02 M244.2,286.57h20.27v-20.28H244.2V286.57 M266.02,261.2
					h-23.36c-1.95,0-3.54,1.59-3.54,3.54v23.37c0,1.95,1.59,3.54,3.54,3.54h23.36c1.95,0,3.54-1.59,3.54-3.54v-23.37
					C269.56,262.79,267.97,261.2,266.02,261.2L266.02,261.2z M246.2,268.28h16.27v16.28H246.2V268.28L246.2,268.28z"/>
			</g>
		</g>
		<g>
			<g>
				<path class="st2" d="M242.66,134.38c-1.4,0-2.54-1.14-2.54-2.54v-23.37c0-1.4,1.14-2.54,2.54-2.54h23.36
					c1.4,0,2.54,1.14,2.54,2.54v23.37c0,1.4-1.14,2.54-2.54,2.54H242.66z M263.47,129.29v-18.28H245.2v18.28H263.47z"/>
				<path class="st1" d="M266.02,106.93c0.85,0,1.54,0.69,1.54,1.54v23.37c0,0.85-0.69,1.54-1.54,1.54h-23.36
					c-0.85,0-1.54-0.69-1.54-1.54v-23.37c0-0.85,0.69-1.54,1.54-1.54H266.02 M244.2,130.29h20.27v-20.28H244.2V130.29
					 M266.02,104.93h-23.36c-1.95,0-3.54,1.59-3.54,3.54v23.37c0,1.95,1.59,3.54,3.54,3.54h23.36c1.95,0,3.54-1.59,3.54-3.54v-23.37
					C269.56,106.52,267.97,104.93,266.02,104.93L266.02,104.93z M246.2,112.01h16.27v16.28H246.2V112.01L246.2,112.01z"/>
			</g>
		</g>
		<g>
			<g>
				<path class="st2" d="M124.83,290.65c-1.4,0-2.54-1.14-2.54-2.54v-23.37c0-1.4,1.14-2.54,2.54-2.54h23.36
					c1.4,0,2.54,1.14,2.54,2.54v23.37c0,1.4-1.14,2.54-2.54,2.54H124.83z M145.64,285.57v-18.28h-18.27v18.28H145.64z"/>
				<path class="st1" d="M148.18,263.2c0.85,0,1.54,0.69,1.54,1.54v23.37c0,0.85-0.69,1.54-1.54,1.54h-23.36
					c-0.85,0-1.54-0.69-1.54-1.54v-23.37c0-0.85,0.69-1.54,1.54-1.54H148.18 M126.37,286.57h20.27v-20.28h-20.27V286.57
					 M148.18,261.2h-23.36c-1.95,0-3.54,1.59-3.54,3.54v23.37c0,1.95,1.59,3.54,3.54,3.54h23.36c1.95,0,3.54-1.59,3.54-3.54v-23.37
					C151.72,262.79,150.14,261.2,148.18,261.2L148.18,261.2z M128.37,268.28h16.27v16.28h-16.27V268.28L128.37,268.28z"/>
			</g>
		</g>
	</g>
</g>
<g>
	<polygon class="st3" points="189.36,123.61 195.9,110.55 201.54,123.61 	"/>
	<path class="st1" d="M195.8,114.1l3.46,8.01h-7.47L195.8,114.1 M196,107l-9.07,18.11h16.89L196,107L196,107z"/>
</g>
</svg>
