<?xml version="1.0" encoding="utf-8"?>
<!-- Generator: Adobe Illustrator 27.0.0, SVG Export Plug-In . SVG Version: 6.00 Build 0)  -->
<svg version="1.1" id="Layer_1" xmlns="http://www.w3.org/2000/svg" xmlns:xlink="http://www.w3.org/1999/xlink" x="0px" y="0px"
	 viewBox="0 0 400 400" style="enable-background:new 0 0 400 400;" xml:space="preserve">
<style type="text/css">
	.st0{fill:#2A92C6;}
	.st1{fill:#D1D3D4;}
	.st2{fill:#7136F2;}
	.st3{fill:#FFF3AC;}
	.st4{fill:none;stroke:#D1D3D4;stroke-width:3;stroke-miterlimit:10;}
	.st5{fill:#D1D3D4;stroke:#D1D3D4;stroke-width:3;stroke-miterlimit:10;}
	.st6{fill:#D1D3D4;stroke:#D1D3D4;stroke-miterlimit:10;}
	.st7{fill:#2A92C6;stroke:#D1D3D4;stroke-width:3;stroke-miterlimit:10;}
	.st8{fill:#7136F2;stroke:#D1D3D4;stroke-miterlimit:10;}
	.st9{fill:none;stroke:#D1D3D4;stroke-miterlimit:10;}
	.st10{fill:#2A92C6;stroke:#D1D3D4;stroke-width:2;stroke-miterlimit:10;}
	.st11{fill:#7136F2;stroke:#D1D3D4;stroke-width:2;stroke-miterlimit:10;}
	.st12{fill:#FFF3AC;stroke:#D1D3D4;stroke-width:3;stroke-miterlimit:10;}
	.st13{fill:none;stroke:#D1D3D4;stroke-width:2.6827;stroke-miterlimit:10;}
	.st14{fill:#7136F2;stroke:#D1D3D4;stroke-width:3;stroke-miterlimit:10;}
	.st15{fill:none;stroke:#D1D3D4;stroke-width:2;stroke-miterlimit:10;}
	.st16{fill:#003366;}
	.st17{fill:none;stroke:#7136F2;stroke-miterlimit:10;}
	.st18{fill:none;stroke:#003366;stroke-miterlimit:10;}
	.st19{fill:none;stroke:#2A92C6;stroke-miterlimit:10;}
	.st20{fill:none;stroke:#FFF3AC;stroke-miterlimit:10;}
	.st21{fill:#7136F2;stroke:#7136F2;stroke-miterlimit:10;}
	.st22{fill:#003366;stroke:#003366;stroke-miterlimit:10;}
	.st23{fill:#2A92C6;stroke:#2A92C6;stroke-miterlimit:10;}
	.st24{fill:#FFF3AC;stroke:#FFF3AC;stroke-miterlimit:10;}
</style>
<g>
	<g id="XMLID_00000032635535062888077780000002570494308319202692_">
		<g>
			<g id="XMLID_00000023258129014173820160000015044755201806940856_">
				<g>
					<path class="st4" d="M219.89,180.07c3.43-2.36,6.37-5.36,8.66-8.85l48.25,17.92l0.02,0.7l-63.39,23.91v-8.73h6.46v-7.69v-6.23
						V180.07z"/>
					<rect x="189.25" y="204.99" class="st5" width="24.17" height="0.02"/>
					<polyline class="st5" points="200.49,219.04 200.32,218.72 213.42,213.77 276.82,189.84 294.55,228.16 276.82,235.31 
						276.82,234.46 					"/>
					<g>
						<polygon class="st0" points="186.95,215.61 187.75,213.5 187.75,203.52 214.92,203.52 214.92,214.79 202.46,219.49 
							202.5,219.58 200.45,220.76 						"/>
						<path class="st1" d="M213.42,205.02v8.73l-13.1,4.95l0.17,0.31l-0.17,0.1l-11.43-4.37l0.37-0.96v-8.76H213.42 M216.42,202.02
							h-3h-24.17h-3v3v8.21l-0.17,0.45l-1.06,2.8l2.8,1.07l11.43,4.37l1.32,0.51l1.23-0.7l0.17-0.1l1.74-0.99l10.76-4.06l1.94-0.73
							v-2.07v-8.73V202.02L216.42,202.02z"/>
					</g>
					<polygon class="st5" points="219.89,197.32 182.79,197.32 182.79,191.1 199.87,191.1 202.81,191.1 219.89,191.1 					"/>
					<path class="st5" d="M214.37,161.21l-6.73,0.87l-6.52-10.52l-6.34,10.56l-6.49-0.92l11.58,29.89h-17.08v-11.02
						c-3.65-2.51-6.76-5.77-9.09-9.53c-3.14-4.99-4.95-10.9-4.95-17.25c0-17.99,14.6-32.61,32.59-32.61
						c17.99,0,32.59,14.62,32.59,32.61c0,6.64-1.97,12.78-5.38,17.93c-2.29,3.5-5.23,6.49-8.66,8.85v11.02h-17.08L214.37,161.21z"/>
					<polygon class="st5" points="194.78,162.13 201.12,151.56 207.63,162.08 214.37,161.21 202.81,191.1 199.87,191.1 
						188.28,161.21 					"/>
					<polygon class="st5" points="182.79,197.32 219.89,197.32 219.89,205.02 213.42,205.02 213.42,204.99 189.25,204.99 
						189.25,205.02 182.79,205.02 					"/>
					<path class="st4" d="M189.25,205.02v8.76l-0.37,0.96l-65.08-24.9l-0.31-0.82l50.17-18.48h0.03c2.34,3.76,5.45,7.02,9.09,9.53
						v11.02v6.23v7.69H189.25z"/>
				</g>
				<g>
					<polyline class="st5" points="123.42,189.05 123.49,189.02 173.67,170.55 					"/>
					<line class="st5" x1="228.54" y1="171.22" x2="276.79" y2="189.15"/>
					<g>
						<path class="st3" d="M184.29,203.52v-24.23l-0.65-0.45c-3.46-2.38-6.46-5.52-8.67-9.08c-3.09-4.92-4.72-10.61-4.72-16.46
							c0-17.16,13.95-31.11,31.09-31.11c17.14,0,31.09,13.96,31.09,31.11c0,6.12-1.77,12.03-5.13,17.1
							c-2.17,3.32-4.95,6.16-8.26,8.45l-0.65,0.45v24.23H184.29z"/>
						<path class="st1" d="M201.34,123.68c16.31,0,29.59,13.28,29.59,29.61c0,5.83-1.69,11.45-4.89,16.28
							c-2.06,3.15-4.7,5.85-7.85,8.03l-1.3,0.89v1.57v11.02v6.23v4.69h-3.46h-24.17h-3.47v-4.69v-6.23v-11.02v-1.58l-1.3-0.89
							c-3.29-2.27-6.14-5.26-8.26-8.65c-2.94-4.67-4.49-10.09-4.49-15.65C171.74,136.97,185.02,123.68,201.34,123.68 M201.34,120.68
							c-18,0-32.59,14.62-32.59,32.61c0,6.35,1.81,12.26,4.95,17.25c2.34,3.76,5.45,7.02,9.09,9.53v11.02v6.23v7.69h6.47h24.17h6.46
							v-7.69v-6.23v-11.02c3.43-2.36,6.37-5.36,8.66-8.85c3.41-5.14,5.38-11.29,5.38-17.93
							C233.92,135.3,219.33,120.68,201.34,120.68L201.34,120.68z"/>
					</g>
					<polyline class="st5" points="202.81,191.1 219.89,191.1 224.64,191.1 					"/>
					<polyline class="st5" points="178.01,191.1 182.79,191.1 199.87,191.1 					"/>
					<polyline class="st5" points="178.01,197.32 182.79,197.32 219.89,197.32 224.64,197.32 					"/>
					<polyline class="st5" points="189.25,213.78 189.25,205.02 189.25,204.99 213.42,204.99 213.42,205.02 213.42,213.75 
						213.42,213.78 					"/>
					<line class="st5" x1="199.6" y1="103.7" x2="199.6" y2="114.24"/>
					<line class="st5" x1="214.96" y1="105.27" x2="212.22" y2="115.45"/>
					<line class="st5" x1="229.39" y1="110.75" x2="224.13" y2="119.89"/>
					<line class="st5" x1="241.91" y1="119.79" x2="234.48" y2="127.27"/>
					<line class="st5" x1="158.28" y1="122.25" x2="165.73" y2="129.7"/>
					<line class="st5" x1="170.27" y1="112.48" x2="175.53" y2="121.65"/>
					<line class="st5" x1="184.36" y1="106.16" x2="187.08" y2="116.34"/>
					<polygon class="st4" points="199.87,191.1 188.28,161.21 194.78,162.13 201.12,151.56 207.63,162.08 214.37,161.21 
						202.81,191.1 					"/>
				</g>
			</g>
		</g>
	</g>
</g>
<polyline class="st4" points="123.5,237.26 123.5,265.5 200.5,296.5 276.5,265.5 276.5,235.5 "/>
<g>
	<polygon class="st2" points="102.45,231.28 122.75,189.6 202.17,220.23 178.15,262.39 	"/>
	<path class="st1" d="M123.5,191.5L200,221l-22.5,39.5l-73-30L123.5,191.5 M122.01,187.71l-1.21,2.48l-19,39l-1.4,2.87l2.96,1.21
		l73,30l2.44,1l1.31-2.29l22.5-39.5l1.73-3.03l-3.25-1.25l-76.5-29.5L122.01,187.71L122.01,187.71z"/>
</g>
<g>
	<polygon class="st2" points="199.88,220.21 277.27,190.6 296.53,232.32 221.8,261.38 	"/>
	<path class="st1" d="M276.5,192.5l18,39l-17.74,6.9l-54.26,21.1L202,221L276.5,192.5 M278.05,188.7l-2.62,1l-74.5,28.5l-3.17,1.21
		l1.6,3l20.5,38.5l1.25,2.35l2.48-0.97l54.26-21.1l17.74-6.9l2.97-1.16l-1.34-2.9l-18-39L278.05,188.7L278.05,188.7z"/>
</g>
<line class="st5" x1="200.5" y1="219.5" x2="200.5" y2="296.5"/>
</svg>
