<?xml version="1.0" encoding="utf-8"?>
<!-- Generator: Adobe Illustrator 27.0.0, SVG Export Plug-In . SVG Version: 6.00 Build 0)  -->
<svg version="1.1" id="Layer_1" xmlns="http://www.w3.org/2000/svg" xmlns:xlink="http://www.w3.org/1999/xlink" x="0px" y="0px"
	 viewBox="0 0 400 400" style="enable-background:new 0 0 400 400;" xml:space="preserve">
<style type="text/css">
	.st0{fill:#2A92C6;}
	.st1{fill:#D1D3D4;}
	.st2{fill:#7136F2;}
	.st3{fill:#FFF3AC;}
	.st4{fill:none;stroke:#D1D3D4;stroke-width:3;stroke-miterlimit:10;}
	.st5{fill:#D1D3D4;stroke:#D1D3D4;stroke-width:3;stroke-miterlimit:10;}
	.st6{fill:#D1D3D4;stroke:#D1D3D4;stroke-miterlimit:10;}
	.st7{fill:#2A92C6;stroke:#D1D3D4;stroke-width:3;stroke-miterlimit:10;}
	.st8{fill:#7136F2;stroke:#D1D3D4;stroke-miterlimit:10;}
	.st9{fill:none;stroke:#D1D3D4;stroke-miterlimit:10;}
	.st10{fill:#2A92C6;stroke:#D1D3D4;stroke-width:2;stroke-miterlimit:10;}
	.st11{fill:#7136F2;stroke:#D1D3D4;stroke-width:2;stroke-miterlimit:10;}
	.st12{fill:#FFF3AC;stroke:#D1D3D4;stroke-width:3;stroke-miterlimit:10;}
	.st13{fill:none;stroke:#D1D3D4;stroke-width:2.6827;stroke-miterlimit:10;}
	.st14{fill:#7136F2;stroke:#D1D3D4;stroke-width:3;stroke-miterlimit:10;}
	.st15{fill:none;stroke:#D1D3D4;stroke-width:2;stroke-miterlimit:10;}
	.st16{fill:#003366;}
	.st17{fill:none;stroke:#7136F2;stroke-miterlimit:10;}
	.st18{fill:none;stroke:#003366;stroke-miterlimit:10;}
	.st19{fill:none;stroke:#2A92C6;stroke-miterlimit:10;}
	.st20{fill:none;stroke:#FFF3AC;stroke-miterlimit:10;}
	.st21{fill:#7136F2;stroke:#7136F2;stroke-miterlimit:10;}
	.st22{fill:#003366;stroke:#003366;stroke-miterlimit:10;}
	.st23{fill:#2A92C6;stroke:#2A92C6;stroke-miterlimit:10;}
	.st24{fill:#FFF3AC;stroke:#FFF3AC;stroke-miterlimit:10;}
</style>
<g id="WGIDXO_00000005981781163737679560000007081407827276416168_">
	<g>
		<path class="st13" d="M136.63,96.58h111.44v191.04H136.63V96.58z M254.5,102.5v191h-118 M261.5,110.5v191h-118"/>
		<g>
			<rect x="156.53" y="190" class="st6" width="71.64" height="4.08"/>
			<rect x="156.53" y="264" class="st6" width="71.64" height="3.73"/>
			<rect x="162.5" y="116.48" class="st6" width="55.72" height="3.52"/>
			<g>
				<rect x="155.03" y="230.4" class="st2" width="18.92" height="18.92"/>
				<path class="st1" d="M172.46,231.9v15.92h-15.92V231.9H172.46 M175.46,228.9h-3h-15.92h-3v3v15.92v3h3h15.92h3v-3V231.9V228.9
					L175.46,228.9z"/>
			</g>
			<g>
				<rect x="182.9" y="230.4" class="st3" width="18.92" height="18.92"/>
				<path class="st1" d="M200.32,231.9v15.92H184.4V231.9H200.32 M203.32,228.9h-3H184.4h-3v3v15.92v3h3h15.92h3v-3V231.9V228.9
					L203.32,228.9z"/>
			</g>
			<g>
				<rect x="210.76" y="230.4" class="st0" width="18.92" height="18.92"/>
				<path class="st1" d="M228.18,231.9v15.92h-15.92V231.9H228.18 M231.18,228.9h-3h-15.92h-3v3v15.92v3h3h15.92h3v-3V231.9V228.9
					L231.18,228.9z"/>
			</g>
			<g>
				<g>
					<path class="st1" d="M200.67,268.62c0.04,0,0.04-5,0-5C200.63,263.62,200.63,268.62,200.67,268.62L200.67,268.62z"/>
				</g>
			</g>
		</g>
	</g>
</g>
<g>
	<g>
		<path class="st0" d="M186.42,179.5c-13.19,0-23.92-10.73-23.92-23.92s10.73-23.92,23.92-23.92c7.53,0,14.54,3.51,19.06,9.47
			l-24.36,14.06l24.75,14.29C201.38,175.79,194.21,179.5,186.42,179.5z"/>
		<path class="st1" d="M186.42,133.17c6.48,0,12.55,2.78,16.78,7.56l-20.58,11.88l-4.5,2.6l4.5,2.6l21.02,12.13
			c-4.23,5.1-10.47,8.06-17.22,8.06c-12.36,0-22.42-10.06-22.42-22.42S174.06,133.17,186.42,133.17 M186.42,130.17
			c-14.04,0-25.42,11.38-25.42,25.42c0,14.04,11.38,25.42,25.42,25.42c9.11,0,17.1-4.8,21.59-12.01l-23.89-13.79l23.53-13.58
			C203.1,134.72,195.29,130.17,186.42,130.17L186.42,130.17z"/>
	</g>
	<g>
		<path class="st3" d="M196.35,155.11l20.75-11.98c1.63,2.69,3.64,7.24,3.38,13.03c-0.21,4.69-1.82,8.4-3.37,10.94L196.35,155.11z"
			/>
		<path class="st1" d="M216.54,145.18c1.33,2.57,2.65,6.32,2.44,10.9c-0.17,3.65-1.24,6.67-2.43,8.95l-17.2-9.93l5.57-3.22
			L216.54,145.18 M217.59,141.11c-8.08,4.66-16.16,9.33-24.24,13.99l24.24,13.99c1.29-1.86,4.1-6.42,4.39-12.88
			C222.33,148.44,218.81,142.88,217.59,141.11L217.59,141.11z"/>
	</g>
</g>
<polygon class="st14" points="192.85,220.5 222,207 163.71,207 "/>
</svg>
