<?xml version="1.0" encoding="utf-8"?>
<!-- Generator: Adobe Illustrator 27.0.0, SVG Export Plug-In . SVG Version: 6.00 Build 0)  -->
<svg version="1.1" id="Layer_1" xmlns="http://www.w3.org/2000/svg" xmlns:xlink="http://www.w3.org/1999/xlink" x="0px" y="0px"
	 viewBox="0 0 400 400" style="enable-background:new 0 0 400 400;" xml:space="preserve">
<style type="text/css">
	.st0{fill:#2A92C6;}
	.st1{fill:#D1D3D4;}
	.st2{fill:#7136F2;}
	.st3{fill:#FFF3AC;}
	.st4{fill:none;stroke:#D1D3D4;stroke-width:3;stroke-miterlimit:10;}
	.st5{fill:#D1D3D4;stroke:#D1D3D4;stroke-width:3;stroke-miterlimit:10;}
	.st6{fill:#D1D3D4;stroke:#D1D3D4;stroke-miterlimit:10;}
	.st7{fill:#2A92C6;stroke:#D1D3D4;stroke-width:3;stroke-miterlimit:10;}
	.st8{fill:#7136F2;stroke:#D1D3D4;stroke-miterlimit:10;}
	.st9{fill:none;stroke:#D1D3D4;stroke-miterlimit:10;}
	.st10{fill:#2A92C6;stroke:#D1D3D4;stroke-width:2;stroke-miterlimit:10;}
	.st11{fill:#7136F2;stroke:#D1D3D4;stroke-width:2;stroke-miterlimit:10;}
	.st12{fill:#FFF3AC;stroke:#D1D3D4;stroke-width:3;stroke-miterlimit:10;}
	.st13{fill:none;stroke:#D1D3D4;stroke-width:2.6827;stroke-miterlimit:10;}
	.st14{fill:#7136F2;stroke:#D1D3D4;stroke-width:3;stroke-miterlimit:10;}
	.st15{fill:none;stroke:#D1D3D4;stroke-width:2;stroke-miterlimit:10;}
	.st16{fill:#003366;}
	.st17{fill:none;stroke:#7136F2;stroke-miterlimit:10;}
	.st18{fill:none;stroke:#003366;stroke-miterlimit:10;}
	.st19{fill:none;stroke:#2A92C6;stroke-miterlimit:10;}
	.st20{fill:none;stroke:#FFF3AC;stroke-miterlimit:10;}
	.st21{fill:#7136F2;stroke:#7136F2;stroke-miterlimit:10;}
	.st22{fill:#003366;stroke:#003366;stroke-miterlimit:10;}
	.st23{fill:#2A92C6;stroke:#2A92C6;stroke-miterlimit:10;}
	.st24{fill:#FFF3AC;stroke:#FFF3AC;stroke-miterlimit:10;}
</style>
<g>
	<g>
		<g>
			<g>
				<g>
					<path class="st15" d="M284.41,233.56c-0.01,0.06-0.03,0.12-0.05,0.17c-0.1,0.21-0.3,0.35-0.53,0.37l-15.09,1.4
						c-0.23,0.02-0.46-0.08-0.59-0.27c-0.13-0.19-0.16-0.44-0.06-0.65l6.25-13.58c0.1-0.21,0.3-0.35,0.53-0.38l7.49-0.69
						c0.1-0.04,0.21-0.05,0.32-0.03c0.35,0.06,0.59,0.4,0.53,0.75c0,0.01,0,0.01,0,0.02c-0.01,0.05-0.02,0.1-0.04,0.15
						c-0.84,1.96-1.18,4.13-0.98,6.28c0.2,2.15,0.93,4.22,2.12,5.99C284.4,233.23,284.44,233.4,284.41,233.56z M269.74,234.1
						l12.93-1.2c-0.98-1.73-1.58-3.68-1.77-5.68c-0.18-2,0.05-4.02,0.7-5.91l-6.23,0.57L269.74,234.1z M260.69,222.76
						c-0.01,0.05-0.03,0.11-0.05,0.16l-6.24,13.57c-0.1,0.21-0.3,0.35-0.53,0.38l-26.98,2.5c-0.36,0.03-0.67-0.23-0.71-0.59
						l-0.6-6.45c-0.06-0.62-0.03-1.24,0.07-1.85c0.54-3.17,3.16-5.59,6.37-5.89l27.82-2.57c0.1-0.04,0.21-0.05,0.32-0.03
						c0.35,0.06,0.59,0.4,0.53,0.75C260.69,222.75,260.69,222.76,260.69,222.76z M253.37,235.62l5.61-12.21l-26.85,2.48
						c-2.62,0.24-4.76,2.22-5.21,4.82c-0.09,0.5-0.1,1.01-0.06,1.51l0.54,5.8L253.37,235.62z"/>
				</g>
			</g>
			<g>
				<path class="st15" d="M306.3,228.51c-0.97,5.69-5.68,10.04-11.44,10.58c-3.41,0.31-6.73-0.72-9.36-2.9
					c-2.63-2.19-4.26-5.27-4.57-8.67c-0.1-1.12-0.06-2.25,0.13-3.35c0.98-5.7,5.68-10.05,11.45-10.59
					c7.03-0.65,13.28,4.55,13.93,11.58C306.53,226.28,306.49,227.41,306.3,228.51z M282.33,224.39c-0.17,0.99-0.21,2-0.11,3.01
					c0.28,3.06,1.74,5.82,4.11,7.79c2.37,1.96,5.35,2.89,8.41,2.61c5.18-0.48,9.41-4.39,10.28-9.5c0.17-0.99,0.21-2,0.11-3.01
					c-0.58-6.32-6.2-10.98-12.51-10.4C287.44,215.36,283.21,219.27,282.33,224.39z"/>
			</g>
			<g>
				<path class="st15" d="M278.79,214.41c-0.01,0.05-0.03,0.11-0.05,0.16l-20.85,45.29c-1.65,3.57-5.89,5.13-9.45,3.49l-5.88-2.7
					c-0.16-0.07-0.28-0.2-0.34-0.36c-0.06-0.16-0.05-0.34,0.02-0.5l23.55-51.17c0.1-0.21,0.29-0.35,0.52-0.37
					c0.23-0.02,0.45,0.07,0.59,0.26c1.31,1.74,2.97,3.09,4.95,4c1.95,0.9,4.11,1.3,6.25,1.16c0.23-0.02,0.45,0.09,0.58,0.28
					C278.78,214.08,278.81,214.25,278.79,214.41z M243.69,259.74l5.29,2.43c2.91,1.34,6.38,0.07,7.72-2.85l20.41-44.34
					c-2-0.02-3.99-0.47-5.81-1.3c-1.82-0.84-3.46-2.06-4.77-3.57L243.69,259.74z"/>
			</g>
			<g>
				<path class="st15" d="M289.5,204.29C289.5,204.29,289.5,204.29,289.5,204.29c-0.19,1.1-0.52,2.18-1,3.2
					c-2.96,6.41-10.58,9.23-16.99,6.28c-5.26-2.42-8.25-8.09-7.27-13.79c0.19-1.1,0.52-2.18,1-3.2c2.95-6.41,10.57-9.23,16.99-6.28
					C287.49,192.93,290.48,198.6,289.5,204.29z M265.53,200.2c-0.88,5.12,1.81,10.21,6.53,12.39c5.76,2.65,12.61,0.12,15.26-5.65
					c0.42-0.92,0.72-1.89,0.89-2.88c0.88-5.11-1.81-10.21-6.53-12.39c-5.76-2.65-12.61-0.12-15.26,5.64
					C266,198.25,265.7,199.22,265.53,200.2z"/>
			</g>
			<g>
				<path class="st15" d="M266.36,230.51c-0.1,0.58-0.41,1.08-0.89,1.42c-0.98,0.69-2.35,0.46-3.06-0.52
					c-0.68-0.97-0.43-2.38,0.52-3.06c0.48-0.34,1.07-0.47,1.64-0.37c0.58,0.1,1.08,0.42,1.42,0.9
					C266.33,229.36,266.46,229.94,266.36,230.51z M263.32,229.99c-0.04,0.24,0.01,0.47,0.15,0.67c0.28,0.39,0.84,0.49,1.24,0.21
					c0.38-0.27,0.49-0.86,0.21-1.24c-0.14-0.19-0.34-0.32-0.57-0.36c-0.24-0.04-0.47,0.01-0.67,0.15
					C263.49,229.55,263.37,229.76,263.32,229.99z"/>
			</g>
			<g>
				<path class="st15" d="M283.51,203.28L283.51,203.28c-0.1,0.58-0.27,1.14-0.52,1.68c-1.56,3.37-5.56,4.85-8.93,3.3
					c-2.76-1.27-4.34-4.25-3.82-7.25c0.1-0.58,0.27-1.14,0.52-1.68c1.56-3.37,5.56-4.84,8.92-3.29
					C282.45,197.3,284.03,200.28,283.51,203.28z M271.52,201.22c-0.41,2.42,0.86,4.82,3.09,5.85c2.71,1.25,5.94,0.06,7.2-2.66
					c0.2-0.43,0.34-0.89,0.42-1.35c0.41-2.42-0.85-4.82-3.08-5.84c-2.72-1.25-5.95-0.06-7.2,2.66
					C271.75,200.3,271.6,200.76,271.52,201.22z"/>
			</g>
			<g>
				<path class="st15" d="M300.31,227.46C300.31,227.46,300.31,227.46,300.31,227.46c-0.1,0.58-0.28,1.15-0.52,1.69
					c-1.55,3.37-5.55,4.85-8.92,3.3c-2.76-1.27-4.34-4.25-3.82-7.25c0.1-0.58,0.27-1.14,0.52-1.68c1.55-3.36,5.55-4.84,8.92-3.3
					C299.25,221.49,300.82,224.47,300.31,227.46z M288.33,225.42c-0.41,2.42,0.85,4.82,3.08,5.85c2.72,1.25,5.94,0.05,7.19-2.66
					c0.2-0.44,0.34-0.89,0.42-1.36c0.41-2.41-0.85-4.81-3.08-5.84c-2.72-1.25-5.95-0.05-7.2,2.66
					C288.55,224.5,288.41,224.95,288.33,225.42z"/>
			</g>
		</g>
	</g>
	<g>
		<path class="st6" d="M212.59,264H90.41c-0.78,0-1.41-0.6-1.41-1.35v-96.74c0-0.74,0.63-1.35,1.41-1.35h122.17
			c0.78,0,1.41,0.6,1.41,1.35v96.74C214,263.4,213.37,264,212.59,264z M91.83,261.31h119.35v-94.05H91.83V261.31z"/>
	</g>
	<g>
		<path class="st1" d="M210.19,230.56c-0.28,0-0.56-0.09-0.8-0.27l-27.46-20.47l-21.33,17.46c-0.58,0.47-1.42,0.38-1.89-0.19
			c-0.47-0.58-0.39-1.42,0.19-1.89l22.14-18.13c0.48-0.39,1.16-0.41,1.66-0.04l28.3,21.1c0.6,0.44,0.72,1.29,0.27,1.88
			C211.01,230.37,210.6,230.56,210.19,230.56z"/>
	</g>
	<g>
		<path class="st1" d="M93.92,245.95c-0.39,0-0.77-0.17-1.04-0.49c-0.47-0.57-0.39-1.42,0.18-1.89l43.47-35.97
			c0.49-0.41,1.19-0.41,1.69-0.02l37.55,29.57c0.58,0.46,0.69,1.31,0.23,1.89c-0.46,0.58-1.3,0.69-1.89,0.22l-36.7-28.9
			l-42.64,35.28C94.52,245.85,94.22,245.95,93.92,245.95z"/>
	</g>
	<g>
		<path class="st12" d="M164.65,203c-5.57,0-10.09-4.52-10.09-10.09c0-5.56,4.53-10.09,10.09-10.09c5.56,0,10.08,4.52,10.08,10.09
			C174.73,198.48,170.21,203,164.65,203z"/>
	</g>
</g>
<path class="st12" d="M248.5,167.5l-4.39,12.44c-0.6,1.7,1.14,3.28,2.77,2.52l7.99-3.73c1.28-0.6,1.57-2.28,0.58-3.28l-4.95-4.95"/>
<g>
	<g>
		<g>
			<path class="st11" d="M264.26,135.61c-0.04,0-0.08,0-0.12,0c-0.01,0-0.03,0-0.04,0c-1.47-0.04-2.72-0.52-3.63-1.4
				c-0.91-0.92-1.38-2.17-1.4-3.65c-0.01-0.07-0.01-0.14-0.01-0.21c0.02-3.25,2.15-7.17,6.01-11.03c2.11-2.11,4.56-3.68,7.26-4.68
				c1.76-0.63,3.56-1.03,5.37-1.17c0.61-0.08,1.23,0.27,1.54,0.82c0.31,0.55,0.27,1.23-0.11,1.74c-1.68,2.28-1.71,4.51-1.75,6.87
				c-0.03,2.26-0.06,4.73-2.04,6.72C271.46,133.48,267.52,135.61,264.26,135.61z"/>
		</g>
		<g>
			<path class="st6" d="M260.9,141.16c-0.41,0-0.83-0.16-1.14-0.48c-0.63-0.63-0.62-1.65,0.01-2.27c0.74-0.73,1.5-1.49,2.27-2.27
				c0.24-0.24,0.42-0.51,0.54-0.8c-0.74-0.31-1.4-0.75-1.97-1.3c-0.58-0.59-1.02-1.25-1.32-1.97c-0.3,0.12-0.55,0.3-0.78,0.53
				c-0.78,0.76-1.53,1.51-2.26,2.26c-0.62,0.64-1.64,0.65-2.27,0.04c-0.64-0.62-0.66-1.64-0.04-2.27c0.74-0.77,1.51-1.54,2.3-2.31
				c0.72-0.72,1.58-1.23,2.5-1.46c0.52-0.16,1.15-0.24,1.79-0.21c0.77,0.04,1.4,0.61,1.51,1.37c0.1,0.69,0.38,1.26,0.85,1.74
				c0.43,0.43,1.04,0.72,1.73,0.83c0.76,0.12,1.33,0.75,1.36,1.52c0.03,0.62-0.05,1.26-0.22,1.85c-0.26,0.93-0.75,1.75-1.45,2.44
				c-0.77,0.78-1.54,1.54-2.29,2.28C261.72,141,261.31,141.16,260.9,141.16z"/>
		</g>
		<g>
			<path class="st6" d="M255.71,146.23c-0.41,0-0.82-0.16-1.14-0.47l-5.68-5.69c-0.62-0.62-0.63-1.63-0.01-2.26l1.1-1.12
				c1.36-1.39,3.45-3.53,3.99-4.07c0.63-0.63,1.65-0.63,2.27,0c0.63,0.63,0.63,1.65,0,2.27c-0.53,0.53-2.59,2.65-3.95,4.03
				l3.43,3.44c0.48-0.46,1.04-1.01,1.59-1.55l2.45-2.4c0.63-0.62,1.65-0.62,2.28,0.01c0.62,0.63,0.62,1.65-0.01,2.28l-2.47,2.41
				c-1.16,1.13-2.34,2.28-2.72,2.66C256.53,146.07,256.12,146.23,255.71,146.23z"/>
		</g>
		<g>
			<path class="st6" d="M227.03,169.31c-0.42,0-0.91-0.19-1.21-0.49c-1.02-1.13-0.36-2.36,1.09-4.84
				c3.15-5.42,10.95-14.72,21.95-26.17c0.3-0.31,0.71-0.49,1.15-0.5c0.5-0.03,0.85,0.17,1.15,0.47l5.68,5.69
				c0.3,0.3,0.47,0.72,0.47,1.15c0,0.43-0.18,0.84-0.5,1.14c-11.41,10.96-20.7,18.76-26.16,21.95
				C228.12,169.19,227.53,169.31,227.03,169.31z M250.05,141.23c-9,9.43-15.84,17.48-19.26,22.62c3.78-2.52,9.12-6.87,15.4-12.55
				c2.29-2.07,4.7-4.31,7.22-6.71L250.05,141.23z"/>
		</g>
		<g>
			<path class="st6" d="M243.45,184.65c-0.44,0-0.87-0.18-1.18-0.52c-0.42-0.45-0.54-1.1-0.32-1.68l5.79-14.78
				c0.09-0.22,0.23-0.43,0.41-0.59l36.25-33.47c0.65-0.6,1.67-0.56,2.27,0.09l9.42,10.19c0.29,0.31,0.44,0.73,0.43,1.16
				c-0.02,0.43-0.2,0.83-0.51,1.12l-36.25,33.48c-0.18,0.16-0.39,0.29-0.63,0.36l-15.2,4.58
				C243.76,184.62,243.6,184.65,243.45,184.65z M250.6,169.19l-4.45,11.35l11.68-3.52l34.8-32.13l-7.23-7.83L250.6,169.19z"/>
		</g>
		<g>
			<path class="st6" d="M259.52,180.59c-0.72,0-1.37-0.49-1.56-1.21l-0.49-1.92l-1.27-0.09c-0.74-0.06-1.35-0.61-1.47-1.35
				l-0.32-2.01h-1.45c-0.43,0-0.84-0.17-1.14-0.47c-0.3-0.3-0.47-0.72-0.47-1.14l0.01-1.43l-2-0.32c-0.88-0.14-1.48-0.96-1.34-1.84
				c0.14-0.88,0.98-1.49,1.84-1.34l3.36,0.53c0.78,0.12,1.36,0.8,1.36,1.6l-0.01,1.19h1.21c0.79,0,1.46,0.58,1.59,1.35l0.34,2.11
				l1.15,0.09c0.69,0.05,1.27,0.54,1.44,1.21l0.77,3.04c0.22,0.86-0.3,1.74-1.16,1.96C259.79,180.57,259.66,180.59,259.52,180.59z"
				/>
		</g>
		<g>
			<path class="st12" d="M295.38,145.94c-0.41,0-0.82-0.16-1.14-0.47l-9.82-9.81c-0.3-0.3-0.47-0.71-0.47-1.14
				c0-0.43,0.17-0.84,0.47-1.14l2.56-2.56c1.94-1.96,5.4-1.97,7.36,0l4.73,4.71c0.99,1,1.53,2.32,1.53,3.72
				c-0.01,1.39-0.55,2.69-1.53,3.66l-2.54,2.55C296.21,145.79,295.8,145.94,295.38,145.94z"/>
		</g>
	</g>
</g>
</svg>
