<?xml version="1.0" encoding="UTF-8"?><svg id="Layer_1" xmlns="http://www.w3.org/2000/svg" viewBox="0 0 400 400"><defs><style>.cls-1{fill:#7375f9;}</style></defs><path class="cls-1" d="M244.75,287.49h-89.95v-11.33h89.95v11.33ZM157.8,284.49h83.95v-5.33h-83.95v5.33Z"/><path class="cls-1" d="M228.31,279.17h-57.06l8.69-29.46h39.68l8.69,29.46ZM175.27,276.17h49.03l-6.92-23.46h-35.2l-6.92,23.46Z"/><path class="cls-1" d="M272.89,252.7H126.69c-5.87,0-10.64-4.32-10.64-9.63v-15.74h3c0,2.98,2.78,5.4,6.21,5.4h149.04c3.42,0,6.21-2.42,6.21-5.4h3v15.74c0,5.31-4.76,9.63-10.61,9.63ZM119.05,233.53v9.54c0,3.66,3.43,6.63,7.64,6.63h146.2c4.2,0,7.61-2.97,7.61-6.63v-9.54c-1.64,1.37-3.82,2.2-6.21,2.2H125.25c-2.39,0-4.57-.83-6.21-2.2Z"/><path class="cls-1" d="M181.06,252.7h-54.38c-5.87,0-10.64-4.32-10.64-9.63v-93.95c0-5.31,4.77-9.63,10.64-9.63l85.57.07v3s-85.57-.07-85.57-.07c-4.21,0-7.64,2.97-7.64,6.63v93.95c0,3.66,3.43,6.63,7.64,6.63h54.38v3Z"/><path class="cls-1" d="M272.89,252.7h-54.38v-3h54.38c4.2,0,7.61-2.97,7.61-6.63v-93.95c0-3.66-3.41-6.63-7.61-6.63h-9.5v-3h9.5c5.85,0,10.61,4.32,10.61,9.63v93.95c0,5.31-4.76,9.63-10.61,9.63Z"/><path class="cls-1" d="M274.29,235.73H125.25c-5.08,0-9.21-3.77-9.21-8.4h3c0,2.98,2.78,5.4,6.21,5.4h149.04c3.42,0,6.21-2.42,6.21-5.4h3c0,4.63-4.13,8.4-9.21,8.4Z"/><polygon class="cls-1" points="224.87 278.09 217.38 252.7 182.19 252.7 174.7 278.09 171.82 277.24 179.94 249.7 219.63 249.7 227.75 277.24 224.87 278.09"/><path class="cls-1" d="M244.75,287.49h-89.95v-11.33h89.95v11.33ZM157.8,284.49h83.95v-5.33h-83.95v5.33Z"/><path class="cls-1" d="M213.32,230.89h-28.01v-15.59h28.01v15.59ZM188.31,227.89h22.01v-9.59h-22.01v9.59Z"/><path class="cls-1" d="M265.35,227.76h-15.65v-9.36h15.65v9.36ZM252.7,224.76h9.65v-3.36h-9.65v3.36Z"/><rect class="cls-1" x="211.82" y="221.6" width="39.38" height="3"/><path class="cls-1" d="M148.86,227.76h-15.67v-9.36h15.67v9.36ZM136.18,224.76h9.67v-3.36h-9.67v3.36Z"/><rect class="cls-1" x="147.36" y="221.6" width="39.35" height="3"/><path class="cls-1" d="M257.51,158.54h-40.34c-3.36,0-6.1-2.8-6.1-6.25v-69.05c0-3.44,2.74-6.25,6.1-6.25h40.34c3.36,0,6.1,2.8,6.1,6.25v69.05c0,3.44-2.74,6.25-6.1,6.25ZM217.17,78.73c-2.43,0-4.41,2.02-4.41,4.51v69.05c0,2.49,1.98,4.51,4.41,4.51h40.34c2.43,0,4.41-2.02,4.41-4.51v-69.05c0-2.49-1.98-4.51-4.41-4.51h-40.34Z"/><path class="cls-1" d="M255.98,152.49h-37.29c-.74,0-1.34-.7-1.34-1.56v-65.88c0-.86.6-1.56,1.34-1.56h37.29c.74,0,1.34.7,1.34,1.56v65.88c0,.86-.6,1.56-1.34,1.56ZM218.69,84.49c-.17,0-.35.24-.35.57v65.88c0,.33.19.57.35.57h37.29c.17,0,.35-.24.35-.57v-65.88c0-.33-.19-.57-.35-.57h-37.29Z"/><path class="cls-1" d="M247.27,132.87h-21.57c-.6,0-1.08-.48-1.08-1.06v-21.25c0-.59.48-1.06,1.08-1.06h21.57c.59,0,1.08.48,1.08,1.06v21.25c0,.59-.48,1.06-1.08,1.06ZM226.78,130.75h19.41v-19.12h-19.41v19.12h0Z"/><path class="cls-1" d="M249.2,139.25h-23.73c-.47,0-.85-.48-.85-1.06s.38-1.06.85-1.06h23.73c.47,0,.85.48.85,1.06s-.38,1.06-.85,1.06Z"/><path class="cls-1" d="M249.2,144.11h-23.73c-.47,0-.85-.48-.85-1.06s.38-1.06.85-1.06h23.73c.47,0,.85.48.85,1.06s-.38,1.06-.85,1.06Z"/><path class="cls-1" d="M240.73,103.12c-.25,0-.49-.14-.66-.4l-6.19-9.7-7.8,9.79c-.16.2-.37.31-.6.31h-6.78c-.47,0-.85-.48-.85-1.06s.38-1.06.85-1.06h6.43l8.23-10.31c.17-.21.41-.33.65-.31.24.02.46.16.61.4l6.78,10.62c.29.46.23,1.13-.13,1.49-.16.16-.34.23-.53.23Z"/><path class="cls-1" d="M233.95,103.12c-.22,0-.43-.1-.6-.31-.33-.42-.33-1.09,0-1.5l8.47-10.62c.17-.21.4-.33.65-.31.24.02.46.16.61.4l6.53,10.23h6.37c.47,0,.85.48.85,1.06s-.38,1.06-.85,1.06h-6.78c-.26,0-.5-.15-.66-.4l-6.19-9.7-7.8,9.79c-.17.21-.38.31-.6.31Z"/><path class="cls-1" d="M195.52,203h-63.7c-.38,0-.69-.23-.69-.52v-47.42c0-.28.31-.52.69-.52h63.7c.38,0,.69.23.69.52v47.42c0,.28-.31.52-.69.52ZM132.52,201.97h62.31v-46.39h-62.31v46.39Z"/><path class="cls-1" d="M195.52,167.06h-63.7c-.38,0-.69-.31-.69-.7s.31-.7.69-.7h63.7c.38,0,.69.31.69.7,0,.38-.31.7-.69.7Z"/><path class="cls-1" d="M151.21,167.06c-.38,0-.69-.31-.69-.7v-11.12c0-.38.31-.7.69-.7s.69.31.69.7v11.12c0,.38-.31.7-.69.7Z"/><path class="cls-1" d="M195.52,161.5h-29.08c-.38,0-.69-.31-.69-.7s.31-.7.69-.7h29.08c.38,0,.69.31.69.7,0,.38-.31.7-.69.7Z"/><path class="cls-1" d="M153.98,197.91h-16.62c-.38,0-.69-.31-.69-.7v-15.29c0-.38.31-.7.69-.7h16.62c.38,0,.69.31.69.7v15.29c0,.38-.31.7-.69.7ZM138.05,196.52h15.23v-13.9h-15.23v13.9Z"/><path class="cls-1" d="M177.14,185.62h-16.62c-.38,0-.69-.31-.69-.7s.31-.7.69-.7h16.62c.38,0,.69.31.69.7s-.31.7-.69.7Z"/><path class="cls-1" d="M186.83,185.62h-5.54c-.38,0-.69-.31-.69-.7s.31-.7.69-.7h5.54c.38,0,.69.31.69.7,0,.38-.31.7-.69.7Z"/><path class="cls-1" d="M167.44,189.79h-6.92c-.38,0-.69-.31-.69-.7s.31-.7.69-.7h6.92c.38,0,.69.31.69.7s-.31.7-.69.7Z"/><path class="cls-1" d="M177.14,189.79h-5.54c-.38,0-.69-.31-.69-.7s.31-.7.69-.7h5.54c.38,0,.69.31.69.7s-.31.7-.69.7Z"/><path class="cls-1" d="M171.6,193.96h-11.08c-.38,0-.69-.31-.69-.7s.31-.7.69-.7h11.08c.38,0,.69.31.69.7,0,.38-.31.7-.69.7Z"/><rect class="cls-1" x="135.98" y="159.41" width="2.77" height="2.78"/><rect class="cls-1" x="140.13" y="159.41" width="2.77" height="2.78"/><rect class="cls-1" x="144.29" y="159.41" width="2.77" height="2.78"/><path class="cls-1" d="M165.8,176.82c-.16,0-.32-.08-.43-.24l-3.98-5.94-5.02,6c-.1.12-.24.19-.39.19h-4.36c-.3,0-.54-.29-.54-.65s.24-.65.54-.65h4.13l5.29-6.32c.11-.13.26-.2.42-.19.15.01.3.1.4.24l4.36,6.51c.19.28.15.69-.09.92-.1.1-.22.14-.34.14Z"/><path class="cls-1" d="M161.44,176.82c-.14,0-.28-.06-.39-.19-.21-.25-.21-.67,0-.92l5.45-6.51c.11-.13.26-.2.42-.19.15.01.3.1.4.24l4.2,6.27h4.1c.3,0,.55.29.55.65s-.24.65-.55.65h-4.36c-.17,0-.32-.09-.43-.24l-3.98-5.94-5.02,6c-.11.13-.25.19-.39.19Z"/><path class="cls-1" d="M244.75,287.49h-89.95v-11.33h89.95v11.33ZM157.8,284.49h83.95v-5.33h-83.95v5.33Z"/><path class="cls-1" d="M228.31,279.17h-57.06l8.69-29.46h39.68l8.69,29.46ZM175.27,276.17h49.03l-6.92-23.46h-35.2l-6.92,23.46Z"/><path class="cls-1" d="M272.89,252.7H126.69c-5.87,0-10.64-4.32-10.64-9.63v-15.74h3c0,2.98,2.78,5.4,6.21,5.4h149.04c3.42,0,6.21-2.42,6.21-5.4h3v15.74c0,5.31-4.76,9.63-10.61,9.63ZM119.05,233.53v9.54c0,3.66,3.43,6.63,7.64,6.63h146.2c4.2,0,7.61-2.97,7.61-6.63v-9.54c-1.64,1.37-3.82,2.2-6.21,2.2H125.25c-2.39,0-4.57-.83-6.21-2.2Z"/><path class="cls-1" d="M181.06,252.7h-54.38c-5.87,0-10.64-4.32-10.64-9.63v-93.95c0-5.31,4.77-9.63,10.64-9.63l85.57.07v3s-85.57-.07-85.57-.07c-4.21,0-7.64,2.97-7.64,6.63v93.95c0,3.66,3.43,6.63,7.64,6.63h54.38v3Z"/><path class="cls-1" d="M272.89,252.7h-54.38v-3h54.38c4.2,0,7.61-2.97,7.61-6.63v-93.95c0-3.66-3.41-6.63-7.61-6.63h-9.5v-3h9.5c5.85,0,10.61,4.32,10.61,9.63v93.95c0,5.31-4.76,9.63-10.61,9.63Z"/><path class="cls-1" d="M274.29,235.73H125.25c-5.08,0-9.21-3.77-9.21-8.4h3c0,2.98,2.78,5.4,6.21,5.4h149.04c3.42,0,6.21-2.42,6.21-5.4h3c0,4.63-4.13,8.4-9.21,8.4Z"/><polygon class="cls-1" points="224.87 278.09 217.38 252.7 182.19 252.7 174.7 278.09 171.82 277.24 179.94 249.7 219.63 249.7 227.75 277.24 224.87 278.09"/><path class="cls-1" d="M244.75,287.49h-89.95v-11.33h89.95v11.33ZM157.8,284.49h83.95v-5.33h-83.95v5.33Z"/><path class="cls-1" d="M213.32,230.89h-28.01v-15.59h28.01v15.59ZM188.31,227.89h22.01v-9.59h-22.01v9.59Z"/><path class="cls-1" d="M265.35,227.76h-15.65v-9.36h15.65v9.36ZM252.7,224.76h9.65v-3.36h-9.65v3.36Z"/><rect class="cls-1" x="211.82" y="221.6" width="39.38" height="3"/><path class="cls-1" d="M148.86,227.76h-15.67v-9.36h15.67v9.36ZM136.18,224.76h9.67v-3.36h-9.67v3.36Z"/><rect class="cls-1" x="147.36" y="221.6" width="39.35" height="3"/><path class="cls-1" d="M257.51,158.54h-40.34c-3.36,0-6.1-2.8-6.1-6.25v-69.05c0-3.44,2.74-6.25,6.1-6.25h40.34c3.36,0,6.1,2.8,6.1,6.25v69.05c0,3.44-2.74,6.25-6.1,6.25ZM217.17,78.73c-2.43,0-4.41,2.02-4.41,4.51v69.05c0,2.49,1.98,4.51,4.41,4.51h40.34c2.43,0,4.41-2.02,4.41-4.51v-69.05c0-2.49-1.98-4.51-4.41-4.51h-40.34Z"/><path class="cls-1" d="M255.98,152.49h-37.29c-.74,0-1.34-.7-1.34-1.56v-65.88c0-.86.6-1.56,1.34-1.56h37.29c.74,0,1.34.7,1.34,1.56v65.88c0,.86-.6,1.56-1.34,1.56ZM218.69,84.49c-.17,0-.35.24-.35.57v65.88c0,.33.19.57.35.57h37.29c.17,0,.35-.24.35-.57v-65.88c0-.33-.19-.57-.35-.57h-37.29Z"/><path class="cls-1" d="M247.27,132.87h-21.57c-.6,0-1.08-.48-1.08-1.06v-21.25c0-.59.48-1.06,1.08-1.06h21.57c.59,0,1.08.48,1.08,1.06v21.25c0,.59-.48,1.06-1.08,1.06Z"/><path class="cls-1" d="M249.2,139.25h-23.73c-.47,0-.85-.48-.85-1.06s.38-1.06.85-1.06h23.73c.47,0,.85.48.85,1.06s-.38,1.06-.85,1.06Z"/><path class="cls-1" d="M249.2,144.11h-23.73c-.47,0-.85-.48-.85-1.06s.38-1.06.85-1.06h23.73c.47,0,.85.48.85,1.06s-.38,1.06-.85,1.06Z"/><path class="cls-1" d="M240.73,103.12c-.25,0-.49-.14-.66-.4l-6.19-9.7-7.8,9.79c-.16.2-.37.31-.6.31h-6.78c-.47,0-.85-.48-.85-1.06s.38-1.06.85-1.06h6.43l8.23-10.31c.17-.21.41-.33.65-.31.24.02.46.16.61.4l6.78,10.62c.29.46.23,1.13-.13,1.49-.16.16-.34.23-.53.23Z"/><path class="cls-1" d="M233.95,103.12c-.22,0-.43-.1-.6-.31-.33-.42-.33-1.09,0-1.5l8.47-10.62c.17-.21.4-.33.65-.31.24.02.46.16.61.4l6.53,10.23h6.37c.47,0,.85.48.85,1.06s-.38,1.06-.85,1.06h-6.78c-.26,0-.5-.15-.66-.4l-6.19-9.7-7.8,9.79c-.17.21-.38.31-.6.31Z"/><path class="cls-1" d="M195.52,203h-63.7c-.38,0-.69-.23-.69-.52v-47.42c0-.28.31-.52.69-.52h63.7c.38,0,.69.23.69.52v47.42c0,.28-.31.52-.69.52ZM132.52,201.97h62.31v-46.39h-62.31v46.39Z"/><path class="cls-1" d="M195.52,167.06h-63.7c-.38,0-.69-.31-.69-.7s.31-.7.69-.7h63.7c.38,0,.69.31.69.7,0,.38-.31.7-.69.7Z"/><path class="cls-1" d="M151.21,167.06c-.38,0-.69-.31-.69-.7v-11.12c0-.38.31-.7.69-.7s.69.31.69.7v11.12c0,.38-.31.7-.69.7Z"/><path class="cls-1" d="M195.52,161.5h-29.08c-.38,0-.69-.31-.69-.7s.31-.7.69-.7h29.08c.38,0,.69.31.69.7,0,.38-.31.7-.69.7Z"/><path class="cls-1" d="M153.98,197.91h-16.62c-.38,0-.69-.31-.69-.7v-15.29c0-.38.31-.7.69-.7h16.62c.38,0,.69.31.69.7v15.29c0,.38-.31.7-.69.7Z"/><path class="cls-1" d="M177.14,185.62h-16.62c-.38,0-.69-.31-.69-.7s.31-.7.69-.7h16.62c.38,0,.69.31.69.7s-.31.7-.69.7Z"/><path class="cls-1" d="M186.83,185.62h-5.54c-.38,0-.69-.31-.69-.7s.31-.7.69-.7h5.54c.38,0,.69.31.69.7,0,.38-.31.7-.69.7Z"/><path class="cls-1" d="M167.44,189.79h-6.92c-.38,0-.69-.31-.69-.7s.31-.7.69-.7h6.92c.38,0,.69.31.69.7s-.31.7-.69.7Z"/><path class="cls-1" d="M177.14,189.79h-5.54c-.38,0-.69-.31-.69-.7s.31-.7.69-.7h5.54c.38,0,.69.31.69.7s-.31.7-.69.7Z"/><path class="cls-1" d="M171.6,193.96h-11.08c-.38,0-.69-.31-.69-.7s.31-.7.69-.7h11.08c.38,0,.69.31.69.7,0,.38-.31.7-.69.7Z"/><rect class="cls-1" x="135.98" y="159.41" width="2.77" height="2.78"/><rect class="cls-1" x="140.13" y="159.41" width="2.77" height="2.78"/><rect class="cls-1" x="144.29" y="159.41" width="2.77" height="2.78"/><path class="cls-1" d="M165.8,176.82c-.16,0-.32-.08-.43-.24l-3.98-5.94-5.02,6c-.1.12-.24.19-.39.19h-4.36c-.3,0-.54-.29-.54-.65s.24-.65.54-.65h4.13l5.29-6.32c.11-.13.26-.2.42-.19.15.01.3.1.4.24l4.36,6.51c.19.28.15.69-.09.92-.1.1-.22.14-.34.14Z"/><path class="cls-1" d="M161.44,176.82c-.14,0-.28-.06-.39-.19-.21-.25-.21-.67,0-.92l5.45-6.51c.11-.13.26-.2.42-.19.15.01.3.1.4.24l4.2,6.27h4.1c.3,0,.55.29.55.65s-.24.65-.55.65h-4.36c-.17,0-.32-.09-.43-.24l-3.98-5.94-5.02,6c-.11.13-.25.19-.39.19Z"/><path class="cls-1" d="M259.62,186.36l-6.1-.92c-.17-1.01-.44-2.02-.8-2.99l4.82-3.83c.15-.12.19-.33.09-.49l-1.66-2.86c-.1-.17-.3-.24-.47-.17l-5.74,2.25c-.67-.8-1.4-1.53-2.2-2.19l2.26-5.73c.07-.18,0-.38-.17-.47l-2.87-1.65c-.17-.1-.38-.06-.49.09l-3.84,4.81c-.98-.36-1.98-.63-3.01-.8l-.92-6.08c-.03-.19-.19-.33-.38-.33h-3.31c-.19,0-.35.14-.38.33l-.92,6.08c-1.02.18-2.03.44-3,.8l-3.84-4.81c-.12-.15-.33-.19-.49-.09l-2.87,1.65c-.17.09-.24.3-.17.47l2.26,5.73c-.79.66-1.53,1.39-2.2,2.19l-5.74-2.25c-.18-.07-.38,0-.47.17l-1.65,2.86c-.1.17-.06.37.09.49l4.82,3.83c-.36.98-.63,1.98-.8,3l-6.1.92c-.19.03-.33.19-.33.38v3.3c0,.19.14.35.33.38l6.1.92c.18,1.02.45,2.02.8,2.99l-4.82,3.83c-.15.12-.19.33-.09.49l1.65,2.86c.1.16.3.24.47.17l5.74-2.25c.67.8,1.41,1.54,2.2,2.19l-2.26,5.73c-.07.18,0,.38.17.47l2.87,1.65c.16.09.38.05.49-.09l3.84-4.81c.97.36,1.98.63,3,.8l.92,6.08c.03.19.19.33.38.33h3.31c.19,0,.35-.14.38-.33l.92-6.08c1.02-.17,2.03-.44,3.01-.8l3.84,4.8c.12.15.33.19.49.09l2.87-1.65c.17-.1.24-.3.17-.47l-2.26-5.73c.8-.66,1.53-1.4,2.2-2.19l5.74,2.25c.18.07.38,0,.47-.17l1.66-2.86c.1-.16.06-.37-.09-.49l-4.82-3.83c.36-.98.63-1.98.8-2.99l6.1-.92c.19-.03.33-.19.33-.38v-3.3c0-.19-.14-.35-.33-.38ZM236.5,199.84c-6.33,0-11.48-5.14-11.48-11.45s5.15-11.45,11.48-11.45,11.49,5.14,11.49,11.45-5.15,11.45-11.49,11.45Z"/></svg>