<?xml version="1.0" encoding="utf-8"?>
<!-- Generator: Adobe Illustrator 27.0.0, SVG Export Plug-In . SVG Version: 6.00 Build 0)  -->
<svg version="1.1" id="Layer_1" xmlns="http://www.w3.org/2000/svg" xmlns:xlink="http://www.w3.org/1999/xlink" x="0px" y="0px"
	 viewBox="0 0 400 400" style="enable-background:new 0 0 400 400;" xml:space="preserve">
<style type="text/css">
	.st0{fill:#2A92C6;}
	.st1{fill:#D1D3D4;}
	.st2{fill:#7136F2;}
	.st3{fill:#FFF3AC;}
	.st4{fill:none;stroke:#D1D3D4;stroke-width:3;stroke-miterlimit:10;}
	.st5{fill:#D1D3D4;stroke:#D1D3D4;stroke-width:3;stroke-miterlimit:10;}
	.st6{fill:#D1D3D4;stroke:#D1D3D4;stroke-miterlimit:10;}
	.st7{fill:#2A92C6;stroke:#D1D3D4;stroke-width:3;stroke-miterlimit:10;}
	.st8{fill:#7136F2;stroke:#D1D3D4;stroke-miterlimit:10;}
	.st9{fill:none;stroke:#D1D3D4;stroke-miterlimit:10;}
	.st10{fill:#2A92C6;stroke:#D1D3D4;stroke-width:2;stroke-miterlimit:10;}
	.st11{fill:#7136F2;stroke:#D1D3D4;stroke-width:2;stroke-miterlimit:10;}
	.st12{fill:#FFF3AC;stroke:#D1D3D4;stroke-width:3;stroke-miterlimit:10;}
	.st13{fill:none;stroke:#D1D3D4;stroke-width:2.6827;stroke-miterlimit:10;}
	.st14{fill:#7136F2;stroke:#D1D3D4;stroke-width:3;stroke-miterlimit:10;}
	.st15{fill:none;stroke:#D1D3D4;stroke-width:2;stroke-miterlimit:10;}
	.st16{fill:#003366;}
	.st17{fill:none;stroke:#7136F2;stroke-miterlimit:10;}
	.st18{fill:none;stroke:#003366;stroke-miterlimit:10;}
	.st19{fill:none;stroke:#2A92C6;stroke-miterlimit:10;}
	.st20{fill:none;stroke:#FFF3AC;stroke-miterlimit:10;}
	.st21{fill:#7136F2;stroke:#7136F2;stroke-miterlimit:10;}
	.st22{fill:#003366;stroke:#003366;stroke-miterlimit:10;}
	.st23{fill:#2A92C6;stroke:#2A92C6;stroke-miterlimit:10;}
	.st24{fill:#FFF3AC;stroke:#FFF3AC;stroke-miterlimit:10;}
</style>
<g>
	<polyline class="st4" points="289,135.66 237.3,185.02 103.34,185.02 	"/>
	<polygon class="st4" points="285.66,120.64 233.96,169.99 100,169.99 157.58,120.64 	"/>
	<polyline class="st4" points="289,148.59 237.3,197.94 103.34,197.94 	"/>
	<polyline class="st4" points="289,161.51 237.3,210.87 103.34,210.87 	"/>
	<polyline class="st4" points="289,174.44 237.3,223.79 103.34,223.79 	"/>
	<polyline class="st4" points="289,187.37 237.3,236.72 103.34,236.72 	"/>
	<polyline class="st4" points="289,200.29 237.3,249.65 103.34,249.65 	"/>
	<polyline class="st4" points="289,213.22 237.3,262.57 103.34,262.57 	"/>
	<g>
		<g>
			<path class="st2" d="M232.65,159.23c-1.19,0-2.67-0.3-4.26-0.87c-5.48-1.97-12.15-6.43-17.51-10.01
				c-1.59-1.06-3.1-2.07-4.39-2.89c-1.66,0.45-3.34,1.73-5.1,3.07c-2.68,2.05-5.72,4.36-9.61,4.36c-0.82,0-1.66-0.1-2.48-0.31
				c-0.91-0.23-2.41-1.38-6.83-4.88c-3.73-2.96-8.76-6.95-11.16-8.08c-2.23,0.89-9.92,6.31-15.12,9.98
				c-4.83,3.4-9.39,6.62-11.5,7.74c-2.21,1.17-4.39,1.82-6.14,1.82c-2.38,0-3.06-1.25-3.25-1.78c-0.3-0.89-0.19-2.3,2.02-4.01
				c2.02-1.55,27.73-19.33,30.79-20.09c1.12-0.28,3.12-0.49,4.65-0.49c0.77,0,1.36,0.05,1.78,0.16c0.79,0.2,1.84,0.97,5.63,3.91
				c3.87,3,9.67,7.49,12.44,8.39c1.42-0.17,4.4-2.35,6.2-3.68c1.43-1.05,2.56-1.88,3.42-2.27c0.95-0.43,1.64-0.71,2.47-0.71
				c0.6,0,1.13,0.14,1.94,0.36l0.58,0.15c2.86,0.75,23.85,12.52,26.49,14.37c2.32,1.63,2.47,3.04,2.19,3.94
				C235.75,157.96,235.09,159.23,232.65,159.23z"/>
			<path class="st1" d="M172.77,134.29c0.59,0,1.1,0.03,1.41,0.11c1.55,0.4,13.56,11.08,18.27,12.36c0.01,0,0.01,0,0.02,0
				c2.8,0,8.34-5.16,10.4-6.09c0.91-0.41,1.36-0.58,1.85-0.58c0.5,0,1.04,0.18,2.14,0.47c2.53,0.66,23.45,12.36,26.01,14.15
				c2.44,1.71,2.01,3.02-0.22,3.02c-0.95,0-2.23-0.24-3.75-0.78c-7.15-2.57-16.61-9.66-22.12-13.08c-4.95,0.79-8.91,7.53-14.99,7.53
				c-0.68,0-1.38-0.08-2.12-0.27c-1.63-0.41-14.17-11.6-18.26-13.09c-3.27,0.61-22.52,15.39-27.42,17.99
				c-2.17,1.15-4.1,1.65-5.43,1.65c-2.12,0-2.71-1.25-0.31-3.1c3.13-2.41,27.72-19.2,30.24-19.83
				C169.5,134.48,171.38,134.29,172.77,134.29 M172.77,131.29c-1.43,0-3.61,0.18-5.01,0.54c-3.57,0.89-29.47,18.92-31.34,20.36
				c-3.08,2.37-2.91,4.57-2.53,5.68c0.22,0.66,1.22,2.8,4.67,2.8c1.99,0,4.41-0.71,6.84-2c2.2-1.17,6.59-4.26,11.67-7.84
				c4.71-3.32,11.56-8.15,14.23-9.53c2.46,1.39,7.24,5.19,10.25,7.58c5.02,3.98,6.21,4.86,7.4,5.16c0.95,0.24,1.91,0.36,2.85,0.36
				c4.39,0,7.65-2.48,10.52-4.67c1.41-1.08,2.77-2.11,3.99-2.61c1.14,0.73,2.42,1.59,3.76,2.48c5.43,3.63,12.18,8.15,17.84,10.18
				c1.78,0.64,3.38,0.96,4.76,0.96c3.52,0,4.49-2.19,4.7-2.86c0.36-1.13,0.47-3.36-2.76-5.62c-2.23-1.56-23.68-13.73-26.97-14.59
				l-0.57-0.15c-0.86-0.23-1.53-0.41-2.33-0.41c-1.12,0-2.02,0.37-3.09,0.85c-1,0.45-2.19,1.32-3.69,2.42
				c-1.33,0.98-3.98,2.92-5.22,3.33c-2.66-1.08-8.21-5.38-11.62-8.01c-3.89-3.01-5.06-3.89-6.18-4.18
				C174.37,131.36,173.68,131.29,172.77,131.29L172.77,131.29z"/>
		</g>
		<g>
			<ellipse class="st3" cx="231.54" cy="132.1" rx="9.75" ry="4"/>
			<path class="st1" d="M231.54,129.6c5.01,0,7.88,1.76,8.23,2.5c-0.35,0.74-3.22,2.5-8.23,2.5s-7.88-1.76-8.23-2.5
				C223.66,131.36,226.53,129.6,231.54,129.6 M231.54,126.6c-6.21,0-11.25,2.46-11.25,5.5s5.04,5.5,11.25,5.5
				c6.21,0,11.25-2.46,11.25-5.5S237.75,126.6,231.54,126.6L231.54,126.6z"/>
		</g>
	</g>
</g>
</svg>
