<?xml version="1.0" encoding="utf-8"?>
<!-- Generator: Adobe Illustrator 27.0.0, SVG Export Plug-In . SVG Version: 6.00 Build 0)  -->
<svg version="1.1" id="Layer_1" xmlns="http://www.w3.org/2000/svg" xmlns:xlink="http://www.w3.org/1999/xlink" x="0px" y="0px"
	 viewBox="0 0 400 400" style="enable-background:new 0 0 400 400;" xml:space="preserve">
<style type="text/css">
	.st0{fill:#2A92C6;}
	.st1{fill:#D1D3D4;}
	.st2{fill:#7136F2;}
	.st3{fill:#FFF3AC;}
	.st4{fill:none;stroke:#D1D3D4;stroke-width:3;stroke-miterlimit:10;}
	.st5{fill:#D1D3D4;stroke:#D1D3D4;stroke-width:3;stroke-miterlimit:10;}
	.st6{fill:#D1D3D4;stroke:#D1D3D4;stroke-miterlimit:10;}
	.st7{fill:#2A92C6;stroke:#D1D3D4;stroke-width:3;stroke-miterlimit:10;}
	.st8{fill:#7136F2;stroke:#D1D3D4;stroke-miterlimit:10;}
	.st9{fill:none;stroke:#D1D3D4;stroke-miterlimit:10;}
	.st10{fill:#2A92C6;stroke:#D1D3D4;stroke-width:2;stroke-miterlimit:10;}
	.st11{fill:#7136F2;stroke:#D1D3D4;stroke-width:2;stroke-miterlimit:10;}
	.st12{fill:#FFF3AC;stroke:#D1D3D4;stroke-width:3;stroke-miterlimit:10;}
	.st13{fill:none;stroke:#D1D3D4;stroke-width:2.6827;stroke-miterlimit:10;}
	.st14{fill:#7136F2;stroke:#D1D3D4;stroke-width:3;stroke-miterlimit:10;}
	.st15{fill:none;stroke:#D1D3D4;stroke-width:2;stroke-miterlimit:10;}
	.st16{fill:#003366;}
	.st17{fill:none;stroke:#7136F2;stroke-miterlimit:10;}
	.st18{fill:none;stroke:#003366;stroke-miterlimit:10;}
	.st19{fill:none;stroke:#2A92C6;stroke-miterlimit:10;}
	.st20{fill:none;stroke:#FFF3AC;stroke-miterlimit:10;}
	.st21{fill:#7136F2;stroke:#7136F2;stroke-miterlimit:10;}
	.st22{fill:#003366;stroke:#003366;stroke-miterlimit:10;}
	.st23{fill:#2A92C6;stroke:#2A92C6;stroke-miterlimit:10;}
	.st24{fill:#FFF3AC;stroke:#FFF3AC;stroke-miterlimit:10;}
</style>
<g id="D1gRtv_00000173128299714198110260000010863018732565542311_">
	<g>
		<path class="st4" d="M161.79,100.9c47.08-3.8,82.82,42.76,64.11,86.99c-15.21,35.94-59.6,49.1-92.62,28.6
			c-5.36,1.08-12.47,5.21-17.6,5.93c-4.7,0.66-7.93-3.06-7.58-7.6c0.35-4.47,5.79-14.16,5.57-17.29c-0.09-1.25-3.6-6.64-4.42-8.58
			C92.23,148.97,118.59,104.39,161.79,100.9z"/>
		<path class="st4" d="M287.84,193.69c16.88,18.26,20.59,44.92,10.84,67.6c-0.81,1.89-4.36,7.42-4.44,8.59
			c-0.18,2.82,5.21,13,5.77,17.06c0.62,4.5-2.63,8.36-7.25,7.92c-3.96-0.38-15.47-6.24-17.92-6c-1.55,0.16-9.84,4.85-12.61,5.87
			c-42.83,15.64-88.51-17.85-84.79-63.45c29.96-4.76,53.71-27.91,58.62-57.94c14.39-1.37,29.58,3.08,41.3,11.34
			C280.5,186.89,285.29,190.93,287.84,193.69z"/>
	</g>
</g>
<g>
	<path class="st2" d="M167.09,197.87c-1.94-0.11-16.97-12.04-17.1-12.16c-7.32-6.62-15.41-17.05-16.15-26.45
		c-0.45-5.68,1.36-11.03,5.08-15.06c3.55-3.84,8.54-6.05,13.69-6.05c3.21,0,6.34,0.82,9.32,2.43c1.52,0.83,2.6,1.86,3.64,2.86
		c0.61,0.59,1.2,1.15,1.84,1.64c4.09-4.46,9.32-6.9,14.85-6.9c5.73,0,11.23,2.7,14.71,7.23c3.76,4.89,4.84,11.29,3.04,18.01
		c-4.36,16.37-23.9,29.39-32.09,34.23l-0.39,0.23L167.09,197.87z"/>
	<path class="st1" d="M152.61,139.66c2.82,0,5.75,0.7,8.61,2.25c2.67,1.44,3.93,3.78,6.48,5.14c4.22-5.12,9.52-7.36,14.57-7.36
		c10.51,0,19.95,9.71,16.31,23.36c-3.73,14.01-19.46,26.27-31.41,33.32c-1-0.06-14.48-10.24-16.17-11.77
		c-6.63-5.99-14.94-16.23-15.66-25.45C134.47,148.11,142.85,139.66,152.61,139.66 M152.61,136.66c-5.57,0-10.96,2.38-14.8,6.53
		c-4.01,4.34-5.96,10.09-5.47,16.19c0.78,9.84,9.11,20.63,16.64,27.44c1.04,0.94,5.26,4.17,8.57,6.62c7.87,5.83,8.47,5.86,9.45,5.92
		l0.91,0.05l0.78-0.46c8.36-4.93,28.28-18.23,32.78-35.13c1.92-7.19,0.74-14.05-3.3-19.31c-3.76-4.89-9.71-7.82-15.9-7.82
		c-5.52,0-10.74,2.24-14.96,6.35c-0.23-0.21-0.46-0.43-0.7-0.67c-1.06-1.02-2.26-2.18-3.96-3.1
		C159.45,137.54,156.07,136.66,152.61,136.66L152.61,136.66z"/>
</g>
<g>
	<path class="st3" d="M233.91,261.85v-35.58c0.39-0.18,0.77-0.36,1.13-0.53c4.57-2.12,7.09-3.28,9.57-9.46
		c0.43-1.08,0.98-3.32,1.55-5.69c0.43-1.78,1.07-4.43,1.37-5.1c0.04-0.01,0.14-0.04,0.33-0.04c1.51,0,4.25,1.58,5.23,2.44
		c4.51,3.94,3.08,9.25,1.56,14.88c-0.29,1.06-0.57,2.12-0.81,3.15l-0.43,1.84h16.34c0.86,0.24,3.88,2.35,4.39,3.09
		c0.89,1.28,1.35,3.03,1.25,4.82c-0.15,2.85-3.82,20.25-4.62,21.91c-0.97,2-4.44,4.28-6.51,4.28H233.91z"/>
	<path class="st1" d="M248.59,207.09c1.14,0.36,2.8,1.3,3.51,1.92c3.62,3.16,2.78,7.13,1.09,13.35c-0.28,1.05-0.58,2.13-0.83,3.2
		l-0.86,3.68h3.78h14.16c0.88,0.41,2.94,1.87,3.48,2.49c0.68,0.99,1.03,2.43,0.96,3.85c-0.14,2.67-3.66,19.45-4.47,21.34
		c-0.71,1.47-3.66,3.43-5.16,3.43h-28.85v-33.12c0.09-0.04,0.18-0.08,0.26-0.12c4.76-2.2,7.63-3.53,10.33-10.27
		c0.44-1.1,0.9-2.96,1.61-5.9C247.9,209.76,248.29,208.16,248.59,207.09 M247.85,203.95c-0.65,0-1.2,0.19-1.54,0.65
		c-0.67,0.89-2.24,9.01-3.09,11.13c-2.57,6.4-4.87,6.75-10.81,9.6v38.03h31.85c2.69,0,6.66-2.64,7.86-5.12
		c1-2.07,4.63-19.79,4.77-22.49c0.1-1.98-0.37-4.11-1.52-5.75c-0.73-1.05-4.51-3.73-5.54-3.73h-14.53
		c1.55-6.64,4.95-14.12-1.22-19.5C253.02,205.83,249.91,203.95,247.85,203.95L247.85,203.95z"/>
</g>
<g>
	<path class="st1" d="M220.85,220.97c3.09,0,6.21,1.1,6.59,3.14c-0.82,12.99,1.15,27.39,0.04,40.2c-0.09,1.01-0.08,2.46-0.8,3.22
		c-0.62,0.66-2.98,1.09-5.44,1.09c-3.17,0-6.53-0.72-6.62-2.6l-0.18-41.34C214.53,222.14,217.67,220.97,220.85,220.97
		 M220.85,217.97c-5.5,0-9.28,2.65-9.41,6.61l0,0.06l0,0.06l0.18,41.34l0,0.06l0,0.06c0.07,1.64,1.16,5.46,9.62,5.46
		c2.13,0,5.94-0.26,7.61-2.02c1.37-1.44,1.5-3.36,1.59-4.64c0.01-0.13,0.02-0.26,0.03-0.39c0.6-6.9,0.32-14.27,0.06-21.4
		c-0.23-6.31-0.48-12.84-0.09-18.87l0.02-0.37l-0.07-0.37C229.67,219.69,225.08,217.97,220.85,217.97L220.85,217.97z"/>
</g>
</svg>
