<?xml version="1.0" encoding="UTF-8"?><svg id="Layer_1" xmlns="http://www.w3.org/2000/svg" viewBox="0 0 400 400"><defs><style>.cls-1{fill:#7375f9;}</style></defs><g id="D1gRtv"><path class="cls-1" d="M167.29,227.69c-11.99,0-23.85-3.25-34.29-9.6-2.28.54-4.96,1.63-7.56,2.69-3.28,1.34-6.68,2.72-9.56,3.13-2.55.36-4.92-.35-6.68-2-1.87-1.76-2.82-4.38-2.6-7.2.19-2.46,1.66-6.07,3.09-9.57,1.14-2.8,2.56-6.28,2.48-7.5-.12-.56-1.5-2.97-2.32-4.42-.83-1.45-1.62-2.82-1.98-3.69-8.38-19.7-6.91-41.37,4.03-59.46,10.77-17.8,28.91-28.98,49.78-30.66,23.21-1.87,45.14,8.2,58.68,26.95,13.11,18.15,15.7,41.38,6.92,62.12-7.28,17.2-21.8,30.36-39.83,36.08-6.6,2.1-13.39,3.13-20.15,3.13ZM133.56,214.9l.5.31c15.68,9.73,34.8,12.09,52.47,6.48,17.2-5.46,31.04-18,37.98-34.39,8.37-19.77,5.9-41.9-6.59-59.19-12.92-17.89-33.86-27.5-56.01-25.71h0c-19.89,1.61-37.19,12.26-47.45,29.23-10.44,17.25-11.83,37.93-3.83,56.73.3.7,1.08,2.06,1.83,3.37,1.83,3.2,2.64,4.71,2.71,5.69.14,1.92-1.17,5.13-2.69,8.85-1.28,3.13-2.72,6.67-2.88,8.66-.15,1.9.46,3.65,1.67,4.78,1.1,1.03,2.55,1.45,4.21,1.22,2.51-.35,5.73-1.67,8.84-2.93,2.94-1.2,5.99-2.44,8.67-2.98l.58-.12Z"/><path class="cls-1" d="M240.38,300.12c-14.05,0-27.91-4.58-39.51-13.41-17.36-13.22-26.67-33.99-24.91-55.55l.1-1.17,1.16-.18c29.54-4.69,52.6-27.48,57.38-56.7l.19-1.14,1.15-.11c14.47-1.38,29.89,2.85,42.31,11.61,3.02,2.13,7.97,6.26,10.71,9.22,16.94,18.33,21.31,45.5,11.11,69.21-.36.83-1.14,2.21-1.97,3.66-.83,1.46-2.23,3.9-2.36,4.52-.06,1.06,1.54,4.96,2.71,7.81,1.42,3.47,2.77,6.75,3.06,8.87.38,2.73-.43,5.36-2.22,7.23-1.71,1.79-4.08,2.64-6.65,2.39-2.19-.21-5.94-1.72-9.9-3.32-2.87-1.16-6.81-2.72-7.72-2.68-.71.12-4.03,1.81-6.23,2.92-2.42,1.23-4.7,2.38-6.02,2.86-7.3,2.67-14.87,3.97-22.38,3.97ZM178.86,232.56c-1.25,20.12,7.6,39.4,23.83,51.76,16.98,12.94,39.05,16.3,59.04,9,1.14-.42,3.45-1.59,5.69-2.72,4.27-2.16,6.25-3.12,7.29-3.23,1.52-.15,4.32.94,9.14,2.88,3.43,1.38,7.31,2.95,9.07,3.12,1.65.16,3.14-.37,4.2-1.48,1.15-1.2,1.67-2.93,1.42-4.74-.24-1.75-1.64-5.14-2.87-8.14-1.89-4.6-3.03-7.52-2.92-9.22.06-.95.88-2.48,2.74-5.74.75-1.32,1.53-2.68,1.82-3.36,9.73-22.62,5.58-48.53-10.56-65.99h0c-2.6-2.82-7.34-6.76-10.23-8.8-11.34-8-25.9-12.13-39.15-11.17-5.33,29.56-28.63,52.59-58.49,57.83Z"/></g><path class="cls-1" d="M151,184.6c1.69,1.53,15.17,11.71,16.17,11.77,11.95-7.05,27.67-19.31,31.41-33.32,5.38-20.21-17.88-31.78-30.88-16-2.55-1.36-3.81-3.69-6.48-5.14-12.76-6.91-27.01,3.01-25.89,17.23.73,9.23,9.04,19.46,15.66,25.45Z"/><path class="cls-1" d="M255.29,226.25c1.55-6.64,4.95-14.12-1.22-19.5-1.39-1.21-6.31-4.09-7.76-2.16-.67.89-2.24,9.01-3.09,11.13-2.57,6.4-4.87,6.75-10.81,9.6v38.03h31.85c2.69,0,6.66-2.64,7.86-5.12,1-2.07,4.63-19.79,4.77-22.49.1-1.98-.37-4.11-1.52-5.75-.73-1.05-4.51-3.73-5.54-3.73h-14.53Z"/><path class="cls-1" d="M226.68,267.52c.72-.76.72-2.2.8-3.22,1.11-12.82-.86-27.21-.04-40.2-.77-4.12-12.84-4.43-13,.57l.18,41.34c.15,3.34,10.63,3.01,12.06,1.51Z"/></svg>