<?xml version="1.0" encoding="utf-8"?>
<!-- Generator: Adobe Illustrator 27.0.0, SVG Export Plug-In . SVG Version: 6.00 Build 0)  -->
<svg version="1.1" id="Layer_1" xmlns="http://www.w3.org/2000/svg" xmlns:xlink="http://www.w3.org/1999/xlink" x="0px" y="0px"
	 viewBox="0 0 400 400" style="enable-background:new 0 0 400 400;" xml:space="preserve">
<style type="text/css">
	.st0{fill:#2A92C6;}
	.st1{fill:#D1D3D4;}
	.st2{fill:#7136F2;}
	.st3{fill:#FFF3AC;}
	.st4{fill:none;stroke:#D1D3D4;stroke-width:3;stroke-miterlimit:10;}
	.st5{fill:#D1D3D4;stroke:#D1D3D4;stroke-width:3;stroke-miterlimit:10;}
	.st6{fill:#D1D3D4;stroke:#D1D3D4;stroke-miterlimit:10;}
	.st7{fill:#2A92C6;stroke:#D1D3D4;stroke-width:3;stroke-miterlimit:10;}
	.st8{fill:#7136F2;stroke:#D1D3D4;stroke-miterlimit:10;}
	.st9{fill:none;stroke:#D1D3D4;stroke-miterlimit:10;}
	.st10{fill:#2A92C6;stroke:#D1D3D4;stroke-width:2;stroke-miterlimit:10;}
	.st11{fill:#7136F2;stroke:#D1D3D4;stroke-width:2;stroke-miterlimit:10;}
	.st12{fill:#FFF3AC;stroke:#D1D3D4;stroke-width:3;stroke-miterlimit:10;}
	.st13{fill:none;stroke:#D1D3D4;stroke-width:2.6827;stroke-miterlimit:10;}
	.st14{fill:#7136F2;stroke:#D1D3D4;stroke-width:3;stroke-miterlimit:10;}
	.st15{fill:none;stroke:#D1D3D4;stroke-width:2;stroke-miterlimit:10;}
	.st16{fill:#003366;}
	.st17{fill:none;stroke:#7136F2;stroke-miterlimit:10;}
	.st18{fill:none;stroke:#003366;stroke-miterlimit:10;}
	.st19{fill:none;stroke:#2A92C6;stroke-miterlimit:10;}
	.st20{fill:none;stroke:#FFF3AC;stroke-miterlimit:10;}
	.st21{fill:#7136F2;stroke:#7136F2;stroke-miterlimit:10;}
	.st22{fill:#003366;stroke:#003366;stroke-miterlimit:10;}
	.st23{fill:#2A92C6;stroke:#2A92C6;stroke-miterlimit:10;}
	.st24{fill:#FFF3AC;stroke:#FFF3AC;stroke-miterlimit:10;}
</style>
<g id="jsk1I4_00000150069434713515565580000011421396979011196592_">
	<g>
		<path class="st13" d="M192.87,243.96c1.03,0,2.06,0,3.09,0c3.09,0,6.17,0.08,9.26-0.02c3.03-0.1,6.05,0.17,9.09,0.13
			c19.94-0.22,39.89-0.18,59.84-0.05c3.34,0.02,5.7-2.74,5.69-5.72c-0.06-35.21-0.05-70.41-0.01-105.62c0-3.28-2.41-5.69-5.69-5.69
			c-53.04,0.04-106.08,0.04-159.11,0c-3.28,0-5.69,2.41-5.69,5.69c0.05,35.32,0.03,70.64,0.03,105.96c0,3.2,2.2,5.31,5.48,5.31
			c20,0,40.01,0,60.01,0c0.29,0,0.61-0.09,0.85,0.01c2.52,1.03,5.03-0.32,7.55-0.01"/>
		<path class="st13" d="M268.48,192.7c0.59,0.95,0.69,1.99,0.69,3.09c-0.01,9.6-0.04,19.2,0.02,28.8c0.02,2.56-0.84,3.28-3.28,3.28
			c-47.55-0.03-95.1-0.02-142.65-0.02c-2.77,0-3.26-0.49-3.26-3.26c0-9.49-0.09-18.98,0.06-28.46c0.03-2.18,0.01-4.34,0-6.52
			c-0.12-15.89-0.03-31.78-0.1-47.66c-0.01-2.3,0.99-3.33,3.29-3.29c5.71,0.1,11.43-0.09,17.14,0.1c2.18,0.07,4.34,0,6.52,0
			c39.66-0.08,79.33-0.05,118.99-0.09c2.3,0,3.3,0.99,3.29,3.29c-0.06,15.77-0.04,31.55-0.02,47.32c0,1.16-0.24,2.22-0.7,3.26"/>
		<path class="st13" d="M177.95,262.14c-1.09,0.5-2.22,0.73-3.43,0.7c-2-0.05-4-0.02-6-0.01c-2.47,0.01-4.29,1.68-4.29,3.94
			c0,2.22,1.86,3.94,4.29,3.94c17.37,0,34.75,0,52.12,0c2.43,0,4.29-1.72,4.29-3.94c0-2.26-1.81-3.93-4.29-3.94
			c-2.17-0.01-4.37,0.21-6.51-0.06c-2.09-0.26-4.11-0.05-6.18-0.01c-8.91,0.17-17.83,0.07-26.75,0.08c-1.04,0-1.98-0.3-2.91-0.7"/>
		<path class="st14" d="M218.24,168.52c0.03-1.72-1.01-2.64-2.39-3.45c-6.1-3.56-12.25-7.06-18.36-10.61
			c-3.94-2.29-7.92-4.52-11.83-6.86c-3.03-1.81-5.7,0.25-5.68,3.43c0.06,11.66,0.01,23.32,0.03,34.98c0,3.34,2.74,4.91,5.65,3.25
			c10.07-5.75,20.05-11.67,30.16-17.35c1.17-0.66,2.39-1.57,2.42-3.22"/>
		<path class="st13" d="M262.31,202.81c-25.6,0-51.21,0-76.81,0"/>
		<path class="st13" d="M225.96,215.5c-22.18,0-44.35,0-66.53,0"/>
		<path class="st13" d="M244.13,148.29c0,13.2,0.05,26.4-0.03,39.61c-0.02,3.49,1.74,4.75,4.66,4.68
			c6.51-0.16,13.03-0.05,19.55-0.05"/>
		<path class="st13" d="M171.78,202.81c-14.92,0-29.83,0-44.75,0"/>
		<path class="st13" d="M143.66,139.55c0,9.77,0.07,19.55-0.05,29.32c-0.03,2.23-0.15,4.44-0.02,6.69
			c0.24,4.27,0.07,8.57,0.07,12.86c0,2.9-1.53,4.44-4.46,4.45c-6.12,0.02-12.23,0.01-18.35,0.01"/>
		<path class="st13" d="M262.31,215.42c-7.54,0.2-15.09,0.03-22.63,0.09"/>
		<path class="st13" d="M145.72,215.5c-4.46,0-8.92-0.01-13.37,0c-1.95,0.01-3.89,0-5.83-0.26"/>
		<path class="st12" d="M185.32,202.81c-0.65-2.14-1.34-4.33-3.44-5.46c-2.83-1.52-6.96-0.86-8.75,2.53
			c-1.67,3.16-0.65,6.64,2.59,8.41c2.97,1.62,7.21,0.41,8.45-2.56c0.38-0.92,0.66-1.89,1.15-2.76"/>
		<path class="st7" d="M145.89,215.67c0.63,1.76,1.43,3.38,2.9,4.64c3.14,2.69,7.54,1,8.91-1.22c0.59-0.96,1.14-1.98,1.37-3.08
			c0.33-1.64-0.5-3.09-1.39-4.25c-3.4-4.39-9.27-2.84-10.92,1.34c-0.31,0.79-0.65,1.57-0.86,2.4"/>
		<path class="st7" d="M226.13,215.67c0.78,1.66,1.4,3.38,2.9,4.65c3.15,2.67,7.55,0.99,8.92-1.23c0.59-0.96,1.14-1.98,1.37-3.08
			c0.33-1.64-0.5-3.09-1.39-4.25c-3.4-4.39-9.27-2.84-10.92,1.34c-0.31,0.79-0.65,1.57-0.86,2.4"/>
		<path class="st13" d="M178.29,244.82c0,4.69,0,9.37,0,14.06c0,1.03,0.05,2.07-0.17,3.09"/>
		<path class="st13" d="M210.87,244.82c0,4.69,0,9.37,0,14.06c0,1.03-0.05,2.07,0.17,3.09"/>
		<path class="st13" d="M142.8,172.29c-4,0-8,0-12,0"/>
	</g>
</g>
</svg>
