<?xml version="1.0" encoding="utf-8"?>
<!-- Generator: Adobe Illustrator 27.0.0, SVG Export Plug-In . SVG Version: 6.00 Build 0)  -->
<svg version="1.1" id="Layer_1" xmlns="http://www.w3.org/2000/svg" xmlns:xlink="http://www.w3.org/1999/xlink" x="0px" y="0px"
	 viewBox="0 0 400 400" style="enable-background:new 0 0 400 400;" xml:space="preserve">
<style type="text/css">
	.st0{fill:#2A92C6;}
	.st1{fill:#D1D3D4;}
	.st2{fill:#7136F2;}
	.st3{fill:#FFF3AC;}
	.st4{fill:none;stroke:#D1D3D4;stroke-width:3;stroke-miterlimit:10;}
	.st5{fill:#D1D3D4;stroke:#D1D3D4;stroke-width:3;stroke-miterlimit:10;}
	.st6{fill:#D1D3D4;stroke:#D1D3D4;stroke-miterlimit:10;}
	.st7{fill:#2A92C6;stroke:#D1D3D4;stroke-width:3;stroke-miterlimit:10;}
	.st8{fill:#7136F2;stroke:#D1D3D4;stroke-miterlimit:10;}
	.st9{fill:none;stroke:#D1D3D4;stroke-miterlimit:10;}
	.st10{fill:#2A92C6;stroke:#D1D3D4;stroke-width:2;stroke-miterlimit:10;}
	.st11{fill:#7136F2;stroke:#D1D3D4;stroke-width:2;stroke-miterlimit:10;}
	.st12{fill:#FFF3AC;stroke:#D1D3D4;stroke-width:3;stroke-miterlimit:10;}
	.st13{fill:none;stroke:#D1D3D4;stroke-width:2.6827;stroke-miterlimit:10;}
	.st14{fill:#7136F2;stroke:#D1D3D4;stroke-width:3;stroke-miterlimit:10;}
	.st15{fill:none;stroke:#D1D3D4;stroke-width:2;stroke-miterlimit:10;}
	.st16{fill:#003366;}
	.st17{fill:none;stroke:#7136F2;stroke-miterlimit:10;}
	.st18{fill:none;stroke:#003366;stroke-miterlimit:10;}
	.st19{fill:none;stroke:#2A92C6;stroke-miterlimit:10;}
	.st20{fill:none;stroke:#FFF3AC;stroke-miterlimit:10;}
	.st21{fill:#7136F2;stroke:#7136F2;stroke-miterlimit:10;}
	.st22{fill:#003366;stroke:#003366;stroke-miterlimit:10;}
	.st23{fill:#2A92C6;stroke:#2A92C6;stroke-miterlimit:10;}
	.st24{fill:#FFF3AC;stroke:#FFF3AC;stroke-miterlimit:10;}
</style>
<g>
	<g>
		<rect x="103" y="194" class="st4" width="93" height="93"/>
		<g>
			<rect x="157.54" y="254.35" class="st3" width="26.06" height="18.8"/>
			<path class="st1" d="M182.1,255.85v15.8h-23.06v-15.8H182.1 M185.1,252.85h-29.06v21.8h29.06V252.85L185.1,252.85z"/>
		</g>
		<g>
			<polygon class="st0" points="149.48,235.09 135.87,243.24 135.87,195.5 162.62,195.5 162.62,243.3 			"/>
			<path class="st1" d="M161.12,197v43.59l-11.62-7.27l-12.13,7.27V197H161.12 M164.12,194h-3h-23.76h-3v3v43.59v5.29l4.54-2.72
				l10.56-6.32l10.07,6.29l4.59,2.87v-5.41V197V194L164.12,194z"/>
		</g>
	</g>
	<g>
		<rect x="203" y="194" class="st4" width="93" height="93"/>
		<g>
			<rect x="257.54" y="254.35" class="st3" width="26.06" height="18.8"/>
			<path class="st1" d="M282.1,255.85v15.8h-23.06v-15.8H282.1 M285.1,252.85h-29.06v21.8h29.06V252.85L285.1,252.85z"/>
		</g>
		<g>
			<polygon class="st0" points="249.48,235.09 235.87,243.24 235.87,195.5 262.62,195.5 262.62,243.3 			"/>
			<g>
				<path class="st1" d="M261.12,197v43.59l-11.62-7.27l-12.13,7.27V197H261.12 M264.12,194h-3h-23.76h-3v3v43.59v5.29l4.54-2.72
					l10.56-6.32l10.07,6.29l4.59,2.87v-5.41V197V194L264.12,194z"/>
			</g>
		</g>
	</g>
	<g>
		<rect x="151" y="96" class="st4" width="93" height="93"/>
		<g>
			<rect x="205.54" y="156.35" class="st3" width="26.06" height="18.8"/>
			<path class="st1" d="M230.1,157.85v15.8h-23.06v-15.8H230.1 M233.1,154.85h-29.06v21.8h29.06V154.85L233.1,154.85z"/>
		</g>
		<g>
			<polygon class="st2" points="197.48,136.09 183.87,144.24 183.87,96.5 210.62,96.5 210.62,144.3 			"/>
			<path class="st1" d="M209.12,98v43.59l-11.62-7.27l-12.13,7.27V98H209.12 M212.12,95h-3h-23.76h-3v3v43.59v5.29l4.54-2.72
				l10.56-6.32l10.07,6.29l4.59,2.87v-5.41V98V95L212.12,95z"/>
		</g>
	</g>
</g>
</svg>
