<?xml version="1.0" encoding="utf-8"?>
<!-- Generator: Adobe Illustrator 27.0.0, SVG Export Plug-In . SVG Version: 6.00 Build 0)  -->
<svg version="1.1" id="Layer_1" xmlns="http://www.w3.org/2000/svg" xmlns:xlink="http://www.w3.org/1999/xlink" x="0px" y="0px"
	 viewBox="0 0 400 400" style="enable-background:new 0 0 400 400;" xml:space="preserve">
<style type="text/css">
	.st0{fill:#2A92C6;}
	.st1{fill:#D1D3D4;}
	.st2{fill:#7136F2;}
	.st3{fill:#FFF3AC;}
	.st4{fill:none;stroke:#D1D3D4;stroke-width:3;stroke-miterlimit:10;}
	.st5{fill:#D1D3D4;stroke:#D1D3D4;stroke-width:3;stroke-miterlimit:10;}
	.st6{fill:#D1D3D4;stroke:#D1D3D4;stroke-miterlimit:10;}
	.st7{fill:#2A92C6;stroke:#D1D3D4;stroke-width:3;stroke-miterlimit:10;}
	.st8{fill:#7136F2;stroke:#D1D3D4;stroke-miterlimit:10;}
	.st9{fill:none;stroke:#D1D3D4;stroke-miterlimit:10;}
	.st10{fill:#2A92C6;stroke:#D1D3D4;stroke-width:2;stroke-miterlimit:10;}
	.st11{fill:#7136F2;stroke:#D1D3D4;stroke-width:2;stroke-miterlimit:10;}
	.st12{fill:#FFF3AC;stroke:#D1D3D4;stroke-width:3;stroke-miterlimit:10;}
	.st13{fill:none;stroke:#D1D3D4;stroke-width:2.6827;stroke-miterlimit:10;}
	.st14{fill:#7136F2;stroke:#D1D3D4;stroke-width:3;stroke-miterlimit:10;}
	.st15{fill:none;stroke:#D1D3D4;stroke-width:2;stroke-miterlimit:10;}
	.st16{fill:#003366;}
	.st17{fill:none;stroke:#7136F2;stroke-miterlimit:10;}
	.st18{fill:none;stroke:#003366;stroke-miterlimit:10;}
	.st19{fill:none;stroke:#2A92C6;stroke-miterlimit:10;}
	.st20{fill:none;stroke:#FFF3AC;stroke-miterlimit:10;}
	.st21{fill:#7136F2;stroke:#7136F2;stroke-miterlimit:10;}
	.st22{fill:#003366;stroke:#003366;stroke-miterlimit:10;}
	.st23{fill:#2A92C6;stroke:#2A92C6;stroke-miterlimit:10;}
	.st24{fill:#FFF3AC;stroke:#FFF3AC;stroke-miterlimit:10;}
</style>
<g>
	<g>
		<g>
			<path class="st6" d="M284.47,282.11h-33.24c-1.02,0-1.85-0.83-1.85-1.85v-33.99c0-2.17-1.77-3.94-3.94-3.94s-3.94,1.77-3.94,3.94
				c0,1.02-0.83,1.85-1.85,1.85c-1.02,0-1.85-0.83-1.85-1.85v-8.26c0-2.17-1.77-3.94-3.94-3.94c-2.17,0-3.94,1.77-3.94,3.94
				c0,1.02-0.83,1.85-1.85,1.85c-1.02,0-1.85-0.83-1.85-1.85v-6.61c0-2.17-1.77-3.94-3.94-3.94c-2.17,0-3.94,1.77-3.94,3.94
				c0,1.02-0.83,1.85-1.85,1.85c-1.02,0-1.85-0.83-1.85-1.85v-26.6c0-2.17-1.77-3.94-3.94-3.94c-2.17,0-3.94,1.77-3.94,3.94v59.45
				c0,0.81-0.52,1.52-1.29,1.76c-0.77,0.24-1.61-0.04-2.07-0.71l-4.9-7.04c-0.73-0.68-1.67-1.05-2.68-1.05
				c-1.05,0-2.04,0.41-2.78,1.15c-1.54,1.54-1.54,4.04,0,5.57c0.12,0.12,0.22,0.25,0.31,0.4l8.34,14.89c0.2,0.3,0.32,0.65,0.32,1.04
				c0,1.02-0.83,1.85-1.85,1.85h-0.01h-85.61c-1.02,0-1.85-0.83-1.85-1.85V128.85c0-1.02,0.83-1.85,1.85-1.85h169.88
				c1.02,0,1.85,0.83,1.85,1.85v151.41C286.32,281.28,285.49,282.11,284.47,282.11z M253.08,278.41h29.54V130.69H116.44v147.72
				h80.61l-6.76-12.07c-2.78-2.99-2.72-7.68,0.19-10.59c1.44-1.44,3.36-2.24,5.4-2.24c2.04,0,3.95,0.8,5.39,2.24
				c0.08,0.08,0.15,0.16,0.21,0.25l1.64,2.35V204.8c0-4.21,3.42-7.63,7.63-7.63c4.21,0,7.63,3.42,7.63,7.63v20.07
				c1.15-0.7,2.5-1.1,3.94-1.1c4.21,0,7.63,3.42,7.63,7.63v0.08c1.15-0.7,2.5-1.1,3.94-1.1c4.21,0,7.63,3.42,7.63,7.63v1.73
				c1.15-0.7,2.5-1.1,3.94-1.1c4.2,0,7.63,3.42,7.63,7.63L253.08,278.41L253.08,278.41L253.08,278.41L253.08,278.41L253.08,278.41z"
				/>
		</g>
		<g>
			<path class="st6" d="M284.47,160.24H114.59c-1.02,0-1.85-0.83-1.85-1.85c0-1.02,0.83-1.85,1.85-1.85h169.88
				c1.02,0,1.85,0.83,1.85,1.85C286.32,159.41,285.49,160.24,284.47,160.24z"/>
		</g>
		<g>
			<path class="st6" d="M166.29,160.24c-1.02,0-1.85-0.83-1.85-1.85v-29.54c0-1.02,0.83-1.85,1.85-1.85c1.02,0,1.85,0.83,1.85,1.85
				v29.54C168.14,159.41,167.31,160.24,166.29,160.24z"/>
		</g>
		<g>
			<path class="st6" d="M284.47,145.46h-77.55c-1.02,0-1.85-0.83-1.85-1.85c0-1.02,0.83-1.85,1.85-1.85h77.55
				c1.02,0,1.85,0.83,1.85,1.85C286.32,144.64,285.49,145.46,284.47,145.46z"/>
		</g>
		<g>
			<path class="st6" d="M195.84,145.47c-0.49,0-0.96-0.2-1.31-0.54c-0.34-0.34-0.54-0.82-0.54-1.3c0-0.49,0.2-0.96,0.54-1.31
				c0.35-0.34,0.82-0.54,1.31-0.54c0.48,0,0.96,0.2,1.31,0.54c0.34,0.34,0.54,0.82,0.54,1.31c0,0.48-0.2,0.96-0.54,1.3
				C196.8,145.27,196.33,145.47,195.84,145.47z"/>
		</g>
		<g>
			<path class="st6" d="M284.47,263.64h-33.24c-1.02,0-1.85-0.83-1.85-1.85s0.83-1.85,1.85-1.85h33.24c1.02,0,1.85,0.83,1.85,1.85
				C286.32,262.81,285.49,263.64,284.47,263.64z"/>
		</g>
		<g>
			<path class="st6" d="M169.99,263.64h-55.4c-1.02,0-1.85-0.83-1.85-1.85s0.83-1.85,1.85-1.85h55.4c1.02,0,1.85,0.83,1.85,1.85
				C171.83,262.81,171.01,263.64,169.99,263.64z"/>
		</g>
		<g>
			<path class="st6" d="M239.67,254.23c-1.02,0-1.85-0.83-1.85-1.85v-6.11c0-1.02,0.83-1.85,1.85-1.85c1.02,0,1.85,0.83,1.85,1.85
				v6.11C241.51,253.41,240.69,254.23,239.67,254.23z"/>
		</g>
		<g>
			<path class="st6" d="M228.1,245.97c-1.02,0-1.85-0.83-1.85-1.85v-6.11c0-1.02,0.83-1.85,1.85-1.85c1.02,0,1.85,0.83,1.85,1.85
				v6.11C229.95,245.14,229.12,245.97,228.1,245.97z"/>
		</g>
		<g>
			<path class="st6" d="M216.53,239.36c-1.02,0-1.85-0.83-1.85-1.85v-6.45c0-1.02,0.83-1.85,1.85-1.85c1.02,0,1.85,0.83,1.85,1.85
				v6.45C218.38,238.53,217.55,239.36,216.53,239.36z"/>
		</g>
		<g>
			<g>
				<path class="st2" d="M216.53,213.44c-1.85,0-3.35-1.5-3.35-3.35v-5.3c0-1.34-1.09-2.44-2.44-2.44s-2.44,1.09-2.44,2.44v5.3
					c0,1.85-1.5,3.35-3.35,3.35h-12.82c-1.85,0-3.35-1.5-3.35-3.35v-22.16c0-1.85,1.5-3.35,3.35-3.35h36.93
					c1.85,0,3.35,1.5,3.35,3.35v22.16c0,1.85-1.5,3.35-3.35,3.35H216.53z"/>
				<path class="st1" d="M229.08,186.09c1.02,0,1.85,0.83,1.85,1.85v22.16c0,1.02-0.83,1.85-1.85,1.85h-12.54
					c-1.02,0-1.85-0.83-1.85-1.85v-5.3c0-2.17-1.76-3.94-3.94-3.94c-2.17,0-3.94,1.77-3.94,3.94v5.3c0,1.02-0.83,1.85-1.85,1.85
					h-12.82c-1.02,0-1.85-0.83-1.85-1.85v-22.16c0-1.02,0.83-1.85,1.85-1.85H229.08 M229.08,183.09h-36.93
					c-2.67,0-4.85,2.17-4.85,4.85v22.16c0,2.67,2.17,4.85,4.85,4.85h12.82c2.67,0,4.85-2.17,4.85-4.85v-5.3
					c0-0.52,0.42-0.94,0.94-0.94s0.94,0.42,0.94,0.94v5.3c0,2.67,2.17,4.85,4.85,4.85h12.54c1.29,0,2.51-0.5,3.43-1.42
					c0.92-0.92,1.42-2.13,1.42-3.43v-22.16C233.92,185.26,231.75,183.09,229.08,183.09L229.08,183.09z"/>
			</g>
		</g>
		<g>
			<path class="st12" d="M216.26,296.89c-9.4,0-14.2-9.4-14.67-10.38l-11.29-20.16c-1.32-1.42-2.05-3.25-2.05-5.2
				c0-2.04,0.79-3.95,2.23-5.39c1.44-1.44,3.36-2.24,5.4-2.24c2.04,0,3.95,0.79,5.39,2.24c0.08,0.08,0.15,0.16,0.21,0.25l1.64,2.35
				V204.8c0-4.21,3.42-7.63,7.63-7.63c4.21,0,7.63,3.42,7.63,7.63v20.07c1.15-0.7,2.5-1.1,3.94-1.1c4.21,0,7.63,3.42,7.63,7.63v0.08
				c1.15-0.7,2.5-1.1,3.94-1.1c4.21,0,7.63,3.42,7.63,7.63v1.73c1.15-0.7,2.5-1.1,3.94-1.1c4.21,0,7.63,3.42,7.63,7.63v40.26
				c0,3.86-1.77,10.34-13.63,10.34h-22.66C216.61,296.88,216.43,296.89,216.26,296.89z"/>
		</g>
		<g>
			<path class="st6" d="M284.65,200.98h-49.99c-0.92,0-1.67-0.85-1.67-1.91c0-1.05,0.75-1.91,1.67-1.91h49.99
				c0.92,0,1.67,0.85,1.67,1.91C286.32,200.13,285.57,200.98,284.65,200.98z"/>
		</g>
		<g>
			<path class="st6" d="M188.24,199.99H114.5c-0.97,0-1.76-0.63-1.76-1.41c0-0.78,0.79-1.41,1.76-1.41h73.74
				c0.97,0,1.76,0.63,1.76,1.41C190,199.36,189.21,199.99,188.24,199.99z"/>
		</g>
		<g>
			<path class="st6" d="M144.14,237.79h-29.54c-1.02,0-1.85-0.83-1.85-1.85c0-1.02,0.83-1.85,1.85-1.85h29.54
				c1.02,0,1.85,0.83,1.85,1.85C145.98,236.96,145.16,237.79,144.14,237.79z"/>
		</g>
		<g>
			<path class="st6" d="M203.22,237.79h-22.16c-1.02,0-1.85-0.83-1.85-1.85c0-1.02,0.83-1.85,1.85-1.85h22.16
				c1.02,0,1.85,0.83,1.85,1.85C205.07,236.96,204.24,237.79,203.22,237.79z"/>
		</g>
		<g>
			<path class="st6" d="M284.47,237.79h-22.16c-1.02,0-1.85-0.83-1.85-1.85c0-1.02,0.83-1.85,1.85-1.85h22.16
				c1.02,0,1.85,0.83,1.85,1.85C286.32,236.96,285.49,237.79,284.47,237.79z"/>
		</g>
		<rect x="125.67" y="139.92" class="st6" width="7.39" height="7.39"/>
		<rect x="136.75" y="139.92" class="st6" width="7.39" height="7.39"/>
		<rect x="147.83" y="139.92" class="st6" width="7.39" height="7.39"/>
		<rect x="243.85" y="169.47" class="st6" width="7.39" height="7.39"/>
		<rect x="232.77" y="169.47" class="st6" width="7.39" height="7.39"/>
		<rect x="221.69" y="169.47" class="st6" width="7.39" height="7.39"/>
		<rect x="254.93" y="169.47" class="st6" width="7.39" height="7.39"/>
		<rect x="266.01" y="169.47" class="st6" width="7.39" height="7.39"/>
		<g>
			<path class="st10" d="M181.07,248.87h-36.93c-1.02,0-1.85-0.83-1.85-1.85v-22.16c0-1.02,0.83-1.85,1.85-1.85h36.93
				c1.02,0,1.85,0.83,1.85,1.85v22.16C182.91,248.04,182.09,248.87,181.07,248.87z"/>
		</g>
	</g>
</g>
</svg>
