<?xml version="1.0" encoding="utf-8"?>
<!-- Generator: Adobe Illustrator 27.0.0, SVG Export Plug-In . SVG Version: 6.00 Build 0)  -->
<svg version="1.1" id="Layer_1" xmlns="http://www.w3.org/2000/svg" xmlns:xlink="http://www.w3.org/1999/xlink" x="0px" y="0px"
	 viewBox="0 0 400 400" style="enable-background:new 0 0 400 400;" xml:space="preserve">
<style type="text/css">
	.st0{fill:#2A92C6;}
	.st1{fill:#D1D3D4;}
	.st2{fill:#7136F2;}
	.st3{fill:#FFF3AC;}
	.st4{fill:none;stroke:#D1D3D4;stroke-width:3;stroke-miterlimit:10;}
	.st5{fill:#D1D3D4;stroke:#D1D3D4;stroke-width:3;stroke-miterlimit:10;}
	.st6{fill:#D1D3D4;stroke:#D1D3D4;stroke-miterlimit:10;}
	.st7{fill:#2A92C6;stroke:#D1D3D4;stroke-width:3;stroke-miterlimit:10;}
	.st8{fill:#7136F2;stroke:#D1D3D4;stroke-miterlimit:10;}
	.st9{fill:none;stroke:#D1D3D4;stroke-miterlimit:10;}
	.st10{fill:#2A92C6;stroke:#D1D3D4;stroke-width:2;stroke-miterlimit:10;}
	.st11{fill:#7136F2;stroke:#D1D3D4;stroke-width:2;stroke-miterlimit:10;}
	.st12{fill:#FFF3AC;stroke:#D1D3D4;stroke-width:3;stroke-miterlimit:10;}
	.st13{fill:none;stroke:#D1D3D4;stroke-width:2.6827;stroke-miterlimit:10;}
	.st14{fill:#7136F2;stroke:#D1D3D4;stroke-width:3;stroke-miterlimit:10;}
	.st15{fill:none;stroke:#D1D3D4;stroke-width:2;stroke-miterlimit:10;}
	.st16{fill:#003366;}
	.st17{fill:none;stroke:#7136F2;stroke-miterlimit:10;}
	.st18{fill:none;stroke:#003366;stroke-miterlimit:10;}
	.st19{fill:none;stroke:#2A92C6;stroke-miterlimit:10;}
	.st20{fill:none;stroke:#FFF3AC;stroke-miterlimit:10;}
	.st21{fill:#7136F2;stroke:#7136F2;stroke-miterlimit:10;}
	.st22{fill:#003366;stroke:#003366;stroke-miterlimit:10;}
	.st23{fill:#2A92C6;stroke:#2A92C6;stroke-miterlimit:10;}
	.st24{fill:#FFF3AC;stroke:#FFF3AC;stroke-miterlimit:10;}
</style>
<g>
	<g>
		<g>
			<g>
				<g>
					<path class="st1" d="M174.46,178.11c0.06,0,0.12,0,0.19,0c0.49,0.02,0.89,0.39,0.96,0.87c0.07,0.44,0.24,0.8,0.54,1.1
						c0.27,0.27,0.66,0.46,1.1,0.52c0.48,0.07,0.84,0.48,0.86,0.96c0.02,0.39-0.03,0.8-0.14,1.17c-0.17,0.59-0.48,1.11-0.92,1.55
						c-0.49,0.49-0.97,0.97-1.45,1.45c-0.2,0.2-0.46,0.3-0.72,0.3c-0.26,0-0.52-0.1-0.72-0.3c-0.4-0.4-0.39-1.04,0.01-1.44
						c0.47-0.46,0.95-0.94,1.43-1.43c0.15-0.15,0.27-0.32,0.34-0.5c-0.47-0.19-0.89-0.47-1.25-0.82c-0.36-0.37-0.64-0.79-0.84-1.25
						c-0.19,0.08-0.35,0.19-0.5,0.34c-0.49,0.48-0.97,0.96-1.43,1.43c-0.2,0.21-0.46,0.31-0.73,0.31c-0.26,0-0.51-0.1-0.71-0.29
						c-0.4-0.39-0.41-1.04-0.02-1.44c0.47-0.49,0.96-0.97,1.45-1.46c0.45-0.45,1-0.78,1.58-0.92
						C173.79,178.16,174.12,178.11,174.46,178.11 M174.46,176.11L174.46,176.11c-0.51,0-1.02,0.07-1.49,0.21
						c-0.91,0.24-1.76,0.73-2.46,1.44c-0.49,0.48-0.99,0.98-1.48,1.48c-0.56,0.58-0.86,1.34-0.85,2.15
						c0.01,0.81,0.34,1.56,0.92,2.12c0.56,0.55,1.31,0.85,2.1,0.85c0.25,0,0.5-0.03,0.75-0.09c-0.06,0.24-0.09,0.48-0.09,0.73
						c0,0.81,0.31,1.57,0.88,2.14c0.57,0.57,1.33,0.89,2.14,0.89c0.8,0,1.56-0.31,2.12-0.88c0.48-0.47,0.97-0.96,1.46-1.46
						c0.67-0.67,1.16-1.49,1.42-2.4c0.16-0.58,0.24-1.2,0.21-1.8c-0.06-1.42-1.12-2.61-2.52-2.85c-0.25-1.41-1.42-2.45-2.83-2.52
						C174.65,176.11,174.56,176.11,174.46,176.11L174.46,176.11z"/>
				</g>
			</g>
			<g>
				<g>
					<path class="st1" d="M171.21,180.32c0.26,0,0.52,0.1,0.72,0.3c0.4,0.4,0.4,1.04,0,1.44c-0.34,0.34-1.64,1.67-2.5,2.55
						l2.17,2.18c0.3-0.29,0.66-0.64,1.01-0.98l1.55-1.52c0.2-0.2,0.46-0.29,0.72-0.29c0.26,0,0.52,0.1,0.73,0.3
						c0.39,0.4,0.39,1.04-0.01,1.44l-1.56,1.53c-0.73,0.71-1.48,1.45-1.72,1.68c-0.2,0.2-0.46,0.3-0.72,0.3
						c-0.26,0-0.52-0.1-0.72-0.3l-3.59-3.6c-0.39-0.39-0.4-1.03-0.01-1.43l0.69-0.71c0.86-0.88,2.18-2.23,2.52-2.58
						C170.69,180.42,170.95,180.32,171.21,180.32 M171.21,178.32c-0.81,0-1.56,0.31-2.13,0.88c-0.35,0.35-1.68,1.71-2.54,2.6
						l-0.69,0.71c-1.15,1.17-1.14,3.08,0.02,4.24l3.59,3.6c0.57,0.57,1.33,0.89,2.14,0.89c0.8,0,1.56-0.31,2.12-0.88
						c0.23-0.23,0.98-0.96,1.71-1.67l1.57-1.53c1.19-1.18,1.2-3.09,0.04-4.28c-0.58-0.58-1.34-0.9-2.15-0.9
						c-0.25,0-0.5,0.03-0.75,0.09c0.06-0.24,0.09-0.49,0.09-0.75c0-0.81-0.32-1.57-0.89-2.13
						C172.77,178.63,172.02,178.32,171.21,178.32L171.21,178.32z"/>
				</g>
			</g>
			<g>
				<g>
					<path class="st1" d="M168.05,183.59c0.28,0,0.49,0.12,0.67,0.3l3.59,3.6c0.19,0.19,0.3,0.46,0.3,0.73
						c0,0.27-0.12,0.53-0.31,0.72c-7.22,6.94-13.1,11.87-16.55,13.89c-1.61,0.93-1.98,1-2.3,1c-0.27,0-0.58-0.12-0.76-0.31
						c-0.64-0.71-0.23-1.5,0.69-3.06c1.99-3.43,6.93-9.32,13.89-16.56c0.19-0.2,0.45-0.31,0.73-0.31
						C168.01,183.59,168.03,183.59,168.05,183.59 M155.82,200.39c2.39-1.59,5.77-4.35,9.75-7.94c1.45-1.31,2.98-2.73,4.57-4.24
						l-2.12-2.13C162.32,192.04,157.99,197.13,155.82,200.39 M168.05,181.59c-0.05,0-0.09,0-0.14,0c-0.79,0.02-1.55,0.36-2.09,0.93
						c-7.07,7.36-12.11,13.38-14.18,16.94c-0.93,1.59-2.09,3.58-0.45,5.41l0.04,0.04l0.04,0.04c0.56,0.55,1.37,0.88,2.17,0.88
						c0.85,0,1.59-0.28,3.3-1.27c3.6-2.1,9.61-7.14,16.94-14.18c0.58-0.56,0.92-1.34,0.93-2.14c0-0.81-0.32-1.6-0.88-2.16l-3.59-3.6
						C169.41,181.75,168.6,181.59,168.05,181.59L168.05,181.59z"/>
				</g>
			</g>
			<g>
				<g>
					<path class="st1" d="M217.43,174.97c0.27,0,0.55,0.11,0.75,0.33l5.96,6.45c0.18,0.2,0.28,0.46,0.27,0.73
						c-0.01,0.27-0.13,0.52-0.33,0.71l-22.94,21.19c-0.11,0.1-0.25,0.18-0.4,0.23l-9.62,2.9c-0.1,0.03-0.2,0.04-0.29,0.04
						c-0.28,0-0.55-0.12-0.75-0.33c-0.26-0.29-0.34-0.7-0.2-1.06l3.66-9.35c0.06-0.14,0.14-0.27,0.26-0.38l22.94-21.18
						C216.94,175.06,217.19,174.97,217.43,174.97 M217.43,172.97L217.43,172.97c-0.76,0-1.49,0.28-2.05,0.8l-22.94,21.19
						c-0.33,0.3-0.59,0.68-0.76,1.1l-3.67,9.37c-0.42,1.07-0.18,2.31,0.6,3.15c0.57,0.62,1.38,0.97,2.22,0.97
						c0.29,0,0.59-0.04,0.87-0.13l9.62-2.9c0.43-0.13,0.82-0.35,1.16-0.66l22.95-21.2c0.59-0.55,0.94-1.3,0.97-2.1
						c0.03-0.8-0.25-1.57-0.8-2.17l-5.96-6.45C219.08,173.33,218.27,172.97,217.43,172.97L217.43,172.97z"/>
				</g>
			</g>
			<g>
				<path class="st11" d="M176.8,184c-0.03,0-0.07,0-0.11,0c-0.01,0-0.03,0-0.04,0c-1.39-0.03-2.58-0.49-3.44-1.33
					c-0.86-0.88-1.31-2.06-1.33-3.45c-0.01-0.07-0.01-0.13-0.01-0.2c0.02-3.08,2.04-6.8,5.7-10.46c2-2,4.32-3.49,6.88-4.44
					c1.67-0.6,3.37-0.97,5.09-1.11c0.57-0.07,1.17,0.25,1.46,0.77c0.29,0.52,0.25,1.17-0.1,1.65c-1.59,2.16-1.62,4.27-1.65,6.51
					c-0.03,2.14-0.06,4.49-1.93,6.36C183.62,181.98,179.9,184,176.8,184z"/>
			</g>
		</g>
	</g>
	<g>
		<g>
			<g id="XMLID_00000103967498185315468830000015607871724501159838_">
				<g>
					<polygon class="st4" points="148.19,277.67 165.11,277.67 218.01,277.67 234.91,277.67 234.91,285.99 148.19,285.99 					"/>
					<polygon class="st4" points="210.23,251.2 218.01,277.67 165.11,277.67 172.89,251.2 					"/>
					<path class="st4" d="M117.23,234.23h148.64c4.23,0,7.68-3.11,7.68-6.9v15.74c0,4.45-4.09,8.13-9.09,8.13h-54.24h-37.34h-15.88
						h-38.36c-5,0-9.11-3.68-9.11-8.13v-15.74C109.55,231.12,113,234.23,117.23,234.23z"/>
				</g>
				<g>
					<path class="st4" d="M172.89,251.2h-15.88h-38.36c-5,0-9.11-3.68-9.11-8.13v-15.74v-78.2c0-4.47,4.11-8.13,9.11-8.13
						l85.34,0.07"/>
					<path class="st4" d="M255,141h9.47c5,0,9.09,3.65,9.09,8.13v78.2v15.74c0,4.45-4.09,8.13-9.09,8.13h-54.24"/>
					<path class="st4" d="M273.56,227.33c0,3.78-3.46,6.9-7.68,6.9H117.23c-4.23,0-7.69-3.11-7.69-6.9"/>
					<polyline class="st4" points="165.11,277.67 172.89,251.2 210.23,251.2 218.01,277.67 					"/>
					<polygon class="st4" points="218.01,277.67 234.91,277.67 234.91,285.99 148.19,285.99 148.19,277.67 165.11,277.67 					"/>
					<polygon class="st4" points="178.62,216.81 203.56,216.81 203.56,223.1 203.56,229.39 178.62,229.39 					"/>
					<polygon class="st4" points="242.84,219.9 255.45,219.9 255.45,226.26 242.84,226.26 242.84,223.1 					"/>
					<line class="st4" x1="203.56" y1="223.1" x2="242.84" y2="223.1"/>
					<polygon class="st4" points="139.28,219.9 126.64,219.9 126.64,226.26 139.28,226.26 139.28,223.1 					"/>
					<line class="st4" x1="178.52" y1="223.1" x2="139.28" y2="223.1"/>
				</g>
			</g>
		</g>
	</g>
</g>
<g>
	<path class="st0" d="M229.6,160.53c-1.01,0-1.89-0.75-2.04-1.75l-1.17-7.76c-0.85-0.18-1.69-0.41-2.52-0.67l-4.9,6.15
		c-0.4,0.49-0.98,0.77-1.61,0.77c-0.36,0-0.71-0.09-1.02-0.27l-4.16-2.4c-0.88-0.5-1.26-1.59-0.89-2.54l2.88-7.31
		c-0.64-0.58-1.25-1.19-1.83-1.83l-7.34,2.88c-0.23,0.09-0.49,0.14-0.75,0.14c-0.73,0-1.41-0.39-1.78-1.03l-2.4-4.15
		c-0.51-0.89-0.3-2,0.5-2.64l6.16-4.89c-0.26-0.82-0.49-1.65-0.67-2.5l-7.79-1.17c-1-0.15-1.75-1.02-1.75-2.03v-4.78
		c0-1.01,0.75-1.88,1.75-2.03l7.79-1.17c0.18-0.84,0.41-1.68,0.67-2.5l-6.16-4.88c-0.8-0.64-1.02-1.75-0.5-2.64l2.4-4.15
		c0.37-0.63,1.05-1.03,1.78-1.03c0.26,0,0.51,0.05,0.75,0.14l7.34,2.88c0.58-0.64,1.2-1.25,1.83-1.83l-2.88-7.31
		c-0.37-0.94,0.01-2.03,0.89-2.54l4.15-2.39c0.31-0.18,0.67-0.27,1.03-0.27c0.63,0,1.21,0.28,1.61,0.77l4.91,6.15
		c0.83-0.26,1.67-0.49,2.52-0.67l1.17-7.76c0.15-1,1.02-1.75,2.04-1.75h4.8c1.01,0,1.89,0.75,2.04,1.75l1.17,7.76
		c0.85,0.18,1.69,0.41,2.52,0.67l4.91-6.14c0.39-0.49,0.98-0.77,1.61-0.77c0.36,0,0.72,0.1,1.03,0.28l4.15,2.39
		c0.88,0.5,1.26,1.59,0.89,2.54l-2.88,7.31c0.64,0.58,1.25,1.19,1.84,1.83l7.33-2.88c0.23-0.09,0.49-0.14,0.75-0.14
		c0.73,0,1.41,0.39,1.78,1.03l2.4,4.15c0.51,0.88,0.29,2.01-0.5,2.64l-6.16,4.89c0.27,0.82,0.49,1.66,0.67,2.5l7.79,1.17
		c1,0.15,1.75,1.02,1.75,2.03v4.78c0,1.01-0.75,1.88-1.75,2.03l-7.79,1.17c-0.18,0.84-0.41,1.67-0.67,2.5l6.16,4.89
		c0.79,0.63,1.01,1.76,0.5,2.64l-2.4,4.15c-0.37,0.63-1.05,1.03-1.78,1.03l0,0c-0.26,0-0.52-0.05-0.77-0.15l-7.32-2.87
		c-0.58,0.64-1.2,1.25-1.84,1.83l2.88,7.31c0.37,0.94-0.01,2.03-0.89,2.54l-4.15,2.38c-0.31,0.18-0.67,0.27-1.02,0.27
		c-0.63,0-1.21-0.28-1.61-0.77l-4.91-6.14c-0.83,0.27-1.67,0.49-2.52,0.67l-1.17,7.76c-0.15,1-1.02,1.75-2.04,1.75H229.6z
		 M232,110.05c-8.35,0-15.14,6.77-15.14,15.09s6.79,15.09,15.14,15.09c8.35,0,15.14-6.77,15.14-15.09S240.34,110.05,232,110.05z"/>
	<path class="st1" d="M234.39,91.26c0.28,0,0.51,0.2,0.55,0.47l1.33,8.81c1.48,0.25,2.94,0.64,4.36,1.16l5.57-6.97
		c0.11-0.14,0.27-0.21,0.44-0.21c0.1,0,0.19,0.02,0.28,0.08l4.15,2.39c0.24,0.14,0.34,0.43,0.24,0.69l-3.27,8.3
		c1.15,0.96,2.22,2.02,3.19,3.18l8.32-3.26c0.07-0.03,0.14-0.04,0.2-0.04c0.19,0,0.38,0.1,0.48,0.28l2.4,4.15
		c0.14,0.24,0.08,0.54-0.14,0.71l-6.99,5.55c0.52,1.41,0.91,2.87,1.17,4.34l8.84,1.33c0.27,0.04,0.48,0.28,0.48,0.55v4.78
		c0,0.28-0.2,0.51-0.48,0.55l-8.84,1.33c-0.25,1.47-0.64,2.92-1.17,4.34l6.99,5.55c0.22,0.17,0.27,0.48,0.14,0.71l-2.4,4.15
		c-0.1,0.18-0.29,0.28-0.48,0.28c-0.07,0-0.14-0.01-0.21-0.04l-8.32-3.26c-0.97,1.15-2.03,2.22-3.19,3.18l3.27,8.3
		c0.1,0.26,0,0.55-0.24,0.69l-4.15,2.38c-0.09,0.05-0.18,0.07-0.28,0.07c-0.17,0-0.33-0.07-0.44-0.21l-5.57-6.96
		c-1.42,0.52-2.88,0.91-4.36,1.16l-1.33,8.81c-0.04,0.27-0.28,0.47-0.55,0.47h-4.8c-0.28,0-0.51-0.2-0.55-0.47l-1.33-8.81
		c-1.48-0.25-2.94-0.64-4.35-1.16l-5.56,6.97c-0.11,0.14-0.27,0.21-0.44,0.21c-0.1,0-0.19-0.02-0.28-0.07l-4.16-2.39
		c-0.24-0.14-0.34-0.43-0.24-0.69l3.27-8.3c-1.15-0.95-2.21-2.02-3.18-3.18l-8.32,3.26c-0.07,0.03-0.14,0.04-0.2,0.04
		c-0.19,0-0.38-0.1-0.48-0.28l-2.4-4.15c-0.14-0.24-0.08-0.54,0.14-0.71l6.99-5.55c-0.52-1.4-0.91-2.86-1.17-4.34l-8.83-1.33
		c-0.27-0.04-0.48-0.28-0.48-0.55v-4.78c0-0.28,0.2-0.51,0.48-0.55l8.83-1.33c0.26-1.47,0.65-2.93,1.17-4.34l-6.99-5.54
		c-0.22-0.17-0.27-0.48-0.14-0.71l2.4-4.15c0.1-0.18,0.29-0.28,0.48-0.28c0.07,0,0.14,0.01,0.2,0.04l8.32,3.26
		c0.97-1.16,2.04-2.22,3.18-3.18l-3.27-8.3c-0.1-0.26,0-0.55,0.24-0.69l4.16-2.39c0.09-0.05,0.18-0.07,0.28-0.07
		c0.17,0,0.33,0.07,0.44,0.21l5.57,6.97c1.41-0.52,2.87-0.91,4.35-1.16l1.33-8.81c0.04-0.27,0.28-0.47,0.55-0.47H234.39
		 M231.99,141.74c9.18,0,16.64-7.44,16.64-16.59c0-9.15-7.47-16.59-16.64-16.59c-9.17,0-16.64,7.44-16.64,16.59
		C215.36,134.29,222.82,141.74,231.99,141.74 M234.39,88.26h-4.8c-1.75,0-3.26,1.3-3.52,3.03l-1.02,6.75
		c-0.21,0.05-0.43,0.11-0.64,0.17l-4.27-5.35c-0.68-0.85-1.7-1.34-2.78-1.34c-0.62,0-1.24,0.16-1.77,0.47l-4.16,2.39
		c-1.51,0.87-2.18,2.75-1.54,4.38l2.51,6.37c-0.16,0.15-0.31,0.31-0.46,0.46l-6.39-2.51c-0.41-0.16-0.85-0.25-1.3-0.25
		c-1.26,0-2.44,0.68-3.08,1.77l-2.4,4.15c-0.88,1.52-0.5,3.48,0.87,4.57l5.36,4.25c-0.06,0.21-0.11,0.42-0.17,0.63l-6.78,1.02
		c-1.76,0.26-3.03,1.74-3.03,3.52v4.78c0,1.75,1.3,3.26,3.03,3.52l6.78,1.02c0.05,0.21,0.11,0.41,0.17,0.62l-5.36,4.26
		c-1.39,1.11-1.75,3.03-0.87,4.56l2.4,4.15c0.64,1.1,1.82,1.78,3.08,1.78c0.45,0,0.9-0.09,1.32-0.25l6.37-2.5
		c0.15,0.16,0.31,0.31,0.46,0.46l-2.51,6.37c-0.64,1.63,0.02,3.52,1.54,4.39l4.15,2.39c0.54,0.31,1.15,0.47,1.77,0.47
		c1.09,0,2.1-0.49,2.78-1.33l4.28-5.36c0.21,0.06,0.43,0.12,0.64,0.17l1.02,6.76c0.26,1.72,1.77,3.03,3.52,3.03h4.8
		c1.75,0,3.26-1.3,3.52-3.03l1.02-6.75c0.22-0.05,0.43-0.11,0.65-0.17l4.27,5.35c0.68,0.85,1.7,1.34,2.78,1.34
		c0.62,0,1.23-0.16,1.77-0.47l4.16-2.39c1.52-0.87,2.18-2.76,1.54-4.39l-2.51-6.37c0.16-0.15,0.31-0.31,0.46-0.46l6.39,2.51
		c0.4,0.16,0.85,0.25,1.3,0.25c1.27,0,2.45-0.68,3.08-1.78l2.4-4.14c0.88-1.51,0.5-3.48-0.86-4.56l-5.36-4.26
		c0.06-0.21,0.11-0.41,0.17-0.62l6.79-1.02c1.73-0.26,3.03-1.77,3.03-3.52v-4.78c0-1.77-1.27-3.25-3.03-3.52l-6.79-1.02
		c-0.05-0.21-0.11-0.42-0.17-0.62l5.36-4.26c1.37-1.09,1.74-3.05,0.87-4.57l-2.4-4.15c-0.64-1.1-1.82-1.78-3.08-1.78
		c-0.46,0-0.9,0.09-1.33,0.26l-6.36,2.5c-0.15-0.16-0.31-0.31-0.46-0.46l2.51-6.37c0.64-1.63-0.02-3.52-1.54-4.39L248.41,92
		c-0.53-0.31-1.15-0.48-1.78-0.48c-1.09,0-2.1,0.49-2.78,1.34l-4.27,5.35c-0.21-0.06-0.43-0.12-0.65-0.17l-1.02-6.75
		C237.65,89.56,236.14,88.26,234.39,88.26L234.39,88.26z M231.99,138.74c-7.52,0-13.64-6.1-13.64-13.59s6.12-13.59,13.64-13.59
		c7.52,0,13.64,6.1,13.64,13.59S239.52,138.74,231.99,138.74L231.99,138.74z"/>
</g>
<g>
	<g>
		<path class="st1" d="M217.26,180.26l1.86,2.02l-20.21,18.67l-3.01,0.91l1.15-2.93L217.26,180.26 M217.38,177.43l-22.02,20.33
			l-2.81,7.18l7.39-2.23l22.02-20.34L217.38,177.43L217.38,177.43z"/>
	</g>
	<g>
		<g>
			<path class="st3" d="M224.3,185c-0.08,0-0.19-0.02-0.29-0.14l-8.85-9.46c-0.1-0.11-0.16-0.26-0.16-0.42
				c0-0.16,0.06-0.31,0.15-0.41l2.31-2.47c0.65-0.7,1.59-1.1,2.58-1.1s1.93,0.4,2.58,1.1l4.26,4.55c0.71,0.77,1.11,1.8,1.1,2.9
				c-0.01,1.08-0.4,2.1-1.11,2.84l-2.3,2.46C224.49,184.98,224.38,185,224.3,185z"/>
		</g>
		<g>
			<path class="st1" d="M220.05,172c0.71,0,1.39,0.29,1.86,0.79l4.25,4.54c0.54,0.58,0.84,1.37,0.84,2.22c0,0.83-0.3,1.6-0.84,2.17
				l-1.86,1.99l-8.16-8.73l2.07-2.21C218.66,172.28,219.33,172,220.05,172 M220.05,170c-1.22,0-2.44,0.48-3.31,1.42l-2.31,2.47
				c-0.27,0.29-0.43,0.69-0.43,1.1c0,0.41,0.15,0.81,0.43,1.1l8.85,9.46c0.28,0.3,0.65,0.45,1.02,0.45s0.74-0.15,1.03-0.46
				l2.29-2.45c0.88-0.93,1.37-2.19,1.38-3.53c0-1.36-0.48-2.63-1.37-3.59l-4.26-4.55C222.48,170.47,221.26,170,220.05,170
				L220.05,170z"/>
		</g>
	</g>
	<g>
		<polygon class="st3" points="192.78,198.04 199.61,205.47 190.37,207.65 		"/>
		<path class="st1" d="M193.3,200.08l4.42,4.8l-5.98,1.41L193.3,200.08 M192.26,196L189,209l12.5-2.95L192.26,196L192.26,196z"/>
	</g>
</g>
</svg>
