<?xml version="1.0" encoding="utf-8"?>
<!-- Generator: Adobe Illustrator 27.0.0, SVG Export Plug-In . SVG Version: 6.00 Build 0)  -->
<svg version="1.1" id="Layer_1" xmlns="http://www.w3.org/2000/svg" xmlns:xlink="http://www.w3.org/1999/xlink" x="0px" y="0px"
	 viewBox="0 0 400 400" style="enable-background:new 0 0 400 400;" xml:space="preserve">
<style type="text/css">
	.st0{fill:#2A92C6;}
	.st1{fill:#D1D3D4;}
	.st2{fill:#7136F2;}
	.st3{fill:#FFF3AC;}
	.st4{fill:none;stroke:#D1D3D4;stroke-width:3;stroke-miterlimit:10;}
	.st5{fill:#D1D3D4;stroke:#D1D3D4;stroke-width:3;stroke-miterlimit:10;}
	.st6{fill:#D1D3D4;stroke:#D1D3D4;stroke-miterlimit:10;}
	.st7{fill:#2A92C6;stroke:#D1D3D4;stroke-width:3;stroke-miterlimit:10;}
	.st8{fill:#7136F2;stroke:#D1D3D4;stroke-miterlimit:10;}
	.st9{fill:none;stroke:#D1D3D4;stroke-miterlimit:10;}
	.st10{fill:#2A92C6;stroke:#D1D3D4;stroke-width:2;stroke-miterlimit:10;}
	.st11{fill:#7136F2;stroke:#D1D3D4;stroke-width:2;stroke-miterlimit:10;}
	.st12{fill:#FFF3AC;stroke:#D1D3D4;stroke-width:3;stroke-miterlimit:10;}
	.st13{fill:none;stroke:#D1D3D4;stroke-width:2.6827;stroke-miterlimit:10;}
	.st14{fill:#7136F2;stroke:#D1D3D4;stroke-width:3;stroke-miterlimit:10;}
	.st15{fill:none;stroke:#D1D3D4;stroke-width:2;stroke-miterlimit:10;}
	.st16{fill:#003366;}
	.st17{fill:none;stroke:#7136F2;stroke-miterlimit:10;}
	.st18{fill:none;stroke:#003366;stroke-miterlimit:10;}
	.st19{fill:none;stroke:#2A92C6;stroke-miterlimit:10;}
	.st20{fill:none;stroke:#FFF3AC;stroke-miterlimit:10;}
	.st21{fill:#7136F2;stroke:#7136F2;stroke-miterlimit:10;}
	.st22{fill:#003366;stroke:#003366;stroke-miterlimit:10;}
	.st23{fill:#2A92C6;stroke:#2A92C6;stroke-miterlimit:10;}
	.st24{fill:#FFF3AC;stroke:#FFF3AC;stroke-miterlimit:10;}
</style>
<g>
	<g>
		<g>
			<g id="XMLID_00000014605271992991371650000012181785446354172058_">
				<g>
					<polygon class="st4" points="156.3,277.67 173.26,277.67 226.31,277.67 243.25,277.67 243.25,285.99 156.3,285.99 					"/>
					<polygon class="st4" points="218.5,251.2 226.31,277.67 173.26,277.67 181.06,251.2 					"/>
					<path class="st4" d="M125.25,234.23h149.04c4.24,0,7.71-3.11,7.71-6.9v15.74c0,4.45-4.1,8.13-9.11,8.13H218.5h-37.44h-15.92
						h-38.46c-5.02,0-9.14-3.68-9.14-8.13v-15.74C117.55,231.12,121.01,234.23,125.25,234.23z"/>
				</g>
				<g>
					<path class="st4" d="M181.06,251.2h-15.92h-38.46c-5.02,0-9.14-3.68-9.14-8.13v-15.74v-78.2c0-4.47,4.12-8.13,9.14-8.13
						l85.57,0.07"/>
					<path class="st4" d="M263.39,141h9.5c5.01,0,9.11,3.65,9.11,8.13v78.2v15.74c0,4.45-4.1,8.13-9.11,8.13H218.5"/>
					<path class="st4" d="M282,227.33c0,3.78-3.47,6.9-7.71,6.9H125.25c-4.24,0-7.71-3.11-7.71-6.9"/>
					<polyline class="st4" points="173.26,277.67 181.06,251.2 218.5,251.2 226.31,277.67 					"/>
					<polygon class="st4" points="226.31,277.67 243.25,277.67 243.25,285.99 156.3,285.99 156.3,277.67 173.26,277.67 					"/>
					<polygon class="st4" points="186.81,216.81 211.82,216.81 211.82,223.1 211.82,229.39 186.81,229.39 					"/>
					<polygon class="st4" points="251.2,219.9 263.85,219.9 263.85,226.26 251.2,226.26 251.2,223.1 					"/>
					<line class="st4" x1="211.82" y1="223.1" x2="251.2" y2="223.1"/>
					<polygon class="st4" points="147.36,219.9 134.68,219.9 134.68,226.26 147.36,226.26 147.36,223.1 					"/>
					<line class="st4" x1="186.71" y1="223.1" x2="147.36" y2="223.1"/>
				</g>
			</g>
		</g>
	</g>
	<g>
		<g>
			<g>
				<path class="st6" d="M257.51,158.54h-40.34c-3.36,0-6.1-2.8-6.1-6.25V83.25c0-3.44,2.74-6.25,6.1-6.25h40.34
					c3.36,0,6.1,2.8,6.1,6.25v69.05C263.61,155.74,260.87,158.54,257.51,158.54z M217.17,78.73c-2.43,0-4.41,2.02-4.41,4.51v69.05
					c0,2.49,1.98,4.51,4.41,4.51h40.34c2.43,0,4.41-2.02,4.41-4.51V83.25c0-2.49-1.98-4.51-4.41-4.51H217.17z"/>
			</g>
			<g>
				<g>
					<path class="st8" d="M247.27,132.87H225.7c-0.6,0-1.08-0.48-1.08-1.06v-21.25c0-0.59,0.48-1.06,1.08-1.06h21.57
						c0.59,0,1.08,0.48,1.08,1.06v21.25C248.35,132.4,247.87,132.87,247.27,132.87z"/>
				</g>
				<g>
					<path class="st6" d="M249.2,139.25h-23.73c-0.47,0-0.85-0.48-0.85-1.06c0-0.59,0.38-1.06,0.85-1.06h23.73
						c0.47,0,0.85,0.48,0.85,1.06S249.67,139.25,249.2,139.25z"/>
				</g>
				<g>
					<path class="st6" d="M249.2,144.11h-23.73c-0.47,0-0.85-0.48-0.85-1.06c0-0.59,0.38-1.06,0.85-1.06h23.73
						c0.47,0,0.85,0.48,0.85,1.06C250.05,143.63,249.67,144.11,249.2,144.11z"/>
				</g>
				<g>
					<path class="st6" d="M240.73,103.12c-0.25,0-0.49-0.14-0.66-0.4l-6.19-9.7l-7.8,9.79c-0.16,0.2-0.37,0.31-0.6,0.31h-6.78
						c-0.47,0-0.85-0.48-0.85-1.06s0.38-1.06,0.85-1.06h6.43l8.23-10.31c0.17-0.21,0.41-0.33,0.65-0.31
						c0.24,0.02,0.46,0.16,0.61,0.4l6.78,10.62c0.29,0.46,0.23,1.13-0.13,1.49C241.1,103.05,240.91,103.12,240.73,103.12z"/>
				</g>
				<g>
					<path class="st6" d="M233.95,103.12c-0.22,0-0.43-0.1-0.6-0.31c-0.33-0.42-0.33-1.09,0-1.5l8.47-10.62
						c0.17-0.21,0.4-0.33,0.65-0.31c0.24,0.02,0.46,0.16,0.61,0.4l6.53,10.23h6.37c0.47,0,0.85,0.48,0.85,1.06
						c0,0.59-0.38,1.06-0.85,1.06h-6.78c-0.26,0-0.5-0.15-0.66-0.4l-6.19-9.7l-7.8,9.79C234.38,103.02,234.17,103.12,233.95,103.12z
						"/>
				</g>
			</g>
		</g>
	</g>
	<g>
		<g>
			<g>
				<path class="st6" d="M195.52,203h-63.7c-0.38,0-0.69-0.23-0.69-0.52v-47.42c0-0.28,0.31-0.52,0.69-0.52h63.7
					c0.38,0,0.69,0.23,0.69,0.52v47.42C196.21,202.77,195.9,203,195.52,203z M132.52,201.97h62.31v-46.39h-62.31V201.97z"/>
			</g>
			<g>
				<path class="st6" d="M195.52,167.06h-63.7c-0.38,0-0.69-0.31-0.69-0.7c0-0.38,0.31-0.7,0.69-0.7h63.7c0.38,0,0.69,0.31,0.69,0.7
					C196.21,166.75,195.9,167.06,195.52,167.06z"/>
			</g>
			<g>
				<path class="st6" d="M151.21,167.06c-0.38,0-0.69-0.31-0.69-0.7v-11.12c0-0.38,0.31-0.7,0.69-0.7c0.38,0,0.69,0.31,0.69,0.7
					v11.12C151.9,166.75,151.59,167.06,151.21,167.06z"/>
			</g>
			<g>
				<path class="st6" d="M195.52,161.5h-29.08c-0.38,0-0.69-0.31-0.69-0.7c0-0.38,0.31-0.7,0.69-0.7h29.08
					c0.38,0,0.69,0.31,0.69,0.7C196.21,161.19,195.9,161.5,195.52,161.5z"/>
			</g>
			<g>
				<path class="st6" d="M153.98,197.91h-16.62c-0.38,0-0.69-0.31-0.69-0.7v-15.29c0-0.38,0.31-0.7,0.69-0.7h16.62
					c0.38,0,0.69,0.31,0.69,0.7v15.29C154.67,197.6,154.36,197.91,153.98,197.91z M138.05,196.52h15.23v-13.9h-15.23V196.52z"/>
			</g>
			<g>
				<path class="st6" d="M177.14,185.62h-16.62c-0.38,0-0.69-0.31-0.69-0.7c0-0.38,0.31-0.7,0.69-0.7h16.62
					c0.38,0,0.69,0.31,0.69,0.7C177.83,185.31,177.52,185.62,177.14,185.62z"/>
			</g>
			<g>
				<path class="st6" d="M186.83,185.62h-5.54c-0.38,0-0.69-0.31-0.69-0.7c0-0.38,0.31-0.7,0.69-0.7h5.54c0.38,0,0.69,0.31,0.69,0.7
					C187.52,185.31,187.21,185.62,186.83,185.62z"/>
			</g>
			<g>
				<path class="st6" d="M167.44,189.79h-6.92c-0.38,0-0.69-0.31-0.69-0.7c0-0.38,0.31-0.7,0.69-0.7h6.92c0.38,0,0.69,0.31,0.69,0.7
					C168.14,189.48,167.83,189.79,167.44,189.79z"/>
			</g>
			<g>
				<path class="st6" d="M177.14,189.79h-5.54c-0.38,0-0.69-0.31-0.69-0.7c0-0.38,0.31-0.7,0.69-0.7h5.54c0.38,0,0.69,0.31,0.69,0.7
					C177.83,189.48,177.52,189.79,177.14,189.79z"/>
			</g>
			<g>
				<path class="st6" d="M171.6,193.96h-11.08c-0.38,0-0.69-0.31-0.69-0.7c0-0.38,0.31-0.7,0.69-0.7h11.08
					c0.38,0,0.69,0.31,0.69,0.7C172.29,193.65,171.98,193.96,171.6,193.96z"/>
			</g>
			<rect x="135.98" y="159.41" class="st6" width="2.77" height="2.78"/>
			<rect x="140.13" y="159.41" class="st6" width="2.77" height="2.78"/>
			<rect x="144.29" y="159.41" class="st6" width="2.77" height="2.78"/>
			<g>
				<path class="st6" d="M165.8,176.82c-0.16,0-0.32-0.08-0.43-0.24l-3.98-5.94l-5.02,6c-0.1,0.12-0.24,0.19-0.39,0.19h-4.36
					c-0.3,0-0.54-0.29-0.54-0.65s0.24-0.65,0.54-0.65h4.13l5.29-6.32c0.11-0.13,0.26-0.2,0.42-0.19c0.15,0.01,0.3,0.1,0.4,0.24
					l4.36,6.51c0.19,0.28,0.15,0.69-0.09,0.92C166.04,176.77,165.92,176.82,165.8,176.82z"/>
			</g>
			<g>
				<path class="st6" d="M161.44,176.82c-0.14,0-0.28-0.06-0.39-0.19c-0.21-0.25-0.21-0.67,0-0.92l5.45-6.51
					c0.11-0.13,0.26-0.2,0.42-0.19c0.15,0.01,0.3,0.1,0.4,0.24l4.2,6.27h4.1c0.3,0,0.55,0.29,0.55,0.65c0,0.36-0.24,0.65-0.55,0.65
					h-4.36c-0.17,0-0.32-0.09-0.43-0.24l-3.98-5.94l-5.02,6C161.72,176.75,161.58,176.82,161.44,176.82z"/>
			</g>
		</g>
	</g>
	<g>
		<g>
			<g>
				<g>
					<g id="XMLID_00000013175488247481168460000004181534604426622599_">
						<g>
							<polygon class="st9" points="156.3,277.67 173.26,277.67 226.31,277.67 243.25,277.67 243.25,285.99 156.3,285.99 							"/>
							<polygon class="st9" points="218.5,251.2 226.31,277.67 173.26,277.67 181.06,251.2 							"/>
							<path class="st9" d="M125.25,234.23h149.04c4.24,0,7.71-3.11,7.71-6.9v15.74c0,4.45-4.1,8.13-9.11,8.13H218.5h-37.44h-15.92
								h-38.46c-5.02,0-9.14-3.68-9.14-8.13v-15.74C117.55,231.12,121.01,234.23,125.25,234.23z"/>
						</g>
						<g>
							<path class="st9" d="M181.06,251.2h-15.92h-38.46c-5.02,0-9.14-3.68-9.14-8.13v-15.74v-78.2c0-4.47,4.12-8.13,9.14-8.13
								l85.57,0.07"/>
							<path class="st9" d="M263.39,141h9.5c5.01,0,9.11,3.65,9.11,8.13v78.2v15.74c0,4.45-4.1,8.13-9.11,8.13H218.5"/>
							<path class="st9" d="M282,227.33c0,3.78-3.47,6.9-7.71,6.9H125.25c-4.24,0-7.71-3.11-7.71-6.9"/>
							<polyline class="st9" points="173.26,277.67 181.06,251.2 218.5,251.2 226.31,277.67 							"/>
							<polygon class="st9" points="226.31,277.67 243.25,277.67 243.25,285.99 156.3,285.99 156.3,277.67 173.26,277.67 							"/>
							<g>
								<rect x="188.31" y="218.31" class="st3" width="22.01" height="9.59"/>
								<path class="st1" d="M208.82,219.81v3.3v3.29h-19.01v-6.59H208.82 M211.82,216.81h-25.01v12.59h25.01v-6.29V216.81
									L211.82,216.81z"/>
							</g>
							<polygon class="st9" points="251.2,219.9 263.85,219.9 263.85,226.26 251.2,226.26 251.2,223.1 							"/>
							<line class="st9" x1="211.82" y1="223.1" x2="251.2" y2="223.1"/>
							<polygon class="st9" points="147.36,219.9 134.68,219.9 134.68,226.26 147.36,226.26 147.36,223.1 							"/>
							<line class="st9" x1="186.71" y1="223.1" x2="147.36" y2="223.1"/>
						</g>
					</g>
				</g>
			</g>
			<g>
				<g>
					<g>
						<path class="st6" d="M257.51,158.54h-40.34c-3.36,0-6.1-2.8-6.1-6.25V83.25c0-3.44,2.74-6.25,6.1-6.25h40.34
							c3.36,0,6.1,2.8,6.1,6.25v69.05C263.61,155.74,260.87,158.54,257.51,158.54z M217.17,78.73c-2.43,0-4.41,2.02-4.41,4.51v69.05
							c0,2.49,1.98,4.51,4.41,4.51h40.34c2.43,0,4.41-2.02,4.41-4.51V83.25c0-2.49-1.98-4.51-4.41-4.51H217.17z"/>
					</g>
					<g>
						<g>
							<path class="st9" d="M255.98,152h-37.29c-0.47,0-0.85-0.48-0.85-1.06V85.06c0-0.59,0.38-1.06,0.85-1.06h37.29
								c0.47,0,0.85,0.48,0.85,1.06v65.87C256.83,151.52,256.45,152,255.98,152z"/>
						</g>
						<g>
							<path class="st10" d="M247.27,132.87H225.7c-0.6,0-1.08-0.48-1.08-1.06v-21.25c0-0.59,0.48-1.06,1.08-1.06h21.57
								c0.59,0,1.08,0.48,1.08,1.06v21.25C248.35,132.4,247.87,132.87,247.27,132.87z"/>
						</g>
						<g>
							<path class="st9" d="M249.2,139.25h-23.73c-0.47,0-0.85-0.48-0.85-1.06c0-0.59,0.38-1.06,0.85-1.06h23.73
								c0.47,0,0.85,0.48,0.85,1.06S249.67,139.25,249.2,139.25z"/>
						</g>
						<g>
							<path class="st9" d="M249.2,144.11h-23.73c-0.47,0-0.85-0.48-0.85-1.06c0-0.59,0.38-1.06,0.85-1.06h23.73
								c0.47,0,0.85,0.48,0.85,1.06C250.05,143.63,249.67,144.11,249.2,144.11z"/>
						</g>
						<g>
							<path class="st9" d="M240.73,103.12c-0.25,0-0.49-0.14-0.66-0.4l-6.19-9.7l-7.8,9.79c-0.16,0.2-0.37,0.31-0.6,0.31h-6.78
								c-0.47,0-0.85-0.48-0.85-1.06s0.38-1.06,0.85-1.06h6.43l8.23-10.31c0.17-0.21,0.41-0.33,0.65-0.31
								c0.24,0.02,0.46,0.16,0.61,0.4l6.78,10.62c0.29,0.46,0.23,1.13-0.13,1.49C241.1,103.05,240.91,103.12,240.73,103.12z"/>
						</g>
						<g>
							<path class="st9" d="M233.95,103.12c-0.22,0-0.43-0.1-0.6-0.31c-0.33-0.42-0.33-1.09,0-1.5l8.47-10.62
								c0.17-0.21,0.4-0.33,0.65-0.31c0.24,0.02,0.46,0.16,0.61,0.4l6.53,10.23h6.37c0.47,0,0.85,0.48,0.85,1.06
								c0,0.59-0.38,1.06-0.85,1.06h-6.78c-0.26,0-0.5-0.15-0.66-0.4l-6.19-9.7l-7.8,9.79
								C234.38,103.02,234.17,103.12,233.95,103.12z"/>
						</g>
					</g>
				</g>
			</g>
			<g>
				<g>
					<g>
						<path class="st6" d="M195.52,203h-63.7c-0.38,0-0.69-0.23-0.69-0.52v-47.42c0-0.28,0.31-0.52,0.69-0.52h63.7
							c0.38,0,0.69,0.23,0.69,0.52v47.42C196.21,202.77,195.9,203,195.52,203z M132.52,201.97h62.31v-46.39h-62.31V201.97z"/>
					</g>
					<g>
						<path class="st6" d="M195.52,167.06h-63.7c-0.38,0-0.69-0.31-0.69-0.7c0-0.38,0.31-0.7,0.69-0.7h63.7
							c0.38,0,0.69,0.31,0.69,0.7C196.21,166.75,195.9,167.06,195.52,167.06z"/>
					</g>
					<g>
						<path class="st6" d="M151.21,167.06c-0.38,0-0.69-0.31-0.69-0.7v-11.12c0-0.38,0.31-0.7,0.69-0.7c0.38,0,0.69,0.31,0.69,0.7
							v11.12C151.9,166.75,151.59,167.06,151.21,167.06z"/>
					</g>
					<g>
						<path class="st6" d="M195.52,161.5h-29.08c-0.38,0-0.69-0.31-0.69-0.7c0-0.38,0.31-0.7,0.69-0.7h29.08
							c0.38,0,0.69,0.31,0.69,0.7C196.21,161.19,195.9,161.5,195.52,161.5z"/>
					</g>
					<g>
						<path class="st10" d="M153.98,197.91h-16.62c-0.38,0-0.69-0.31-0.69-0.7v-15.29c0-0.38,0.31-0.7,0.69-0.7h16.62
							c0.38,0,0.69,0.31,0.69,0.7v15.29C154.67,197.6,154.36,197.91,153.98,197.91z"/>
					</g>
					<g>
						<path class="st6" d="M177.14,185.62h-16.62c-0.38,0-0.69-0.31-0.69-0.7c0-0.38,0.31-0.7,0.69-0.7h16.62
							c0.38,0,0.69,0.31,0.69,0.7C177.83,185.31,177.52,185.62,177.14,185.62z"/>
					</g>
					<g>
						<path class="st6" d="M186.83,185.62h-5.54c-0.38,0-0.69-0.31-0.69-0.7c0-0.38,0.31-0.7,0.69-0.7h5.54
							c0.38,0,0.69,0.31,0.69,0.7C187.52,185.31,187.21,185.62,186.83,185.62z"/>
					</g>
					<g>
						<path class="st6" d="M167.44,189.79h-6.92c-0.38,0-0.69-0.31-0.69-0.7c0-0.38,0.31-0.7,0.69-0.7h6.92
							c0.38,0,0.69,0.31,0.69,0.7C168.14,189.48,167.83,189.79,167.44,189.79z"/>
					</g>
					<g>
						<path class="st6" d="M177.14,189.79h-5.54c-0.38,0-0.69-0.31-0.69-0.7c0-0.38,0.31-0.7,0.69-0.7h5.54
							c0.38,0,0.69,0.31,0.69,0.7C177.83,189.48,177.52,189.79,177.14,189.79z"/>
					</g>
					<g>
						<path class="st6" d="M171.6,193.96h-11.08c-0.38,0-0.69-0.31-0.69-0.7c0-0.38,0.31-0.7,0.69-0.7h11.08
							c0.38,0,0.69,0.31,0.69,0.7C172.29,193.65,171.98,193.96,171.6,193.96z"/>
					</g>
					<rect x="135.98" y="159.41" class="st6" width="2.77" height="2.78"/>
					<rect x="140.13" y="159.41" class="st6" width="2.77" height="2.78"/>
					<rect x="144.29" y="159.41" class="st6" width="2.77" height="2.78"/>
					<g>
						<path class="st6" d="M165.8,176.82c-0.16,0-0.32-0.08-0.43-0.24l-3.98-5.94l-5.02,6c-0.1,0.12-0.24,0.19-0.39,0.19h-4.36
							c-0.3,0-0.54-0.29-0.54-0.65s0.24-0.65,0.54-0.65h4.13l5.29-6.32c0.11-0.13,0.26-0.2,0.42-0.19c0.15,0.01,0.3,0.1,0.4,0.24
							l4.36,6.51c0.19,0.28,0.15,0.69-0.09,0.92C166.04,176.77,165.92,176.82,165.8,176.82z"/>
					</g>
					<g>
						<path class="st6" d="M161.44,176.82c-0.14,0-0.28-0.06-0.39-0.19c-0.21-0.25-0.21-0.67,0-0.92l5.45-6.51
							c0.11-0.13,0.26-0.2,0.42-0.19c0.15,0.01,0.3,0.1,0.4,0.24l4.2,6.27h4.1c0.3,0,0.55,0.29,0.55,0.65
							c0,0.36-0.24,0.65-0.55,0.65h-4.36c-0.17,0-0.32-0.09-0.43-0.24l-3.98-5.94l-5.02,6
							C161.72,176.75,161.58,176.82,161.44,176.82z"/>
					</g>
				</g>
			</g>
			<g>
				<path class="st2" d="M234.84,213.27c-0.92,0-1.73-0.69-1.86-1.6l-0.76-5.04c-0.39-0.09-0.78-0.19-1.16-0.31l-3.19,3.99
					c-0.36,0.45-0.9,0.71-1.48,0.71c-0.33,0-0.65-0.09-0.94-0.25l-2.87-1.65c-0.8-0.46-1.15-1.46-0.81-2.32l1.87-4.75
					c-0.29-0.27-0.57-0.55-0.84-0.84l-4.77,1.87c-0.22,0.09-0.45,0.13-0.69,0.13c-0.67,0-1.3-0.36-1.63-0.95l-1.65-2.86
					c-0.47-0.81-0.28-1.83,0.46-2.42l4-3.18c-0.11-0.38-0.22-0.76-0.31-1.14l-5.06-0.76c-0.93-0.14-1.61-0.92-1.61-1.86v-3.3
					c0-0.92,0.69-1.73,1.61-1.86l5.06-0.76c0.09-0.38,0.19-0.77,0.31-1.15l-4-3.17c-0.74-0.59-0.93-1.61-0.46-2.42l1.65-2.86
					c0.33-0.58,0.96-0.94,1.63-0.94c0.24,0,0.47,0.04,0.7,0.13l4.76,1.87c0.27-0.29,0.55-0.57,0.84-0.84l-1.87-4.75
					c-0.34-0.88,0-1.86,0.81-2.33l2.87-1.65c0.28-0.16,0.61-0.25,0.94-0.25c0.58,0,1.11,0.26,1.47,0.71l3.19,3.99
					c0.38-0.12,0.77-0.22,1.16-0.31l0.76-5.04c0.14-0.93,0.92-1.6,1.86-1.6h3.31c0.94,0,1.73,0.67,1.87,1.6l0.76,5.04
					c0.39,0.09,0.78,0.19,1.16,0.31l3.19-3.99c0.36-0.45,0.9-0.71,1.47-0.71c0.33,0,0.65,0.09,0.94,0.25l2.87,1.65
					c0.8,0.46,1.15,1.46,0.81,2.33l-1.87,4.75c0.29,0.27,0.57,0.55,0.84,0.84l4.77-1.87c0.21-0.08,0.45-0.13,0.69-0.13
					c0.67,0,1.29,0.36,1.63,0.94l1.66,2.86c0.46,0.8,0.27,1.84-0.46,2.42l-4,3.18c0.12,0.38,0.22,0.76,0.31,1.14l5.06,0.76
					c0.92,0.14,1.61,0.94,1.61,1.86v3.3c0,0.94-0.67,1.72-1.61,1.86l-5.06,0.76c-0.09,0.38-0.19,0.77-0.31,1.14l4,3.18
					c0.74,0.59,0.93,1.61,0.46,2.42l-1.66,2.86c-0.33,0.58-0.96,0.94-1.63,0.94l0,0c-0.24,0-0.47-0.04-0.7-0.13l-4.76-1.87
					c-0.27,0.29-0.55,0.57-0.84,0.84l1.87,4.75c0.34,0.86-0.01,1.86-0.81,2.32l-2.87,1.65c-0.29,0.16-0.61,0.25-0.94,0.25
					c-0.58,0-1.11-0.26-1.47-0.71l-3.19-3.99c-0.38,0.12-0.77,0.22-1.16,0.31l-0.76,5.04c-0.14,0.93-0.92,1.6-1.87,1.6H234.84z
					 M236.5,178.43c-5.5,0-9.98,4.46-9.98,9.95c0,5.49,4.48,9.95,9.98,9.95c5.51,0,9.99-4.46,9.99-9.95
					C246.48,182.9,242,178.43,236.5,178.43z"/>
				<path class="st1" d="M238.15,165c0.19,0,0.35,0.14,0.38,0.33l0.92,6.08c1.02,0.18,2.03,0.44,3.01,0.8l3.84-4.81
					c0.08-0.09,0.19-0.15,0.3-0.15c0.07,0,0.13,0.02,0.19,0.05l2.87,1.65c0.16,0.09,0.24,0.3,0.17,0.47l-2.26,5.73
					c0.8,0.66,1.53,1.4,2.2,2.19l5.74-2.25c0.05-0.02,0.09-0.03,0.14-0.03c0.13,0,0.26,0.07,0.33,0.19l1.66,2.86
					c0.1,0.16,0.06,0.37-0.09,0.49l-4.82,3.83c0.36,0.98,0.63,1.98,0.8,2.99l6.1,0.92c0.19,0.03,0.33,0.19,0.33,0.38v3.3
					c0,0.19-0.14,0.35-0.33,0.38l-6.1,0.92c-0.17,1.01-0.44,2.02-0.8,2.99l4.82,3.83c0.15,0.12,0.19,0.33,0.09,0.49l-1.66,2.86
					c-0.07,0.12-0.2,0.19-0.33,0.19c-0.05,0-0.1-0.01-0.14-0.03l-5.74-2.25c-0.67,0.8-1.4,1.53-2.2,2.19l2.26,5.73
					c0.07,0.18,0,0.38-0.17,0.47l-2.87,1.65c-0.06,0.03-0.13,0.05-0.19,0.05c-0.11,0-0.23-0.05-0.3-0.14l-3.84-4.8
					c-0.98,0.36-1.99,0.63-3.01,0.8l-0.92,6.08c-0.03,0.19-0.19,0.33-0.38,0.33h-3.31c-0.19,0-0.35-0.14-0.38-0.33l-0.92-6.08
					c-1.02-0.17-2.03-0.44-3-0.8l-3.84,4.81c-0.08,0.09-0.19,0.14-0.3,0.14c-0.07,0-0.13-0.02-0.19-0.05l-2.87-1.65
					c-0.17-0.09-0.24-0.3-0.17-0.47l2.26-5.73c-0.79-0.66-1.53-1.39-2.2-2.19l-5.74,2.25c-0.05,0.02-0.09,0.03-0.14,0.03
					c-0.13,0-0.26-0.07-0.33-0.19l-1.65-2.86c-0.1-0.17-0.06-0.37,0.09-0.49l4.82-3.83c-0.36-0.97-0.63-1.97-0.8-2.99l-6.1-0.92
					c-0.19-0.03-0.33-0.19-0.33-0.38v-3.3c0-0.19,0.14-0.35,0.33-0.38l6.1-0.92c0.18-1.02,0.45-2.02,0.8-3l-4.82-3.83
					c-0.15-0.12-0.19-0.33-0.09-0.49l1.65-2.86c0.07-0.12,0.2-0.19,0.33-0.19c0.05,0,0.09,0.01,0.14,0.03l5.74,2.25
					c0.67-0.8,1.41-1.54,2.2-2.19l-2.26-5.73c-0.07-0.18,0-0.38,0.17-0.47l2.87-1.65c0.06-0.03,0.13-0.05,0.19-0.05
					c0.11,0,0.23,0.05,0.3,0.14l3.84,4.81c0.97-0.36,1.98-0.63,3-0.8l0.92-6.08c0.03-0.19,0.19-0.33,0.38-0.33H238.15 M236.5,199.84
					c6.33,0,11.49-5.14,11.49-11.45c0-6.32-5.15-11.45-11.49-11.45c-6.33,0-11.48,5.14-11.48,11.45
					C225.02,194.7,230.17,199.84,236.5,199.84 M238.15,162h-3.31c-1.66,0-3.1,1.24-3.35,2.88l-0.47,3.12l-1.98-2.48
					c-0.65-0.81-1.61-1.27-2.65-1.27c-0.59,0-1.18,0.16-1.69,0.45l-2.87,1.65c-1.44,0.83-2.07,2.62-1.46,4.17l1.16,2.93l-2.95-1.16
					c-0.39-0.15-0.81-0.23-1.24-0.23c-1.2,0-2.32,0.65-2.93,1.69l-1.66,2.86c-0.83,1.44-0.48,3.31,0.82,4.34l2.46,1.95l-3.12,0.47
					c-1.67,0.25-2.88,1.66-2.88,3.35v3.3c0,1.66,1.24,3.1,2.88,3.35l3.12,0.47l-2.46,1.96c-1.32,1.06-1.67,2.88-0.83,4.34l1.66,2.86
					c0.61,1.04,1.73,1.69,2.93,1.69c0.43,0,0.86-0.08,1.26-0.24l2.93-1.15l-1.16,2.93c-0.61,1.55,0.02,3.35,1.47,4.18l2.86,1.65
					c0.51,0.3,1.1,0.45,1.69,0.45c1.03,0,2-0.46,2.64-1.27l1.98-2.48l0.47,3.12c0.25,1.64,1.68,2.88,3.35,2.88h3.31
					c1.66,0,3.1-1.24,3.35-2.89l0.47-3.12l1.98,2.48c0.65,0.81,1.61,1.27,2.65,1.27c0.59,0,1.17-0.15,1.68-0.45l2.87-1.65
					c1.45-0.83,2.07-2.63,1.46-4.18l-1.16-2.93l2.95,1.16c0.38,0.15,0.8,0.23,1.24,0.23c1.21,0,2.33-0.65,2.93-1.69l1.65-2.86
					c0.83-1.44,0.48-3.31-0.82-4.34l-2.47-1.96l3.12-0.47c1.64-0.25,2.88-1.69,2.88-3.35v-3.3c0-1.69-1.21-3.1-2.88-3.35l-3.12-0.47
					l2.46-1.95c1.3-1.04,1.66-2.91,0.82-4.34l-1.66-2.86c-0.6-1.04-1.73-1.69-2.93-1.69c-0.44,0-0.86,0.08-1.26,0.25l-2.92,1.15
					l1.16-2.93c0.61-1.55-0.02-3.35-1.46-4.18l-2.86-1.65c-0.51-0.29-1.09-0.45-1.69-0.45c-1.04,0-2,0.46-2.65,1.27l-1.98,2.48
					l-0.47-3.13C241.26,163.24,239.82,162,238.15,162L238.15,162z M236.5,196.84c-4.68,0-8.48-3.79-8.48-8.45
					c0-4.66,3.81-8.45,8.48-8.45c4.68,0,8.49,3.79,8.49,8.45C244.98,193.05,241.18,196.84,236.5,196.84L236.5,196.84z"/>
			</g>
		</g>
	</g>
</g>
</svg>
