<?xml version="1.0" encoding="UTF-8"?><svg id="Layer_1" xmlns="http://www.w3.org/2000/svg" viewBox="0 0 139.26 139.26"><defs><style>.cls-1{fill:#fff;fill-rule:evenodd;}</style></defs><path class="cls-1" d="M114.73,67.27c-.62-24.59-20.88-44.34-45.82-44.34s-44.72,19.29-45.79,43.5c-.02.66-.04,1.33-.04,2,0,8.61,2.4,16.63,6.57,23.5l-8.26,24.4,25.39-8.07c6.57,3.61,14.12,5.67,22.15,5.67,25.32,0,45.84-20.37,45.84-45.49,0-.39,0-.77-.02-1.16ZM68.92,106.67c-7.83,0-15.11-2.32-21.2-6.33l-14.81,4.72,4.81-14.21c-4.61-6.31-7.34-14.06-7.34-22.42,0-1.24.06-2.49.19-3.71,1.89-19.36,18.37-34.53,38.35-34.53s36.87,15.56,38.41,35.26c.09.99.13,1.97.13,2.98,0,21.09-17.3,38.24-38.54,38.24Z"/><path class="cls-1" d="M89.93,77.61c-1.14-.56-6.65-3.26-7.68-3.63-1.03-.39-1.78-.56-2.53.56-.75,1.12-2.92,3.63-3.56,4.36-.67.75-1.31.84-2.45.28-1.12-.56-4.74-1.72-9.04-5.54-3.33-2.94-5.6-6.59-6.24-7.7s-.06-1.72.49-2.27c.51-.51,1.12-1.31,1.7-1.95.15-.19.28-.37.41-.54.26-.41.45-.79.71-1.33.39-.75.19-1.39-.09-1.95-.28-.56-2.53-6.05-3.48-8.28-.92-2.23-1.87-1.85-2.53-1.85s-1.39-.11-2.15-.11-1.97.28-3,1.39c-1.03,1.12-3.93,3.82-3.93,9.31,0,1.29.24,2.57.58,3.8,1.14,3.93,3.58,7.17,4.01,7.73.56.73,7.77,12.36,19.18,16.85,11.44,4.44,11.44,2.96,13.5,2.77,2.06-.17,6.65-2.68,7.57-5.3.95-2.6.95-4.83.67-5.3-.28-.45-1.03-.73-2.15-1.29Z"/></svg>