<?xml version="1.0" encoding="UTF-8"?><svg id="Layer_1" xmlns="http://www.w3.org/2000/svg" viewBox="0 0 139.26 139.26"><defs><style>.cls-1{fill:#fff;}</style></defs><path class="cls-1" d="M76.94,53.49c-2.27,2.39-4.83,3.58-7.67,3.58s-5.23-1-7.24-3.02c-2.01-2.01-3.02-4.41-3.02-7.19s1-5.26,3.02-7.27,4.42-3.02,7.24-3.02,5.39,1.19,7.67,3.58v-3.21h2.28v18.26c.34.81.85,1.21,1.55,1.21.83,0,1.97-1.04,3.44-3.11,1.47-2.08,2.2-4.21,2.2-6.41,0-4.72-1.68-8.75-5.03-12.1-3.35-3.35-7.39-5.03-12.1-5.03s-8.74,1.68-12.08,5.03c-3.33,3.35-5,7.39-5,12.1s1.67,8.74,5,12.08c3.33,3.33,7.36,5,12.08,5,3.23,0,5.59-.46,7.07-1.38l1.61,1.69c-2.25,1.31-5.15,1.97-8.68,1.97-5.34,0-9.91-1.9-13.71-5.69s-5.71-8.35-5.71-13.67,1.9-9.91,5.71-13.71,8.37-5.71,13.71-5.71,9.92,1.9,13.7,5.71,5.66,8.37,5.66,13.71c0,2.39-.87,4.94-2.61,7.67-1.74,2.72-3.66,4.09-5.76,4.09-.24,0-.48-.02-.7-.06-1.62-.34-2.49-1.28-2.62-2.82v-2.28ZM76.99,48.7v-3.72c-.32-1.41-1.01-2.65-2.09-3.72-1.54-1.56-3.4-2.34-5.58-2.34s-4.03.77-5.57,2.32c-1.53,1.55-2.3,3.42-2.3,5.62s.77,4.01,2.3,5.55c1.53,1.54,3.39,2.31,5.57,2.31s4.04-.77,5.58-2.31c1.07-1.07,1.77-2.31,2.09-3.72Z"/><path class="cls-1" d="M69.27,67.61c-5.68,0-10.61-2.05-14.66-6.09-4.05-4.04-6.1-8.96-6.1-14.62s2.05-10.62,6.1-14.67c4.05-4.05,8.98-6.1,14.67-6.1s10.63,2.05,14.65,6.11c4.02,4.05,6.06,8.98,6.06,14.66,0,2.64-.95,5.46-2.82,8.39-1.99,3.13-4.32,4.71-6.9,4.71-.32,0-.63-.02-.93-.07-2.08-.43-3.35-1.68-3.68-3.55-1.96,1.36-4.09,2.04-6.38,2.04-3.18,0-5.93-1.15-8.2-3.41s-3.41-5-3.41-8.14,1.15-5.96,3.41-8.23c2.26-2.26,5.02-3.41,8.2-3.41,2.26,0,4.38.67,6.31,2v-1.63h4.68c-3.08-3.02-6.68-4.48-11-4.48s-8.02,1.52-11.12,4.63c-3.1,3.12-4.61,6.77-4.61,11.15s1.51,8.02,4.61,11.12c3.1,3.1,6.74,4.61,11.12,4.61,2.96,0,5.1-.4,6.36-1.18l.93-.58,3.54,3.73-1.47.86c-2.45,1.43-5.6,2.16-9.36,2.16ZM80.57,54.9c.1.17.17.17.2.17-.02,0,.68-.19,2.33-2.54,1.31-1.86,1.95-3.7,1.95-5.63,0-4.31-1.47-7.91-4.49-11v19ZM69.33,40.27c-1.82,0-3.33.63-4.6,1.92-1.28,1.3-1.91,2.83-1.91,4.67s.62,3.31,1.9,4.6c1.28,1.29,2.79,1.91,4.61,1.91s3.34-.63,4.62-1.92c.86-.86,1.41-1.82,1.69-2.92v-3.4c-.28-1.11-.83-2.06-1.69-2.92-1.29-1.31-2.8-1.94-4.62-1.94ZM77.87,50.4c-.04.1-.08.19-.12.29l.12-.13v-.16ZM77.72,42.95c.05.11.1.22.15.34v-.18l-.15-.15Z"/><path class="cls-1" d="M113.49,113.13H25.77c-5.87,0-10.64-4.77-10.64-10.64v-52.29c0-5.87,4.77-10.64,10.64-10.64h15.41c1.93,0,3.5,1.57,3.5,3.5s-1.57,3.5-3.5,3.5h-15.41c-2.01,0-3.64,1.63-3.64,3.64v52.29c0,2.01,1.63,3.64,3.64,3.64h87.72c2.01,0,3.64-1.63,3.64-3.64v-52.29c0-2.01-1.63-3.64-3.64-3.64h-14.92c-1.93,0-3.5-1.57-3.5-3.5s1.57-3.5,3.5-3.5h14.92c5.87,0,10.64,4.77,10.64,10.64v52.29c0,5.87-4.77,10.64-10.64,10.64Z"/><path class="cls-1" d="M69.63,91.73c-2.98,0-5.96-.96-8.29-2.88L16.76,52.04l3.74-4.53,44.58,36.81c2.47,2.04,6.63,2.04,9.1,0l44.58-36.81,3.74,4.53-44.58,36.81c-2.32,1.92-5.31,2.88-8.29,2.88Z"/></svg>