<?xml version="1.0" encoding="UTF-8"?>
<svg id="Layer_1" xmlns="http://www.w3.org/2000/svg" version="1.1" viewBox="0 0 139.3 139.3">
  <!-- Generator: Adobe Illustrator 29.4.0, SVG Export Plug-In . SVG Version: 2.1.0 Build 152)  -->
  <defs>
    <style>
      .st0 {
        fill: none;
        stroke: #fff;
        stroke-miterlimit: 10;
        stroke-width: 4px;
      }

      .st1 {
        fill: #fff;
      }
    </style>
  </defs>
  <rect class="st0" x="21.1" y="21.1" width="97" height="97" rx="10.6" ry="10.6"/>
  <rect class="st1" x="46.2" y="61.5" width="10.1" height="32.6"/>
  <path class="st1" d="M51.2,57.2c3.3,0,6-2.7,6-6s-2.7-6-6-6-6,2.7-6,6,2.7,6,6,6Z"/>
  <path class="st1" d="M72.4,77c0-4.6,2.1-7.3,6.2-7.3s5.5,2.6,5.5,7.3v17.1h10v-20.6c0-8.7-4.9-13-11.9-13s-9.8,5.4-9.8,5.4v-4.4h-9.7v32.6h9.7v-17.1h0Z"/>
</svg>